<svg width="20" height="32" viewBox="0 0 20 32" fill="none" xmlns="http://www.w3.org/2000/svg">
<path d="M16.2494 20.7073C15.8785 22.8545 14.4939 24.5102 12.1345 25.6304L11.185 26.0815L11.0187 25.0448C10.9218 24.4575 10.8718 23.8634 10.8692 23.2682C10.8692 23.1765 10.8701 23.0864 10.8731 22.9969C10.8751 22.9114 10.8792 22.8279 10.8839 22.7444C10.8849 22.7345 10.8849 22.7237 10.8859 22.7138C10.8908 22.6333 10.8967 22.5537 10.9036 22.4761C10.9105 22.3906 10.9193 22.3071 10.9292 22.2245C10.939 22.142 10.9499 22.0614 10.9626 21.9808C10.9745 21.9002 10.9871 21.8206 11.002 21.743C11.0148 21.6693 11.0296 21.5964 11.0443 21.5259C11.0945 21.291 11.1536 21.067 11.2217 20.8508C11.2433 20.78 11.267 20.7103 11.2906 20.6425C11.3112 20.5835 11.3318 20.5264 11.3535 20.4695C11.3633 20.442 11.3742 20.4145 11.385 20.388C11.4037 20.3378 11.4234 20.2897 11.444 20.2405C11.4706 20.1757 11.4991 20.1108 11.5277 20.0479C11.5877 19.9143 11.6517 19.7853 11.7174 19.6598C11.7321 19.6313 11.7479 19.6028 11.7636 19.5743C11.7843 19.5349 11.8059 19.4948 11.8285 19.4563C11.8619 19.3964 11.8964 19.3384 11.9308 19.2814C11.9466 19.2549 11.9623 19.2293 11.9781 19.2038C12.0017 19.1655 12.0253 19.1281 12.0499 19.0907C12.1188 18.9817 12.1906 18.8766 12.2644 18.7731C12.2889 18.7377 12.3134 18.7033 12.3392 18.6689C12.3776 18.6168 12.416 18.5658 12.4543 18.5146C12.5321 18.4134 12.6118 18.3142 12.6924 18.2169C12.7328 18.168 12.7741 18.1196 12.8144 18.0714C12.8951 17.9781 12.9768 17.8867 13.0585 17.7973C13.1411 17.7079 13.2237 17.6214 13.3064 17.5349C13.3497 17.4907 13.393 17.4465 13.4373 17.4023C13.4806 17.358 13.5249 17.3148 13.5681 17.2716C13.7778 17.8754 13.9117 18.5029 13.9667 19.1396C13.9293 19.1828 13.8928 19.2261 13.8574 19.2703C13.8309 19.3017 13.8053 19.3342 13.7797 19.3666C13.7512 19.402 13.7227 19.4374 13.6951 19.4737C13.6882 19.4835 13.6803 19.492 13.6734 19.5022C13.6302 19.5592 13.5878 19.6172 13.5455 19.6751C13.4569 19.799 13.3727 19.9264 13.2926 20.0574C13.212 20.1881 13.1362 20.3237 13.0663 20.4632C13.0299 20.533 12.9965 20.6037 12.964 20.6755C12.9463 20.7122 12.9306 20.7482 12.9158 20.7845C12.8991 20.8209 12.8843 20.8583 12.8695 20.8956C12.8401 20.9703 12.8115 21.0459 12.7839 21.1236C12.7692 21.1619 12.7553 21.2012 12.7435 21.2405C12.7307 21.2798 12.7191 21.3191 12.7062 21.3594C12.6924 21.3997 12.6806 21.44 12.6707 21.4816C12.6599 21.5218 12.6491 21.5631 12.6383 21.6044C12.6156 21.687 12.5959 21.7724 12.5792 21.8589C12.5609 21.9444 12.5438 22.0328 12.5303 22.1223C12.5214 22.1665 12.5145 22.2117 12.5096 22.2579C12.5035 22.3031 12.4978 22.3495 12.4919 22.3955C12.485 22.4416 12.4801 22.4888 12.4771 22.5359C12.471 22.5841 12.4673 22.6322 12.4634 22.6804C12.439 23.0047 12.4351 23.3303 12.4516 23.6552V23.6562C12.4968 23.6256 12.5411 23.5962 12.5854 23.5658C12.6286 23.5352 12.672 23.5038 12.7143 23.4734C12.8068 23.4066 12.8963 23.3378 12.9829 23.2671C13.0262 23.2317 13.0685 23.1963 13.1098 23.1609C13.1522 23.1245 13.1935 23.0882 13.2348 23.0499C13.2742 23.0145 13.3125 22.9791 13.3499 22.9418C13.3696 22.9234 13.3883 22.9044 13.407 22.8857C13.4267 22.8674 13.4444 22.8474 13.4631 22.8288C13.531 22.759 13.5969 22.6883 13.6598 22.6156C13.6648 22.6094 13.6707 22.6028 13.6756 22.5969C13.7062 22.5615 13.7356 22.5271 13.7641 22.4907C13.8005 22.4455 13.8359 22.4003 13.8714 22.3542C13.898 22.3188 13.9245 22.2824 13.9502 22.2461C13.9885 22.1911 14.0259 22.1361 14.0623 22.079C14.0839 22.0466 14.1046 22.0131 14.1243 21.9797C14.1509 21.9375 14.1764 21.8942 14.2 21.8501C14.249 21.7636 14.2955 21.6752 14.3378 21.5847C14.3575 21.5425 14.3772 21.5003 14.3958 21.458C14.3998 21.4481 14.4037 21.4383 14.4086 21.4285C14.4225 21.396 14.4352 21.3637 14.449 21.3312C14.4529 21.3194 14.4579 21.3076 14.4627 21.2949C14.4726 21.2704 14.4815 21.246 14.4903 21.2202C14.4992 21.1966 14.508 21.173 14.5159 21.1494C14.5316 21.1042 14.5465 21.059 14.5612 21.0128C14.5739 20.9706 14.5868 20.9273 14.5986 20.8851C14.6143 20.831 14.628 20.777 14.6409 20.722C14.6507 20.6827 14.6586 20.6443 14.6674 20.605C14.6792 20.55 14.6891 20.4951 14.6989 20.4401C14.7659 20.0429 14.7893 19.6396 14.7688 19.2373C14.7678 19.2049 14.7658 19.1715 14.7627 19.138C14.7597 19.0713 14.7548 19.0054 14.7479 18.9396C14.746 18.913 14.744 18.8865 14.74 18.8601C14.7371 18.8209 14.7322 18.7825 14.7273 18.7432C14.7211 18.6911 14.7145 18.6381 14.7066 18.586C14.6978 18.5191 14.687 18.4524 14.676 18.3865C14.5719 17.7997 14.4128 17.2239 14.2007 16.6669C14.18 16.6109 14.1584 16.5558 14.1368 16.5008C14.119 16.4546 14.1001 16.4084 14.0817 16.3622C14.067 16.3229 14.0502 16.2847 14.0335 16.2453C14.0138 16.1964 13.9922 16.146 13.9705 16.0969C13.9587 16.0694 13.9469 16.0409 13.9338 16.0134C13.7676 15.6341 13.5796 15.2548 13.3739 14.8794C13.3159 14.7733 13.2568 14.6672 13.1966 14.561C13.0411 14.2918 12.8779 14.0246 12.7072 13.7592C12.6747 13.7072 12.6403 13.6541 12.6048 13.602C12.5714 13.5489 12.536 13.4958 12.5006 13.4438C12.291 13.1303 12.0716 12.8207 11.8452 12.5162C11.797 12.4513 11.7489 12.3875 11.6996 12.3236C11.6524 12.2607 11.6042 12.1978 11.555 12.1359C11.2657 11.7625 10.9646 11.3979 10.6586 11.0471C10.6183 11 10.577 10.9527 10.5356 10.9066C10.4126 10.7671 10.2887 10.6295 10.1637 10.4939C10.1233 10.4487 10.0811 10.4035 10.0387 10.3595L9.96888 10.2838H9.9679C9.93731 10.3153 9.90789 10.3477 9.87737 10.3802C9.82323 10.4381 9.76909 10.4962 9.71599 10.5551C9.66186 10.613 9.6087 10.672 9.55659 10.7309C9.49952 10.7938 9.44345 10.8577 9.38736 10.9216C9.3372 10.9776 9.28697 11.0346 9.23876 11.0916C9.08033 11.2733 8.92489 11.4591 8.77038 11.6475C8.72144 11.7074 8.67202 11.7674 8.62357 11.8273C8.61928 11.8335 8.61466 11.8394 8.60975 11.845C8.56081 11.9061 8.51238 11.9659 8.46516 12.0278C8.36478 12.1555 8.2644 12.2852 8.16701 12.4149C8.11679 12.4798 8.0686 12.5456 8.02021 12.6115C7.97128 12.6773 7.92276 12.7432 7.87652 12.809C7.8293 12.8729 7.78305 12.9368 7.73877 13.0016C7.73583 13.0055 7.73264 13.0104 7.72897 13.0153C7.63648 13.1461 7.54596 13.2777 7.45738 13.4104C7.36587 13.545 7.27733 13.6803 7.19174 13.8162C7.15137 13.8781 7.11221 13.94 7.07367 14.0029C7.0648 14.0186 7.05496 14.0343 7.04512 14.0491C7.00841 14.1081 6.9723 14.167 6.93786 14.2263C6.89553 14.2951 6.8542 14.3638 6.81486 14.4326C6.78428 14.4837 6.75487 14.5358 6.72532 14.5879C6.69682 14.639 6.66726 14.6901 6.63778 14.7422V14.7431C6.60921 14.7943 6.58071 14.8454 6.55215 14.8975V14.8984C6.52364 14.9495 6.49604 15.0016 6.46852 15.0537C6.46782 15.0563 6.46647 15.0586 6.4646 15.0606C6.4279 15.1284 6.39272 15.1962 6.35926 15.264C6.28745 15.4035 6.21891 15.543 6.15362 15.6826C6.12022 15.7523 6.08773 15.8221 6.05721 15.8918C5.59476 15.4615 5.19625 15.0871 4.87939 14.7215C4.9109 14.6567 4.94339 14.5928 4.97587 14.5279C5.00849 14.4641 5.04196 14.3993 5.07625 14.3334C6.08677 12.4172 7.62665 10.3802 9.41053 8.59765L9.96718 8.04248L10.5238 8.59765C12.3077 10.3802 13.8477 12.4172 14.8582 14.3334C14.9103 14.4317 14.9605 14.5299 15.0087 14.6272C15.0332 14.6753 15.0576 14.7244 15.0815 14.7726C15.106 14.8215 15.1297 14.8699 15.1523 14.918L15.2202 15.0625C15.2881 15.207 15.3531 15.3504 15.4141 15.4929C15.6461 16.026 15.8414 16.5743 15.9985 17.134C16.0133 17.186 16.0271 17.2381 16.0409 17.2902C16.0546 17.3422 16.0674 17.3933 16.0802 17.4455C16.093 17.4965 16.1047 17.5486 16.1169 17.5997C16.1291 17.6508 16.1395 17.699 16.1504 17.7481C16.1907 17.9397 16.2252 18.1284 16.2537 18.3162C16.2616 18.3683 16.2684 18.4194 16.2753 18.4714C16.2783 18.4921 16.2815 18.5137 16.2832 18.5353C16.2891 18.5756 16.294 18.6158 16.298 18.6562C16.3039 18.7054 16.3088 18.7545 16.3127 18.8036C16.3752 19.4382 16.3539 20.0783 16.2494 20.7073Z" fill="url(#paint0_linear_453_2826)"/>
<path d="M6.3607 15.2634C6.28987 15.403 6.2213 15.5425 6.15503 15.682C6.21999 15.5425 6.28856 15.403 6.3607 15.2634Z" fill="url(#paint1_linear_453_2826)"/>
<path d="M5.16432 19.4182C5.16334 19.4526 5.16333 19.487 5.16333 19.5214C5.16235 19.487 5.16235 19.4526 5.16333 19.4172L5.16432 19.4182Z" fill="url(#paint2_linear_453_2826)"/>
<path d="M2.12362 14.7485V14.7476C2.18081 14.8759 2.24284 15.0008 2.30835 15.1228C2.31166 15.1289 2.31482 15.135 2.31812 15.1411C2.35537 15.2097 2.39347 15.2775 2.43434 15.3432C2.45012 15.3683 2.46494 15.3933 2.48078 15.4183L2.48416 15.4237C2.51743 15.4775 2.55167 15.5302 2.5869 15.582C2.62134 15.6331 2.65579 15.6842 2.69219 15.7344C2.6931 15.736 2.69461 15.7378 2.69565 15.7394C2.70177 15.7484 2.70825 15.7578 2.71474 15.7665C2.74477 15.808 2.77548 15.8488 2.80649 15.8896C2.83873 15.9328 2.87212 15.9759 2.90589 16.0185C2.91292 16.0275 2.91979 16.0364 2.92689 16.0453C2.99417 16.1295 3.06342 16.2125 3.13327 16.2935C3.14276 16.3045 3.15211 16.3157 3.16165 16.3266C3.20227 16.3738 3.24337 16.4205 3.28551 16.4661L3.2868 16.4675C3.32808 16.5137 3.37037 16.5588 3.41361 16.605C3.4234 16.6157 3.4343 16.6275 3.44507 16.6383C3.47755 16.6738 3.51098 16.7082 3.54542 16.7426C3.55213 16.7506 3.55936 16.7581 3.56708 16.7651C3.58677 16.7867 3.60739 16.8074 3.62824 16.828C3.73058 16.9322 3.83293 17.0334 3.93723 17.1335C4.12618 17.3162 4.31702 17.4939 4.50609 17.67C4.7619 17.9088 5.01576 18.1446 5.26178 18.3863L5.28239 18.407C5.33359 18.4571 5.38279 18.5062 5.43203 18.5563C5.45038 18.5747 5.46841 18.5937 5.48609 18.6113C5.5245 18.6506 5.56286 18.6899 5.59926 18.7292C5.6288 18.7598 5.6573 18.7891 5.68489 18.8196C5.72911 18.8668 5.77242 18.913 5.81475 18.9611C5.85146 19.0014 5.88656 19.0417 5.92198 19.083C5.9574 19.1223 5.99183 19.1636 6.02529 19.2038C6.05973 19.2432 6.09222 19.2832 6.12568 19.3247C6.14538 19.3491 6.165 19.3736 6.1847 19.3994C6.21528 19.4367 6.24472 19.475 6.27329 19.5133C6.32149 19.5763 6.3687 19.6411 6.41396 19.706C6.42871 19.7256 6.44246 19.7463 6.45629 19.7659C6.47201 19.7885 6.48775 19.8121 6.50255 19.8347C6.52812 19.871 6.55148 19.9084 6.57534 19.9446C6.61076 19.9996 6.64421 20.0537 6.67767 20.1096C6.67767 20.1105 6.67865 20.1105 6.67865 20.1115C6.70422 20.1538 6.72882 20.1971 6.75347 20.2403C6.7613 20.2541 6.76916 20.2678 6.77707 20.2815C6.79183 20.3091 6.8066 20.3366 6.82136 20.3641C6.82821 20.3759 6.83416 20.3877 6.84003 20.3995C6.8645 20.4457 6.88821 20.4928 6.91085 20.54C6.91122 20.5404 6.91151 20.5409 6.91168 20.5414C6.91185 20.5419 6.9119 20.5424 6.91183 20.5429C6.9363 20.593 6.96004 20.6422 6.98274 20.6933C7.00537 20.7414 7.02598 20.7906 7.04666 20.8407C7.06929 20.8938 7.09094 20.9478 7.11162 21.0018C7.13229 21.0559 7.15192 21.1109 7.17064 21.1659C7.18049 21.1935 7.18937 21.2209 7.19818 21.2485C7.20698 21.2761 7.21592 21.3035 7.22479 21.332C7.23757 21.3732 7.25033 21.4146 7.26147 21.4568C7.27425 21.4981 7.28508 21.5403 7.2959 21.5826C7.29982 21.5963 7.30375 21.6111 7.30675 21.6248C7.31457 21.6524 7.32148 21.6808 7.32741 21.7094C7.33922 21.7565 7.35003 21.8056 7.35982 21.8547C7.3726 21.9147 7.38429 21.9747 7.3953 22.0366V22.0375C7.40509 22.0906 7.41396 22.1447 7.42087 22.1987C7.42479 22.2203 7.42773 22.2419 7.43073 22.2626C7.43856 22.3147 7.44451 22.3667 7.45038 22.4198C7.45825 22.4847 7.46514 22.5505 7.47105 22.6173V22.6183C7.47594 22.6772 7.47991 22.7382 7.48285 22.7991C7.48366 22.8027 7.484 22.8063 7.48383 22.8099C7.48579 22.8276 7.48578 22.8453 7.48676 22.8629C7.48976 22.9179 7.49173 22.975 7.49369 23.032C7.49565 23.1017 7.49662 23.1735 7.49662 23.2462C7.49662 23.3799 7.49367 23.5164 7.48676 23.656C7.20987 23.4747 6.94768 23.272 6.70258 23.0497C6.66025 23.0113 6.61992 22.973 6.57955 22.9336C6.56579 22.9208 6.55302 22.908 6.53926 22.8943C6.50286 22.857 6.46548 22.8196 6.43 22.7823C6.42609 22.7774 6.4212 22.7735 6.41722 22.7685C6.38969 22.7391 6.36217 22.7096 6.33556 22.6791C6.32951 22.6734 6.32392 22.6673 6.31886 22.6608C6.3051 22.646 6.29127 22.6302 6.27848 22.6156C6.27059 22.6067 6.26276 22.5978 6.25584 22.589C6.2293 22.5585 6.20373 22.5271 6.1781 22.4966C6.16629 22.4819 6.15547 22.4681 6.14366 22.4534C6.10922 22.4102 6.07576 22.3679 6.04432 22.3237C6.02071 22.2923 5.99808 22.2608 5.97643 22.2284C5.97085 22.2226 5.9662 22.2159 5.96266 22.2087C5.94492 22.1851 5.92821 22.1606 5.91341 22.137C5.84159 22.0299 5.77568 21.9208 5.7147 21.8088C5.71247 21.8067 5.71105 21.8039 5.71075 21.8009C5.70475 21.7915 5.69948 21.7816 5.69498 21.7714C5.6845 21.7539 5.675 21.7359 5.66649 21.7174C5.66368 21.7139 5.66159 21.7099 5.66037 21.7056C5.64751 21.6834 5.63601 21.6604 5.62593 21.6368C5.61412 21.6142 5.60328 21.5916 5.59349 21.568C5.58065 21.5436 5.56905 21.5179 5.55804 21.4924C5.556 21.489 5.55436 21.4853 5.55314 21.4816C5.53344 21.4393 5.51479 21.3941 5.49705 21.3498C5.49313 21.3401 5.48914 21.3302 5.48522 21.3204C5.46852 21.2781 5.45274 21.2369 5.438 21.1936C5.43188 21.1789 5.42718 21.1642 5.42229 21.1494C5.40357 21.0973 5.38682 21.0453 5.3711 20.9922C5.35244 20.9322 5.33568 20.8723 5.31996 20.8114C5.30712 20.7652 5.2955 20.719 5.28651 20.6718C5.28392 20.6649 5.28225 20.6576 5.28155 20.6502C5.27544 20.6286 5.27176 20.607 5.26778 20.5854C5.25696 20.5373 5.24807 20.4891 5.23926 20.4399C5.20667 20.2514 5.18501 20.0611 5.17433 19.87C5.17031 19.8314 5.16826 19.7927 5.1682 19.7539C5.16521 19.7166 5.16423 19.6783 5.16423 19.6399C5.16423 19.6006 5.16325 19.5613 5.16325 19.5211C5.16227 19.4867 5.16227 19.4523 5.16325 19.4169C4.79721 19.016 4.39084 18.6367 3.96871 18.2446C3.89098 18.1719 3.81227 18.0982 3.73254 18.0235C3.63832 18.5254 3.59057 19.0349 3.58989 19.5456C3.58989 19.6341 3.59186 19.7215 3.59479 19.808C3.60366 20.035 3.62239 20.258 3.65286 20.4771C3.65781 20.5155 3.66368 20.5538 3.66961 20.5921C3.67555 20.6304 3.68141 20.6688 3.68795 20.7071C4.05894 22.8542 5.44351 24.51 7.80288 25.6302L8.75241 26.0812L8.91869 25.0445C8.93147 24.9651 8.94316 24.8853 8.95411 24.8077C8.96298 24.7448 8.97184 24.6829 8.97857 24.622L8.99031 24.5304C8.99428 24.4998 8.99723 24.4693 9.00017 24.4387C9.00806 24.3709 9.01496 24.3031 9.02083 24.2363C9.02475 24.1874 9.0297 24.139 9.03362 24.0909C9.05038 23.8884 9.06023 23.6919 9.06513 23.5003C9.06709 23.4216 9.06805 23.344 9.06805 23.2674C9.06805 23.232 9.06805 23.1967 9.06707 23.1623C9.06707 23.1338 9.06706 23.1053 9.06608 23.0768C9.06315 22.9618 9.05926 22.8488 9.05234 22.7367C9.04347 22.5874 9.03166 22.441 9.01564 22.2975C9.00775 22.2238 8.99887 22.1509 8.98804 22.0784C8.97923 22.0145 8.97038 21.9516 8.96053 21.8887C8.95955 21.8799 8.95757 21.872 8.95653 21.8643C8.94968 21.825 8.94381 21.7857 8.93592 21.7474C8.92112 21.6638 8.90443 21.5824 8.887 21.5007C8.88008 21.4641 8.87218 21.429 8.86331 21.3936C8.8545 21.3563 8.84563 21.318 8.83676 21.2806C8.82691 21.2423 8.81707 21.204 8.80728 21.1666C8.79749 21.1292 8.78662 21.09 8.7758 21.0527C8.76099 20.9977 8.74429 20.9427 8.72759 20.8877C8.71481 20.8465 8.70197 20.8062 8.68918 20.7659C8.66753 20.6991 8.64487 20.6332 8.62126 20.5683C8.61441 20.5487 8.6075 20.53 8.59967 20.5114C8.57997 20.4583 8.56028 20.4052 8.5396 20.3532L8.50125 20.2588C8.48847 20.2274 8.4747 20.1969 8.46192 20.1665C8.43237 20.0977 8.40185 20.0299 8.37139 19.9621C8.35365 19.9257 8.33688 19.8903 8.31921 19.854C8.28577 19.7852 8.25133 19.7174 8.21589 19.6506C8.14008 19.5071 8.0607 19.3676 7.97776 19.232C7.94534 19.1799 7.91286 19.1278 7.8794 19.0767C7.87053 19.062 7.8607 19.0473 7.85085 19.0325C7.82026 18.9853 7.78886 18.9391 7.75736 18.8929C7.6758 18.7741 7.59223 18.6581 7.50659 18.5451C7.46328 18.4881 7.42003 18.4321 7.37574 18.3771C7.32754 18.316 7.27928 18.2572 7.2301 18.1982C7.20564 18.1677 7.17993 18.1382 7.15436 18.1088C7.11888 18.0675 7.08347 18.0263 7.04707 17.985C7.01166 17.9437 6.97526 17.9034 6.93886 17.8631C6.90736 17.8277 6.87487 17.7924 6.84239 17.758C6.82471 17.7383 6.80699 17.7197 6.78931 17.701C6.74601 17.6538 6.7017 17.6076 6.65742 17.5624L6.57179 17.474C6.53833 17.4396 6.50488 17.4052 6.47044 17.3718C6.44598 17.3462 6.42138 17.3217 6.39667 17.2981C6.35037 17.2519 6.30418 17.2065 6.25787 17.1605C6.25494 17.1576 6.25175 17.1557 6.24906 17.1527C6.20178 17.1065 6.15357 17.0603 6.10537 17.0141C5.98136 16.8952 5.85838 16.7793 5.73641 16.6663C5.68325 16.6162 5.63112 16.567 5.57895 16.5189C5.53864 16.4815 5.49943 16.4442 5.45894 16.4078C5.41954 16.3705 5.3802 16.3341 5.34081 16.2978C5.30142 16.2616 5.26313 16.2251 5.22459 16.1879C4.97472 15.9521 4.73756 15.7231 4.52115 15.4921C4.41 15.3733 4.30368 15.2534 4.20428 15.1325C4.17479 15.0971 4.14525 15.0618 4.11865 15.0264C4.10091 15.0058 4.0852 14.9851 4.06972 14.9635C4.04415 14.9321 4.02046 14.9006 3.99789 14.8682C3.92699 14.7719 3.86008 14.6736 3.79909 14.5744C3.79224 14.5635 3.78534 14.5528 3.77941 14.542C3.75286 14.4997 3.72826 14.4574 3.70465 14.4132C3.68893 14.3867 3.67408 14.3592 3.66038 14.3316C3.64564 14.3042 3.63185 14.2767 3.61809 14.2491C3.60433 14.2216 3.59148 14.1941 3.57869 14.1666C3.57576 14.1605 3.57258 14.1538 3.56982 14.1469C3.55997 14.1253 3.55019 14.1027 3.54034 14.0801C3.52756 14.0516 3.5159 14.0231 3.50495 13.9936C3.49412 13.9692 3.48524 13.9445 3.47637 13.9189C3.47333 13.9119 3.47072 13.9047 3.46854 13.8973C3.45869 13.8708 3.44883 13.8443 3.44094 13.8179C3.42125 13.7589 3.4026 13.699 3.38682 13.6371C3.37997 13.6145 3.37403 13.5909 3.36914 13.5674C3.36225 13.5418 3.35633 13.5162 3.3514 13.4907C3.34351 13.4573 3.33666 13.4219 3.33073 13.3875C3.32766 13.3766 3.3256 13.3654 3.32461 13.3541C3.31965 13.3305 3.31575 13.306 3.31281 13.2814C3.3095 13.2653 3.30718 13.249 3.30588 13.2325C3.30197 13.2099 3.29903 13.1864 3.29707 13.1628C3.29211 13.1284 3.28919 13.093 3.28626 13.0576C3.28228 13.0233 3.28015 12.9889 3.27936 12.9545C3.27642 12.9171 3.2744 12.8788 3.2744 12.8395C3.27146 12.7423 3.27244 12.641 3.27837 12.5378C3.27935 12.5113 3.28131 12.4848 3.28327 12.4573C3.28425 12.4328 3.28624 12.4071 3.28936 12.3816C3.2892 12.3776 3.28954 12.3737 3.29035 12.3698C3.29426 12.3187 3.30019 12.2666 3.30705 12.2146C3.31102 12.1802 3.31494 12.1458 3.32087 12.1114C3.32381 12.0858 3.32772 12.0603 3.33267 12.0337C3.33952 11.9856 3.34839 11.9364 3.35824 11.8863C3.36436 11.8529 3.37104 11.8195 3.37795 11.7861C3.38774 11.7372 3.39856 11.6869 3.41134 11.6358C3.42021 11.5955 3.43006 11.5552 3.44088 11.5139C3.46156 11.4323 3.48419 11.3478 3.50976 11.2623C3.52156 11.2201 3.53533 11.1778 3.54915 11.1336C3.56194 11.0904 3.5757 11.0472 3.59142 11.002C3.6052 10.9587 3.61997 10.9145 3.63571 10.8693C3.63571 10.8683 3.6367 10.8673 3.63768 10.8654C3.84925 10.4438 4.07622 10.0202 4.31861 9.59473C4.36681 9.5092 4.41601 9.42368 4.4672 9.33816C4.51736 9.25166 4.56849 9.16418 4.62165 9.07676C4.66985 8.99734 4.71804 8.91659 4.7663 8.83601C4.77413 8.82422 4.78104 8.81244 4.7879 8.80065C4.83909 8.71812 4.89025 8.6357 4.94243 8.55299C4.99651 8.46557 5.05161 8.3781 5.10868 8.29062C5.16373 8.20418 5.21877 8.11767 5.27597 8.03123C5.33793 7.93685 5.40095 7.84253 5.4639 7.74724C5.51895 7.66568 5.57399 7.58315 5.6302 7.50154L5.80436 7.24803C5.96964 7.01125 6.13953 6.77377 6.31403 6.53561C6.36816 6.46194 6.42229 6.38821 6.4774 6.31454C6.62421 6.11704 6.77353 5.92051 6.92706 5.72295C6.97233 5.66498 7.01882 5.60603 7.06482 5.54805C7.10513 5.49497 7.14647 5.44292 7.1888 5.39081C7.25767 5.30242 7.32851 5.21495 7.40032 5.12649C7.47116 5.03809 7.54297 4.95061 7.61582 4.86215C7.68763 4.77473 7.76044 4.68628 7.83427 4.5988C7.89134 4.53001 7.9494 4.46221 8.00745 4.39343C8.06862 4.32171 8.13045 4.249 8.19242 4.17625C8.59585 3.70656 9.01697 3.23822 9.4558 2.77122C9.53942 2.68178 9.62407 2.59235 9.70965 2.50194C9.79528 2.41257 9.88187 2.32216 9.96848 2.23272C10.055 2.32216 10.1417 2.41257 10.2272 2.50194C10.3129 2.59235 10.3975 2.68178 10.4811 2.77122C10.9199 3.23801 11.341 3.70636 11.7445 4.17625C11.8065 4.249 11.8684 4.32171 11.9294 4.39343C11.9875 4.46221 12.0457 4.53001 12.1027 4.5988C12.1764 4.68628 12.2495 4.77473 12.3211 4.86215C12.3939 4.95061 12.4657 5.03809 12.5366 5.12649C12.6084 5.21495 12.6793 5.30242 12.7481 5.39081C12.7904 5.44292 12.8317 5.49497 12.8721 5.54805C12.9184 5.60603 12.9646 5.66498 13.0099 5.72295C13.1633 5.92051 13.3129 6.11704 13.4595 6.31454C13.5146 6.38821 13.5687 6.46194 13.6228 6.53561C13.798 6.77345 13.9678 7.01092 14.1325 7.24803L14.3067 7.50154C14.3628 7.58315 14.4179 7.66568 14.473 7.74724C14.5359 7.84253 14.5989 7.93661 14.661 8.03123C14.718 8.11767 14.7731 8.20418 14.8282 8.29062C14.8853 8.3781 14.9404 8.46557 14.9945 8.55299C15.0466 8.63552 15.0978 8.71794 15.149 8.80065C15.1558 8.81244 15.1627 8.82422 15.1706 8.83601C15.2188 8.91659 15.267 8.99716 15.3153 9.07676C15.3684 9.16418 15.4193 9.25166 15.4697 9.33816C15.5209 9.42368 15.5701 9.5092 15.6183 9.59473C15.8614 10.0202 16.0883 10.4438 16.2992 10.8654C16.3002 10.8673 16.3012 10.8683 16.3012 10.8693C16.3032 10.8762 16.3061 10.883 16.3081 10.8889C16.3208 10.9273 16.3337 10.9646 16.3455 11.002C16.3603 11.0472 16.375 11.0904 16.3878 11.1336C16.3996 11.171 16.4114 11.2083 16.4212 11.2447C16.4468 11.3272 16.4694 11.4088 16.4891 11.4883C16.4989 11.5237 16.5068 11.5581 16.5147 11.5925C16.5226 11.6201 16.5275 11.6456 16.5331 11.6719C16.5339 11.6731 16.5343 11.6745 16.5341 11.6759L16.5518 11.7553C16.5606 11.7946 16.5685 11.8339 16.5754 11.8732C16.5757 11.8736 16.576 11.8741 16.5762 11.8746C16.5764 11.8751 16.5764 11.8756 16.5764 11.8761C16.5813 11.9047 16.5872 11.9322 16.5912 11.9606C16.599 12 16.6049 12.0393 16.6108 12.0786C16.6167 12.1179 16.6226 12.1562 16.6266 12.1947C16.6295 12.2153 16.6334 12.2369 16.6344 12.2575C16.6356 12.264 16.6363 12.2706 16.6364 12.2772C16.6384 12.2929 16.6403 12.3086 16.6413 12.3243C16.6492 12.3941 16.6541 12.4629 16.657 12.5307C16.6591 12.5583 16.661 12.5867 16.661 12.6142V12.6192C16.662 12.6408 16.662 12.6614 16.662 12.682C16.664 12.7548 16.663 12.8265 16.66 12.8963C16.659 12.9415 16.6561 12.9867 16.6521 13.0307C16.652 13.0395 16.6513 13.0484 16.6502 13.0572C16.6462 13.0985 16.6423 13.1407 16.6374 13.181C16.6256 13.2792 16.6098 13.3756 16.5891 13.4689C16.5878 13.4796 16.5855 13.4901 16.5823 13.5004C16.5822 13.5042 16.5812 13.5079 16.5794 13.5112C16.5798 13.5129 16.5798 13.5146 16.5795 13.5163C16.5791 13.518 16.5784 13.5196 16.5774 13.521C16.5725 13.5495 16.5645 13.576 16.5577 13.6035C16.5479 13.6457 16.536 13.687 16.5233 13.7283C16.4967 13.8177 16.4672 13.9055 16.4327 13.9907C16.4199 14.0251 16.4061 14.0595 16.3904 14.0929C16.3843 14.1076 16.3776 14.1224 16.3707 14.1371C16.3363 14.2138 16.2999 14.2894 16.2596 14.3641C16.2399 14.4004 16.2202 14.4368 16.1984 14.4722C16.1827 14.5007 16.1649 14.5292 16.1482 14.5577C16.1384 14.5725 16.1285 14.5883 16.1188 14.6039C16.101 14.6324 16.0821 14.6609 16.0627 14.6904C16.0555 14.7026 16.0476 14.7145 16.039 14.7258C16.0374 14.729 16.0353 14.7319 16.0329 14.7346C16.0152 14.7621 15.9975 14.7886 15.9779 14.814C16.2307 15.3574 16.4493 15.9159 16.6324 16.4865C16.6381 16.4798 16.6439 16.4743 16.6497 16.4673L16.6519 16.4648C16.6919 16.4212 16.7309 16.3766 16.77 16.3321C16.7735 16.328 16.7769 16.3239 16.7805 16.3198C16.8654 16.2225 16.948 16.1231 17.0281 16.0215C17.0337 16.0145 17.0392 16.0074 17.0447 16.0004C17.0738 15.9638 17.1026 15.9271 17.1303 15.889C17.1688 15.8393 17.2054 15.7886 17.2421 15.7373C17.2529 15.7221 17.2637 15.7069 17.2743 15.6917C17.2997 15.655 17.3251 15.6187 17.3498 15.5817C17.385 15.53 17.4192 15.4772 17.4525 15.4234L17.4537 15.4215C17.4908 15.3639 17.526 15.3053 17.5593 15.2457C17.582 15.2053 17.6056 15.1651 17.6272 15.1248C17.6439 15.0942 17.6607 15.0629 17.6762 15.0324C17.6821 15.0227 17.687 15.0125 17.6909 15.0019C17.7185 14.9497 17.7441 14.8967 17.7687 14.8436C17.7834 14.8112 17.7982 14.7797 17.813 14.7474V14.7483C18.321 13.6049 18.443 12.1816 17.7549 10.2589L17.7601 10.2571C16.1398 7.01832 13.6466 3.67362 10.5248 0.55591L9.96815 0L9.41151 0.55591C6.28966 3.67362 3.79653 7.01832 2.17628 10.2571L2.18141 10.2589C1.49356 12.1818 1.61591 13.6051 2.12362 14.7485Z" fill="url(#paint3_linear_453_2826)"/>
<path d="M19.011 13.2217C18.9376 14.181 18.619 15.1055 18.0859 15.9069C18.0887 15.9211 18.092 15.9353 18.0945 15.9497C18.1712 16.3467 18.2306 16.7382 18.2726 17.124C18.2815 17.2017 18.2883 17.2782 18.2953 17.3549C18.3307 17.7391 18.3484 18.1185 18.3484 18.4909C18.3484 18.6147 18.3464 18.7385 18.3423 18.8613C18.3381 18.9841 18.3324 19.106 18.3245 19.2278V19.2288C18.3167 19.3507 18.3068 19.4715 18.295 19.5914C18.2714 19.8312 18.2389 20.069 18.1996 20.3038C18.1504 20.5967 18.0875 20.8846 18.0126 21.1686C17.9979 21.2246 17.982 21.2816 17.9664 21.3376C17.2826 23.7392 15.7191 25.672 13.3182 27.0812C12.2703 27.6955 11.1435 28.1643 9.96886 28.4746C8.79418 28.1643 7.66733 27.6955 6.61944 27.0812C4.2186 25.672 2.65506 23.7392 1.97125 21.3376C1.95553 21.2816 1.93976 21.2246 1.92501 21.1686C1.8502 20.8846 1.78725 20.5967 1.73807 20.3038C1.69868 20.069 1.6662 19.8312 1.64258 19.5914C1.6308 19.4716 1.62097 19.3507 1.6131 19.2288V19.2278C1.60521 19.107 1.59934 18.9842 1.59536 18.8613C1.59139 18.7385 1.58924 18.6147 1.58924 18.4909C1.58924 18.1182 1.60693 17.7391 1.64235 17.3549C1.64926 17.2782 1.65618 17.2017 1.66499 17.124C1.70731 16.7378 1.76667 16.3464 1.84309 15.9497C1.84572 15.9357 1.84921 15.9214 1.85172 15.9069C1.31857 15.1055 1.00003 14.181 0.926531 13.2217C-0.122892 16.3057 -0.282218 19.1711 0.456709 21.7667C1.24879 24.5486 3.12026 26.8647 5.86946 28.4645C6.59902 28.8877 7.36255 29.2495 8.15217 29.5463C8.17878 29.5562 8.20535 29.567 8.23171 29.5758C8.42847 29.6485 8.61016 29.7117 8.77683 29.7652C8.80931 29.776 8.84174 29.7868 8.87324 29.7967C8.9461 29.8193 9.01596 29.8409 9.08184 29.8606C9.11243 29.8704 9.14301 29.8792 9.17237 29.8871L9.18124 29.89V31.9998H10.7555V29.89L10.7644 29.8871C10.794 29.8792 10.8234 29.8704 10.8549 29.8606C10.9209 29.8409 10.9908 29.8193 11.0635 29.7967C11.095 29.7859 11.1265 29.776 11.1599 29.7652C11.3262 29.7112 11.508 29.6481 11.7051 29.5758C11.7316 29.567 11.7583 29.5562 11.7846 29.5463C12.5743 29.2495 13.3378 28.8877 14.0674 28.4645C16.8165 26.8647 18.688 24.5487 19.4801 21.7667C20.2198 19.1711 20.0605 16.3057 19.011 13.2217Z" fill="url(#paint4_linear_453_2826)"/>
<defs>
<linearGradient id="paint0_linear_453_2826" x1="10.6136" y1="26.0815" x2="10.6136" y2="8.04248" gradientUnits="userSpaceOnUse">
<stop stop-color="#1E7F9D"/>
<stop offset="1" stop-color="#25A6EF"/>
</linearGradient>
<linearGradient id="paint1_linear_453_2826" x1="6.25786" y1="15.682" x2="6.25786" y2="15.2634" gradientUnits="userSpaceOnUse">
<stop stop-color="#1E7F9D"/>
<stop offset="1" stop-color="#25A6EF"/>
</linearGradient>
<linearGradient id="paint2_linear_453_2826" x1="5.16346" y1="19.5214" x2="5.16346" y2="19.4172" gradientUnits="userSpaceOnUse">
<stop stop-color="#1E7F9D"/>
<stop offset="1" stop-color="#25A6EF"/>
</linearGradient>
<linearGradient id="paint3_linear_453_2826" x1="9.96833" y1="26.0812" x2="9.96833" y2="0" gradientUnits="userSpaceOnUse">
<stop stop-color="#1E7F9D"/>
<stop offset="1" stop-color="#25A6EF"/>
</linearGradient>
<linearGradient id="paint4_linear_453_2826" x1="9.96871" y1="31.9998" x2="9.96871" y2="13.2217" gradientUnits="userSpaceOnUse">
<stop stop-color="#1E7F9D"/>
<stop offset="1" stop-color="#25A6EF"/>
</linearGradient>
</defs>
</svg>
