<svg width="115" height="36" viewBox="0 0 115 36" fill="none" xmlns="http://www.w3.org/2000/svg">
<path d="M24.945 11.57C24.945 10.516 24.8003 9.741 24.511 9.245C24.2217 8.72833 23.643 8.47 22.775 8.47H22.465V7.54H36.136C37.8927 7.54 38.771 8.36667 38.771 10.02V12.655H37.841C37.841 11.3737 37.5103 10.4333 36.849 9.834C36.2083 9.23467 35.2473 8.935 33.966 8.935H28.975V16.685H37.035V18.08H28.975V26.605H34.276C35.454 26.605 36.4357 26.3467 37.221 25.83C38.0063 25.2927 38.6573 24.373 39.174 23.071L40.011 23.381L39.112 25.83C38.8433 26.574 38.523 27.1217 38.151 27.473C37.779 27.8243 37.2003 28 36.415 28H24.945V11.57ZM43.0679 17.46C43.0679 16.406 42.9232 15.631 42.6339 15.135C42.3652 14.6183 41.7969 14.36 40.9289 14.36H40.6189V13.43H43.6879C44.3906 13.43 44.9382 13.523 45.3309 13.709C45.7442 13.8743 46.0646 14.1637 46.2919 14.577C47.3459 13.6057 48.8546 13.12 50.8179 13.12C52.7812 13.12 54.2486 13.585 55.2199 14.515C56.2119 15.4243 56.7079 16.8607 56.7079 18.824V28H52.6779V18.793C52.6779 17.367 52.4092 16.3233 51.8719 15.662C51.3552 15.0007 50.6422 14.67 49.7329 14.67C49.0922 14.67 48.5239 14.763 48.0279 14.949C47.5526 15.1143 47.1702 15.3417 46.8809 15.631L46.9739 16.065C47.0566 16.313 47.0979 16.716 47.0979 17.274V28H43.0679V17.46ZM60.594 16.995C60.036 15.8377 59.5607 15.0317 59.168 14.577C58.7754 14.1017 58.331 13.8433 57.835 13.802V13.182L58.982 13.12C60.3667 13.12 61.524 13.3887 62.454 13.926C63.4047 14.4633 64.2314 15.4863 64.934 16.995L67.662 22.947L71.878 13.43H73.552L66.949 28.31H65.833L60.594 16.995ZM78.171 11.756C77.427 11.756 76.8484 11.5287 76.435 11.074C76.0424 10.6193 75.846 10.0613 75.846 9.4C75.846 8.86267 76.001 8.439 76.311 8.129C76.6417 7.819 77.055 7.664 77.551 7.664C78.295 7.664 78.8634 7.89133 79.256 8.346C79.6694 8.80067 79.876 9.35867 79.876 10.02C79.876 10.5573 79.7107 10.981 79.38 11.291C79.07 11.601 78.667 11.756 78.171 11.756ZM76.156 17.46C76.156 16.406 76.0114 15.631 75.722 15.135C75.4327 14.6183 74.854 14.36 73.986 14.36H73.676V13.43H77.396C78.14 13.43 78.7084 13.554 79.101 13.802C79.4937 14.05 79.7727 14.4633 79.938 15.042C80.1034 15.6 80.186 16.406 80.186 17.46V28H76.156V17.46ZM90.5277 28.31C89.019 28.31 87.6963 27.9793 86.5597 27.318C85.4437 26.636 84.586 25.7267 83.9867 24.59C83.3873 23.4327 83.0877 22.141 83.0877 20.715C83.0877 19.289 83.3873 18.0077 83.9867 16.871C84.586 15.7137 85.4437 14.8043 86.5597 14.143C87.6963 13.461 89.019 13.12 90.5277 13.12C92.0363 13.12 93.3487 13.461 94.4647 14.143C95.6013 14.8043 96.4693 15.7137 97.0687 16.871C97.668 18.0077 97.9677 19.289 97.9677 20.715C97.9677 22.141 97.668 23.4327 97.0687 24.59C96.4693 25.7267 95.6013 26.636 94.4647 27.318C93.3487 27.9793 92.0363 28.31 90.5277 28.31ZM90.5277 26.915C91.5817 26.915 92.3877 26.3467 92.9457 25.21C93.5037 24.0733 93.7827 22.575 93.7827 20.715C93.7827 18.855 93.5037 17.3567 92.9457 16.22C92.3877 15.0833 91.5817 14.515 90.5277 14.515C89.4737 14.515 88.6677 15.0833 88.1097 16.22C87.5517 17.3567 87.2727 18.855 87.2727 20.715C87.2727 22.575 87.5517 24.0733 88.1097 25.21C88.6677 26.3467 89.4737 26.915 90.5277 26.915Z" fill="white"/>
<path d="M25.014 35C24.87 35 24.76 34.978 24.684 34.934C24.608 34.886 24.554 34.808 24.522 34.7C24.49 34.588 24.474 34.428 24.474 34.22V31.04H25.254V34.22C25.254 34.424 25.282 34.576 25.338 34.676C25.394 34.772 25.506 34.82 25.674 34.82H25.734V35H25.014ZM26.3923 31.82C26.3923 31.616 26.3643 31.466 26.3083 31.37C26.2523 31.27 26.1403 31.22 25.9723 31.22H25.9123V31.04H26.6323C26.7763 31.04 26.8863 31.064 26.9623 31.112C27.0383 31.16 27.0923 31.24 27.1243 31.352C27.1563 31.46 27.1723 31.616 27.1723 31.82V34.73H29.2423V35H26.3923V31.82ZM29.7145 31.82C29.7145 31.616 29.6865 31.466 29.6305 31.37C29.5745 31.27 29.4625 31.22 29.2945 31.22H29.2345V31.04H29.9545C30.0985 31.04 30.2085 31.064 30.2845 31.112C30.3605 31.16 30.4145 31.24 30.4465 31.352C30.4785 31.46 30.4945 31.616 30.4945 31.82V34.73H32.5645V35H29.7145V31.82ZM34.4044 35.06C33.3244 35.06 32.7844 34.464 32.7844 33.272V31.82C32.7844 31.616 32.7564 31.466 32.7004 31.37C32.6444 31.27 32.5324 31.22 32.3644 31.22V31.04H33.0244C33.1684 31.04 33.2784 31.064 33.3544 31.112C33.4304 31.16 33.4844 31.24 33.5164 31.352C33.5484 31.46 33.5644 31.616 33.5644 31.82L33.5704 33.452C33.5744 33.876 33.6564 34.206 33.8164 34.442C33.9804 34.674 34.2164 34.79 34.5244 34.79C34.9324 34.79 35.2284 34.67 35.4124 34.43C35.6004 34.186 35.6944 33.8 35.6944 33.272V31.04H35.9944V33.272C35.9944 33.86 35.8704 34.306 35.6224 34.61C35.3744 34.91 34.9684 35.06 34.4044 35.06ZM41.4804 35.27C41.0484 35.27 40.7364 35.17 40.5444 34.97C40.3564 34.766 40.2624 34.436 40.2624 33.98V31.856L38.9484 35H38.7504L37.1424 31.736V35H36.8424V31.04H37.5744L39.0264 33.986L40.2564 31.04H41.0424V33.98C41.0424 34.356 41.0744 34.632 41.1384 34.808C41.2024 34.984 41.3164 35.088 41.4804 35.12V35.27ZM42.5745 35C42.4305 35 42.3205 34.978 42.2445 34.934C42.1685 34.886 42.1145 34.808 42.0825 34.7C42.0505 34.588 42.0345 34.428 42.0345 34.22V31.04H42.8145V34.22C42.8145 34.424 42.8425 34.576 42.8985 34.676C42.9545 34.772 43.0665 34.82 43.2345 34.82H43.2945V35H42.5745ZM44.2708 32.03V35H43.9708V31.76C43.9708 31.592 43.9288 31.46 43.8448 31.364C43.7648 31.268 43.6268 31.22 43.4308 31.22H43.4008V31.04H43.8208C44.0448 31.04 44.2268 31.07 44.3668 31.13C44.5108 31.186 44.6308 31.276 44.7268 31.4L46.7908 33.8V31.04H47.0908V35.018H46.8148L44.2708 32.03ZM51.3051 35.024C51.0531 35.024 50.8251 34.972 50.6211 34.868C50.4171 34.76 50.2511 34.552 50.1231 34.244L49.9851 33.908H48.3891L47.8971 35H47.5851L49.3551 31.04H49.6251L50.9691 34.244C51.1211 34.616 51.3291 34.816 51.5931 34.844V34.994C51.5211 35.014 51.4251 35.024 51.3051 35.024ZM48.5151 33.638H49.8711L49.2111 32.072L48.5151 33.638ZM52.4682 31.31H52.0422C51.8182 31.31 51.6462 31.366 51.5262 31.478C51.4102 31.59 51.3522 31.774 51.3522 32.03H51.1722V31.52C51.1722 31.2 51.3422 31.04 51.6822 31.04H54.5022V31.31H53.2482V35H52.4682V31.31ZM55.5413 35C55.3973 35 55.2873 34.978 55.2113 34.934C55.1353 34.886 55.0813 34.808 55.0493 34.7C55.0173 34.588 55.0013 34.428 55.0013 34.22V31.04H55.7813V34.22C55.7813 34.424 55.8093 34.576 55.8653 34.676C55.9213 34.772 56.0333 34.82 56.2013 34.82H56.2613V35H55.5413ZM57.2376 32.03V35H56.9376V31.76C56.9376 31.592 56.8956 31.46 56.8116 31.364C56.7316 31.268 56.5936 31.22 56.3976 31.22H56.3676V31.04H56.7876C57.0116 31.04 57.1936 31.07 57.3336 31.13C57.4776 31.186 57.5976 31.276 57.6936 31.4L59.7576 33.8V31.04H60.0576V35.018H59.7816L57.2376 32.03ZM62.8739 35.12C62.4659 35.12 62.0959 35.026 61.7639 34.838C61.4359 34.646 61.1779 34.386 60.9899 34.058C60.8059 33.726 60.7139 33.36 60.7139 32.96C60.7139 32.576 60.7959 32.23 60.9599 31.922C61.1239 31.61 61.3559 31.366 61.6559 31.19C61.9599 31.01 62.3059 30.92 62.6939 30.92C63.0459 30.92 63.3459 30.966 63.5939 31.058C63.8419 31.15 64.0259 31.266 64.1459 31.406C64.2139 31.494 64.2559 31.606 64.2719 31.742C64.2919 31.878 64.3019 32.044 64.3019 32.24H64.1219C64.0459 31.876 63.9059 31.61 63.7019 31.442C63.5019 31.274 63.2259 31.19 62.8739 31.19C62.4259 31.19 62.0939 31.358 61.8779 31.694C61.6619 32.03 61.5539 32.452 61.5539 32.96C61.5539 33.644 61.6719 34.136 61.9079 34.436C62.1479 34.732 62.4699 34.88 62.8739 34.88C63.1859 34.88 63.4559 34.828 63.6839 34.724V33.656C63.6839 33.444 63.7639 33.27 63.9239 33.134C64.0839 32.994 64.3919 32.924 64.8479 32.924V33.074C64.5919 33.074 64.4639 33.264 64.4639 33.644V34.718C64.2359 34.858 63.9919 34.96 63.7319 35.024C63.4719 35.088 63.1859 35.12 62.8739 35.12ZM68.7802 35.12C68.3722 35.12 68.0022 35.026 67.6702 34.838C67.3422 34.646 67.0842 34.386 66.8962 34.058C66.7122 33.726 66.6202 33.36 66.6202 32.96C66.6202 32.576 66.7022 32.23 66.8662 31.922C67.0302 31.61 67.2622 31.366 67.5622 31.19C67.8662 31.01 68.2122 30.92 68.6002 30.92C68.9522 30.92 69.2522 30.966 69.5002 31.058C69.7482 31.15 69.9322 31.266 70.0522 31.406C70.1202 31.494 70.1622 31.606 70.1782 31.742C70.1982 31.878 70.2082 32.044 70.2082 32.24H70.0282C69.9522 31.876 69.8122 31.61 69.6082 31.442C69.4082 31.274 69.1322 31.19 68.7802 31.19C68.3322 31.19 68.0002 31.358 67.7842 31.694C67.5682 32.03 67.4602 32.452 67.4602 32.96C67.4602 33.644 67.5782 34.136 67.8142 34.436C68.0542 34.732 68.3762 34.88 68.7802 34.88C69.0922 34.88 69.3622 34.828 69.5902 34.724V33.656C69.5902 33.444 69.6702 33.27 69.8302 33.134C69.9902 32.994 70.2982 32.924 70.7542 32.924V33.074C70.4982 33.074 70.3702 33.264 70.3702 33.644V34.718C70.1422 34.858 69.8982 34.96 69.6382 35.024C69.3782 35.088 69.0922 35.12 68.7802 35.12ZM74.1764 35.06C73.9564 35.06 73.7564 34.996 73.5764 34.868C73.3964 34.736 73.2084 34.51 73.0124 34.19L72.4124 33.188H72.1724V35H71.3864V31.82C71.3864 31.616 71.3584 31.466 71.3024 31.37C71.2464 31.27 71.1344 31.22 70.9664 31.22H70.9064V31.04H72.5624C72.9784 31.04 73.3524 31.116 73.6844 31.268C74.0164 31.42 74.1824 31.712 74.1824 32.144C74.1824 32.644 73.8584 32.976 73.2104 33.14L73.8404 34.19C74.0764 34.586 74.3244 34.806 74.5844 34.85V35C74.5524 35.016 74.4944 35.03 74.4104 35.042C74.3264 35.054 74.2484 35.06 74.1764 35.06ZM72.5324 32.948C72.7564 32.948 72.9464 32.882 73.1024 32.75C73.2624 32.614 73.3424 32.402 73.3424 32.114C73.3424 31.83 73.2644 31.62 73.1084 31.484C72.9524 31.348 72.7704 31.28 72.5624 31.28C72.4464 31.28 72.3564 31.288 72.2924 31.304L72.1724 31.322V32.948H72.5324ZM75.0837 31.82C75.0837 31.616 75.0557 31.466 74.9997 31.37C74.9437 31.27 74.8317 31.22 74.6637 31.22H74.6037V31.04H77.2497C77.5897 31.04 77.7597 31.2 77.7597 31.52V32.03H77.5797C77.5797 31.782 77.5157 31.6 77.3877 31.484C77.2637 31.368 77.0777 31.31 76.8297 31.31H75.8637V32.81H77.4237V33.08H75.8637V34.73H76.8897C77.1177 34.73 77.3077 34.68 77.4597 34.58C77.6117 34.476 77.7377 34.298 77.8377 34.046L77.9997 34.106L77.8257 34.58C77.7737 34.724 77.7117 34.83 77.6397 34.898C77.5677 34.966 77.4557 35 77.3037 35H75.0837V31.82ZM78.6813 31.82C78.6813 31.616 78.6533 31.466 78.5973 31.37C78.5413 31.27 78.4293 31.22 78.2613 31.22H78.2013V31.04H80.8473C81.1873 31.04 81.3573 31.2 81.3573 31.52V32.03H81.1773C81.1773 31.782 81.1133 31.6 80.9853 31.484C80.8613 31.368 80.6753 31.31 80.4273 31.31H79.4613V32.81H81.0213V33.08H79.4613V34.73H80.4873C80.7153 34.73 80.9053 34.68 81.0573 34.58C81.2093 34.476 81.3353 34.298 81.4353 34.046L81.5973 34.106L81.4233 34.58C81.3713 34.724 81.3093 34.83 81.2373 34.898C81.1653 34.966 81.0533 35 80.9013 35H78.6813V31.82ZM82.597 32.03V35H82.297V31.76C82.297 31.592 82.255 31.46 82.171 31.364C82.091 31.268 81.953 31.22 81.757 31.22H81.727V31.04H82.147C82.371 31.04 82.553 31.07 82.693 31.13C82.837 31.186 82.957 31.276 83.053 31.4L85.117 33.8V31.04H85.417V35.018H85.141L82.597 32.03ZM87.9333 31.82C87.9333 31.616 87.9053 31.466 87.8493 31.37C87.7933 31.27 87.6813 31.22 87.5133 31.22H87.4533V31.04H89.9673C90.3073 31.04 90.4773 31.2 90.4773 31.52V32.03H90.2973C90.2973 31.778 90.2333 31.596 90.1053 31.484C89.9813 31.368 89.7953 31.31 89.5473 31.31H88.7133V32.84H90.0333V33.11H88.7133V35H87.9333V31.82ZM92.7697 35.06C91.6897 35.06 91.1497 34.464 91.1497 33.272V31.82C91.1497 31.616 91.1217 31.466 91.0657 31.37C91.0097 31.27 90.8977 31.22 90.7297 31.22V31.04H91.3897C91.5337 31.04 91.6437 31.064 91.7197 31.112C91.7957 31.16 91.8497 31.24 91.8817 31.352C91.9137 31.46 91.9297 31.616 91.9297 31.82L91.9357 33.452C91.9397 33.876 92.0217 34.206 92.1817 34.442C92.3457 34.674 92.5817 34.79 92.8897 34.79C93.2977 34.79 93.5937 34.67 93.7777 34.43C93.9657 34.186 94.0597 33.8 94.0597 33.272V31.04H94.3597V33.272C94.3597 33.86 94.2357 34.306 93.9877 34.61C93.7397 34.91 93.3337 35.06 92.7697 35.06ZM96.1557 31.31H95.7297C95.5057 31.31 95.3337 31.366 95.2137 31.478C95.0977 31.59 95.0397 31.774 95.0397 32.03H94.8597V31.52C94.8597 31.2 95.0297 31.04 95.3697 31.04H98.1897V31.31H96.9357V35H96.1557V31.31ZM100.387 35.06C99.3068 35.06 98.7668 34.464 98.7668 33.272V31.82C98.7668 31.616 98.7388 31.466 98.6828 31.37C98.6268 31.27 98.5148 31.22 98.3468 31.22V31.04H99.0068C99.1508 31.04 99.2608 31.064 99.3368 31.112C99.4128 31.16 99.4668 31.24 99.4988 31.352C99.5308 31.46 99.5468 31.616 99.5468 31.82L99.5528 33.452C99.5568 33.876 99.6388 34.206 99.7988 34.442C99.9628 34.674 100.199 34.79 100.507 34.79C100.915 34.79 101.211 34.67 101.395 34.43C101.583 34.186 101.677 33.8 101.677 33.272V31.04H101.977V33.272C101.977 33.86 101.853 34.306 101.605 34.61C101.357 34.91 100.951 35.06 100.387 35.06ZM105.741 35.06C105.521 35.06 105.321 34.996 105.141 34.868C104.961 34.736 104.773 34.51 104.577 34.19L103.977 33.188H103.737V35H102.951V31.82C102.951 31.616 102.923 31.466 102.867 31.37C102.811 31.27 102.699 31.22 102.531 31.22H102.471V31.04H104.127C104.543 31.04 104.917 31.116 105.249 31.268C105.581 31.42 105.747 31.712 105.747 32.144C105.747 32.644 105.423 32.976 104.775 33.14L105.405 34.19C105.641 34.586 105.889 34.806 106.149 34.85V35C106.117 35.016 106.059 35.03 105.975 35.042C105.891 35.054 105.813 35.06 105.741 35.06ZM104.097 32.948C104.321 32.948 104.511 32.882 104.667 32.75C104.827 32.614 104.907 32.402 104.907 32.114C104.907 31.83 104.829 31.62 104.673 31.484C104.517 31.348 104.335 31.28 104.127 31.28C104.011 31.28 103.921 31.288 103.857 31.304L103.737 31.322V32.948H104.097ZM106.648 31.82C106.648 31.616 106.62 31.466 106.564 31.37C106.508 31.27 106.396 31.22 106.228 31.22H106.168V31.04H108.814C109.154 31.04 109.324 31.2 109.324 31.52V32.03H109.144C109.144 31.782 109.08 31.6 108.952 31.484C108.828 31.368 108.642 31.31 108.394 31.31H107.428V32.81H108.988V33.08H107.428V34.73H108.454C108.682 34.73 108.872 34.68 109.024 34.58C109.176 34.476 109.302 34.298 109.402 34.046L109.564 34.106L109.39 34.58C109.338 34.724 109.276 34.83 109.204 34.898C109.132 34.966 109.02 35 108.868 35H106.648V31.82ZM111.314 35.102C111.09 35.102 110.874 35.072 110.666 35.012C110.458 34.956 110.288 34.874 110.156 34.766C110.024 34.654 109.958 34.526 109.958 34.382V33.68H110.126C110.186 34.088 110.312 34.382 110.504 34.562C110.696 34.742 110.964 34.832 111.308 34.832C111.54 34.832 111.724 34.782 111.86 34.682C111.996 34.582 112.064 34.438 112.064 34.25C112.064 34.09 112.014 33.954 111.914 33.842C111.814 33.73 111.658 33.608 111.446 33.476L110.708 33.032C110.44 32.876 110.248 32.714 110.132 32.546C110.02 32.378 109.964 32.182 109.964 31.958C109.964 31.642 110.084 31.392 110.324 31.208C110.568 31.024 110.896 30.932 111.308 30.932C111.532 30.932 111.748 30.962 111.956 31.022C112.164 31.078 112.334 31.162 112.466 31.274C112.598 31.382 112.664 31.508 112.664 31.652V32.354H112.496C112.428 31.946 112.302 31.652 112.118 31.472C111.934 31.292 111.686 31.202 111.374 31.202C111.158 31.202 110.986 31.254 110.858 31.358C110.734 31.462 110.672 31.604 110.672 31.784C110.672 31.94 110.72 32.07 110.816 32.174C110.916 32.274 111.076 32.388 111.296 32.516L112.034 32.954C112.314 33.118 112.514 33.278 112.634 33.434C112.758 33.586 112.82 33.77 112.82 33.986C112.82 34.334 112.688 34.608 112.424 34.808C112.164 35.004 111.794 35.102 111.314 35.102Z" fill="white"/>
<path d="M16.2494 23.7073C15.8785 25.8545 14.4939 27.5102 12.1345 28.6304L11.185 29.0815L11.0187 28.0448C10.9218 27.4575 10.8718 26.8634 10.8692 26.2682C10.8692 26.1765 10.8701 26.0864 10.8731 25.9969C10.8751 25.9114 10.8792 25.8279 10.8839 25.7444C10.8849 25.7345 10.8849 25.7237 10.8859 25.7138C10.8908 25.6333 10.8967 25.5537 10.9036 25.4761C10.9105 25.3906 10.9193 25.3071 10.9292 25.2245C10.939 25.142 10.9499 25.0614 10.9626 24.9808C10.9745 24.9002 10.9871 24.8206 11.002 24.743C11.0148 24.6693 11.0296 24.5964 11.0443 24.5259C11.0945 24.291 11.1536 24.067 11.2217 23.8508C11.2433 23.78 11.267 23.7103 11.2906 23.6425C11.3112 23.5835 11.3318 23.5264 11.3535 23.4695C11.3633 23.442 11.3742 23.4145 11.385 23.388C11.4037 23.3378 11.4234 23.2897 11.444 23.2405C11.4706 23.1757 11.4991 23.1108 11.5277 23.0479C11.5877 22.9143 11.6517 22.7853 11.7174 22.6598C11.7321 22.6313 11.7479 22.6028 11.7636 22.5743C11.7843 22.5349 11.8059 22.4948 11.8285 22.4563C11.8619 22.3964 11.8964 22.3384 11.9308 22.2814C11.9466 22.2549 11.9623 22.2293 11.9781 22.2038C12.0017 22.1655 12.0253 22.1281 12.0499 22.0907C12.1188 21.9817 12.1906 21.8766 12.2644 21.7731C12.2889 21.7377 12.3134 21.7033 12.3392 21.6689C12.3776 21.6168 12.416 21.5658 12.4543 21.5146C12.5321 21.4134 12.6118 21.3142 12.6924 21.2169C12.7328 21.168 12.7741 21.1196 12.8144 21.0714C12.8951 20.9781 12.9768 20.8867 13.0585 20.7973C13.1411 20.7079 13.2237 20.6214 13.3064 20.5349C13.3497 20.4907 13.393 20.4465 13.4373 20.4023C13.4806 20.358 13.5249 20.3148 13.5681 20.2716C13.7778 20.8754 13.9117 21.5029 13.9667 22.1396C13.9293 22.1828 13.8928 22.2261 13.8574 22.2703C13.8309 22.3017 13.8053 22.3342 13.7797 22.3666C13.7512 22.402 13.7227 22.4374 13.6951 22.4737C13.6882 22.4835 13.6803 22.492 13.6734 22.5022C13.6302 22.5592 13.5878 22.6172 13.5455 22.6751C13.4569 22.799 13.3727 22.9264 13.2926 23.0574C13.212 23.1881 13.1362 23.3237 13.0663 23.4632C13.0299 23.533 12.9965 23.6037 12.964 23.6755C12.9463 23.7122 12.9306 23.7482 12.9158 23.7845C12.8991 23.8209 12.8843 23.8583 12.8695 23.8956C12.8401 23.9703 12.8115 24.0459 12.7839 24.1236C12.7692 24.1619 12.7553 24.2012 12.7435 24.2405C12.7307 24.2798 12.7191 24.3191 12.7062 24.3594C12.6924 24.3997 12.6806 24.44 12.6707 24.4816C12.6599 24.5218 12.6491 24.5631 12.6383 24.6044C12.6156 24.687 12.5959 24.7724 12.5792 24.8589C12.5609 24.9444 12.5438 25.0328 12.5303 25.1223C12.5214 25.1665 12.5145 25.2117 12.5096 25.2579C12.5035 25.3031 12.4978 25.3495 12.4919 25.3955C12.485 25.4416 12.4801 25.4888 12.4771 25.5359C12.471 25.5841 12.4673 25.6322 12.4634 25.6804C12.439 26.0047 12.4351 26.3303 12.4516 26.6552V26.6562C12.4968 26.6256 12.5411 26.5962 12.5854 26.5658C12.6286 26.5352 12.672 26.5038 12.7143 26.4734C12.8068 26.4066 12.8963 26.3378 12.9829 26.2671C13.0262 26.2317 13.0685 26.1963 13.1098 26.1609C13.1522 26.1245 13.1935 26.0882 13.2348 26.0499C13.2742 26.0145 13.3125 25.9791 13.3499 25.9418C13.3696 25.9234 13.3883 25.9044 13.407 25.8857C13.4267 25.8674 13.4444 25.8474 13.4631 25.8288C13.531 25.759 13.5969 25.6883 13.6598 25.6156C13.6648 25.6094 13.6707 25.6028 13.6756 25.5969C13.7062 25.5615 13.7356 25.5271 13.7641 25.4907C13.8005 25.4455 13.8359 25.4003 13.8714 25.3542C13.898 25.3188 13.9245 25.2824 13.9502 25.2461C13.9885 25.1911 14.0259 25.1361 14.0623 25.079C14.0839 25.0466 14.1046 25.0131 14.1243 24.9797C14.1509 24.9375 14.1764 24.8942 14.2 24.8501C14.249 24.7636 14.2955 24.6752 14.3378 24.5847C14.3575 24.5425 14.3772 24.5003 14.3958 24.458C14.3998 24.4481 14.4037 24.4383 14.4086 24.4285C14.4225 24.396 14.4352 24.3637 14.449 24.3312C14.4529 24.3194 14.4579 24.3076 14.4627 24.2949C14.4726 24.2704 14.4815 24.246 14.4903 24.2202C14.4992 24.1966 14.508 24.173 14.5159 24.1494C14.5316 24.1042 14.5465 24.059 14.5612 24.0128C14.5739 23.9706 14.5868 23.9273 14.5986 23.8851C14.6143 23.831 14.628 23.777 14.6409 23.722C14.6507 23.6827 14.6586 23.6443 14.6674 23.605C14.6792 23.55 14.6891 23.4951 14.6989 23.4401C14.7659 23.0429 14.7893 22.6396 14.7688 22.2373C14.7678 22.2049 14.7658 22.1715 14.7627 22.138C14.7597 22.0713 14.7548 22.0054 14.7479 21.9396C14.746 21.913 14.744 21.8865 14.74 21.8601C14.7371 21.8209 14.7322 21.7825 14.7273 21.7432C14.7211 21.6911 14.7145 21.6381 14.7066 21.586C14.6978 21.5191 14.687 21.4524 14.676 21.3865C14.5719 20.7997 14.4128 20.2239 14.2007 19.6669C14.18 19.6109 14.1584 19.5558 14.1368 19.5008C14.119 19.4546 14.1001 19.4084 14.0817 19.3622C14.067 19.3229 14.0502 19.2847 14.0335 19.2453C14.0138 19.1964 13.9922 19.146 13.9705 19.0969C13.9587 19.0694 13.9469 19.0409 13.9338 19.0134C13.7676 18.6341 13.5796 18.2548 13.3739 17.8794C13.3159 17.7733 13.2568 17.6672 13.1966 17.561C13.0411 17.2918 12.8779 17.0246 12.7072 16.7592C12.6747 16.7072 12.6403 16.6541 12.6048 16.602C12.5714 16.5489 12.536 16.4958 12.5006 16.4438C12.291 16.1303 12.0716 15.8207 11.8452 15.5162C11.797 15.4513 11.7489 15.3875 11.6996 15.3236C11.6524 15.2607 11.6042 15.1978 11.555 15.1359C11.2657 14.7625 10.9646 14.3979 10.6586 14.0471C10.6183 14 10.577 13.9527 10.5356 13.9066C10.4126 13.7671 10.2887 13.6295 10.1637 13.4939C10.1233 13.4487 10.0811 13.4035 10.0387 13.3595L9.96888 13.2838H9.9679C9.93731 13.3153 9.90789 13.3477 9.87737 13.3802C9.82323 13.4381 9.76909 13.4962 9.71599 13.5551C9.66186 13.613 9.6087 13.672 9.55659 13.7309C9.49952 13.7938 9.44345 13.8577 9.38736 13.9216C9.3372 13.9776 9.28697 14.0346 9.23876 14.0916C9.08033 14.2733 8.92489 14.4591 8.77038 14.6475C8.72144 14.7074 8.67202 14.7674 8.62357 14.8273C8.61928 14.8335 8.61466 14.8394 8.60975 14.845C8.56081 14.9061 8.51238 14.9659 8.46516 15.0278C8.36478 15.1555 8.2644 15.2852 8.16701 15.4149C8.11679 15.4798 8.0686 15.5456 8.02021 15.6115C7.97128 15.6773 7.92276 15.7432 7.87652 15.809C7.8293 15.8729 7.78305 15.9368 7.73877 16.0016C7.73583 16.0055 7.73264 16.0104 7.72897 16.0153C7.63648 16.1461 7.54596 16.2777 7.45738 16.4104C7.36587 16.545 7.27733 16.6803 7.19174 16.8162C7.15137 16.8781 7.11221 16.94 7.07367 17.0029C7.0648 17.0186 7.05496 17.0343 7.04512 17.0491C7.00841 17.1081 6.9723 17.167 6.93786 17.2263C6.89553 17.2951 6.8542 17.3638 6.81486 17.4326C6.78428 17.4837 6.75487 17.5358 6.72532 17.5879C6.69682 17.639 6.66726 17.6901 6.63778 17.7422V17.7431C6.60921 17.7943 6.58071 17.8454 6.55215 17.8975V17.8984C6.52364 17.9495 6.49604 18.0016 6.46852 18.0537C6.46782 18.0563 6.46647 18.0586 6.4646 18.0606C6.4279 18.1284 6.39272 18.1962 6.35926 18.264C6.28745 18.4035 6.21891 18.543 6.15362 18.6826C6.12022 18.7523 6.08773 18.8221 6.05721 18.8918C5.59476 18.4615 5.19625 18.0871 4.87939 17.7215C4.9109 17.6567 4.94339 17.5928 4.97587 17.5279C5.00849 17.4641 5.04196 17.3993 5.07625 17.3334C6.08677 15.4172 7.62665 13.3802 9.41053 11.5976L9.96718 11.0425L10.5238 11.5976C12.3077 13.3802 13.8477 15.4172 14.8582 17.3334C14.9103 17.4317 14.9605 17.5299 15.0087 17.6272C15.0332 17.6753 15.0576 17.7244 15.0815 17.7726C15.106 17.8215 15.1297 17.8699 15.1523 17.918L15.2202 18.0625C15.2881 18.207 15.3531 18.3504 15.4141 18.4929C15.6461 19.026 15.8414 19.5743 15.9985 20.134C16.0133 20.186 16.0271 20.2381 16.0409 20.2902C16.0546 20.3422 16.0674 20.3933 16.0802 20.4455C16.093 20.4965 16.1047 20.5486 16.1169 20.5997C16.1291 20.6508 16.1395 20.699 16.1504 20.7481C16.1907 20.9397 16.2252 21.1284 16.2537 21.3162C16.2616 21.3683 16.2684 21.4194 16.2753 21.4714C16.2783 21.4921 16.2815 21.5137 16.2832 21.5353C16.2891 21.5756 16.294 21.6158 16.298 21.6562C16.3039 21.7054 16.3088 21.7545 16.3127 21.8036C16.3752 22.4382 16.3539 23.0783 16.2494 23.7073Z" fill="url(#paint0_linear_443_2882)"/>
<path d="M6.3607 18.2634C6.28987 18.403 6.2213 18.5425 6.15503 18.682C6.21999 18.5425 6.28856 18.403 6.3607 18.2634Z" fill="url(#paint1_linear_443_2882)"/>
<path d="M5.16432 22.4182C5.16334 22.4526 5.16333 22.487 5.16333 22.5214C5.16235 22.487 5.16235 22.4526 5.16333 22.4172L5.16432 22.4182Z" fill="url(#paint2_linear_443_2882)"/>
<path d="M2.12362 17.7485V17.7476C2.18081 17.8759 2.24284 18.0008 2.30835 18.1228C2.31166 18.1289 2.31482 18.135 2.31812 18.1411C2.35537 18.2097 2.39347 18.2775 2.43434 18.3432C2.45012 18.3683 2.46494 18.3933 2.48078 18.4183L2.48416 18.4237C2.51743 18.4775 2.55167 18.5302 2.5869 18.582C2.62134 18.6331 2.65579 18.6842 2.69219 18.7344C2.6931 18.736 2.69461 18.7378 2.69565 18.7394C2.70177 18.7484 2.70825 18.7578 2.71474 18.7665C2.74477 18.808 2.77548 18.8488 2.80649 18.8896C2.83873 18.9328 2.87212 18.9759 2.90589 19.0185C2.91292 19.0275 2.91979 19.0364 2.92689 19.0453C2.99417 19.1295 3.06342 19.2125 3.13327 19.2935C3.14276 19.3045 3.15211 19.3157 3.16165 19.3266C3.20227 19.3738 3.24337 19.4205 3.28551 19.4661L3.2868 19.4675C3.32808 19.5137 3.37037 19.5588 3.41361 19.605C3.4234 19.6157 3.4343 19.6275 3.44507 19.6383C3.47755 19.6738 3.51098 19.7082 3.54542 19.7426C3.55213 19.7506 3.55936 19.7581 3.56708 19.7651C3.58677 19.7867 3.60739 19.8074 3.62824 19.828C3.73058 19.9322 3.83293 20.0334 3.93723 20.1335C4.12618 20.3162 4.31702 20.4939 4.50609 20.67C4.7619 20.9088 5.01576 21.1446 5.26178 21.3863L5.28239 21.407C5.33359 21.4571 5.38279 21.5062 5.43203 21.5563C5.45038 21.5747 5.46841 21.5937 5.48609 21.6113C5.5245 21.6506 5.56286 21.6899 5.59926 21.7292C5.6288 21.7598 5.6573 21.7891 5.68489 21.8196C5.72911 21.8668 5.77242 21.913 5.81475 21.9611C5.85146 22.0014 5.88656 22.0417 5.92198 22.083C5.9574 22.1223 5.99183 22.1636 6.02529 22.2038C6.05973 22.2432 6.09222 22.2832 6.12568 22.3247C6.14538 22.3491 6.165 22.3736 6.1847 22.3994C6.21528 22.4367 6.24472 22.475 6.27329 22.5133C6.32149 22.5763 6.3687 22.6411 6.41396 22.706C6.42871 22.7256 6.44246 22.7463 6.45629 22.7659C6.47201 22.7885 6.48775 22.8121 6.50255 22.8347C6.52812 22.871 6.55148 22.9084 6.57534 22.9446C6.61076 22.9996 6.64421 23.0537 6.67767 23.1096C6.67767 23.1105 6.67865 23.1105 6.67865 23.1115C6.70422 23.1538 6.72882 23.1971 6.75347 23.2403C6.7613 23.2541 6.76916 23.2678 6.77707 23.2815C6.79183 23.3091 6.8066 23.3366 6.82136 23.3641C6.82821 23.3759 6.83416 23.3877 6.84003 23.3995C6.8645 23.4457 6.88821 23.4928 6.91085 23.54C6.91122 23.5404 6.91151 23.5409 6.91168 23.5414C6.91185 23.5419 6.9119 23.5424 6.91183 23.5429C6.9363 23.593 6.96004 23.6422 6.98274 23.6933C7.00537 23.7414 7.02598 23.7906 7.04666 23.8407C7.06929 23.8938 7.09094 23.9478 7.11162 24.0018C7.13229 24.0559 7.15192 24.1109 7.17064 24.1659C7.18049 24.1935 7.18937 24.2209 7.19818 24.2485C7.20698 24.2761 7.21592 24.3035 7.22479 24.332C7.23757 24.3732 7.25033 24.4146 7.26147 24.4568C7.27425 24.4981 7.28508 24.5403 7.2959 24.5826C7.29982 24.5963 7.30375 24.6111 7.30675 24.6248C7.31457 24.6524 7.32148 24.6808 7.32741 24.7094C7.33922 24.7565 7.35003 24.8056 7.35982 24.8547C7.3726 24.9147 7.38429 24.9747 7.3953 25.0366V25.0375C7.40509 25.0906 7.41396 25.1447 7.42087 25.1987C7.42479 25.2203 7.42773 25.2419 7.43073 25.2626C7.43856 25.3147 7.44451 25.3667 7.45038 25.4198C7.45825 25.4847 7.46514 25.5505 7.47105 25.6173V25.6183C7.47594 25.6772 7.47991 25.7382 7.48285 25.7991C7.48366 25.8027 7.484 25.8063 7.48383 25.8099C7.48579 25.8276 7.48578 25.8453 7.48676 25.8629C7.48976 25.9179 7.49173 25.975 7.49369 26.032C7.49565 26.1017 7.49662 26.1735 7.49662 26.2462C7.49662 26.3799 7.49367 26.5164 7.48676 26.656C7.20987 26.4747 6.94768 26.272 6.70258 26.0497C6.66025 26.0113 6.61992 25.973 6.57955 25.9336C6.56579 25.9208 6.55302 25.908 6.53926 25.8943C6.50286 25.857 6.46548 25.8196 6.43 25.7823C6.42609 25.7774 6.4212 25.7735 6.41722 25.7685C6.38969 25.7391 6.36217 25.7096 6.33556 25.6791C6.32951 25.6734 6.32392 25.6673 6.31886 25.6608C6.3051 25.646 6.29127 25.6302 6.27848 25.6156C6.27059 25.6067 6.26276 25.5978 6.25584 25.589C6.2293 25.5585 6.20373 25.5271 6.1781 25.4966C6.16629 25.4819 6.15547 25.4681 6.14366 25.4534C6.10922 25.4102 6.07576 25.3679 6.04432 25.3237C6.02071 25.2923 5.99808 25.2608 5.97643 25.2284C5.97085 25.2226 5.9662 25.2159 5.96266 25.2087C5.94492 25.1851 5.92821 25.1606 5.91341 25.137C5.84159 25.0299 5.77568 24.9208 5.7147 24.8088C5.71247 24.8067 5.71105 24.8039 5.71075 24.8009C5.70475 24.7915 5.69948 24.7816 5.69498 24.7714C5.6845 24.7539 5.675 24.7359 5.66649 24.7174C5.66368 24.7139 5.66159 24.7099 5.66037 24.7056C5.64751 24.6834 5.63601 24.6604 5.62593 24.6368C5.61412 24.6142 5.60328 24.5916 5.59349 24.568C5.58065 24.5436 5.56905 24.5179 5.55804 24.4924C5.556 24.489 5.55436 24.4853 5.55314 24.4816C5.53344 24.4393 5.51479 24.3941 5.49705 24.3498C5.49313 24.3401 5.48914 24.3302 5.48522 24.3204C5.46852 24.2781 5.45274 24.2369 5.438 24.1936C5.43188 24.1789 5.42718 24.1642 5.42229 24.1494C5.40357 24.0973 5.38682 24.0453 5.3711 23.9922C5.35244 23.9322 5.33568 23.8723 5.31996 23.8114C5.30712 23.7652 5.2955 23.719 5.28651 23.6718C5.28392 23.6649 5.28225 23.6576 5.28155 23.6502C5.27544 23.6286 5.27176 23.607 5.26778 23.5854C5.25696 23.5373 5.24807 23.4891 5.23926 23.4399C5.20667 23.2514 5.18501 23.0611 5.17433 22.87C5.17031 22.8314 5.16826 22.7927 5.1682 22.7539C5.16521 22.7166 5.16423 22.6783 5.16423 22.6399C5.16423 22.6006 5.16325 22.5613 5.16325 22.5211C5.16227 22.4867 5.16227 22.4523 5.16325 22.4169C4.79721 22.016 4.39084 21.6367 3.96871 21.2446C3.89098 21.1719 3.81227 21.0982 3.73254 21.0235C3.63832 21.5254 3.59057 22.0349 3.58989 22.5456C3.58989 22.6341 3.59186 22.7215 3.59479 22.808C3.60366 23.035 3.62239 23.258 3.65286 23.4771C3.65781 23.5155 3.66368 23.5538 3.66961 23.5921C3.67555 23.6304 3.68141 23.6688 3.68795 23.7071C4.05894 25.8542 5.44351 27.51 7.80288 28.6302L8.75241 29.0812L8.91869 28.0445C8.93147 27.9651 8.94316 27.8853 8.95411 27.8077C8.96298 27.7448 8.97184 27.6829 8.97857 27.622L8.99031 27.5304C8.99428 27.4998 8.99723 27.4693 9.00017 27.4387C9.00806 27.3709 9.01496 27.3031 9.02083 27.2363C9.02475 27.1874 9.0297 27.139 9.03362 27.0909C9.05038 26.8884 9.06023 26.6919 9.06513 26.5003C9.06709 26.4216 9.06805 26.344 9.06805 26.2674C9.06805 26.232 9.06805 26.1967 9.06707 26.1623C9.06707 26.1338 9.06706 26.1053 9.06608 26.0768C9.06315 25.9618 9.05926 25.8488 9.05234 25.7367C9.04347 25.5874 9.03166 25.441 9.01564 25.2975C9.00775 25.2238 8.99887 25.1509 8.98804 25.0784C8.97923 25.0145 8.97038 24.9516 8.96053 24.8887C8.95955 24.8799 8.95757 24.872 8.95653 24.8643C8.94968 24.825 8.94381 24.7857 8.93592 24.7474C8.92112 24.6638 8.90443 24.5824 8.887 24.5007C8.88008 24.4641 8.87218 24.429 8.86331 24.3936C8.8545 24.3563 8.84563 24.318 8.83676 24.2806C8.82691 24.2423 8.81707 24.204 8.80728 24.1666C8.79749 24.1292 8.78662 24.09 8.7758 24.0527C8.76099 23.9977 8.74429 23.9427 8.72759 23.8877C8.71481 23.8465 8.70197 23.8062 8.68918 23.7659C8.66753 23.6991 8.64487 23.6332 8.62126 23.5683C8.61441 23.5487 8.6075 23.53 8.59967 23.5114C8.57997 23.4583 8.56028 23.4052 8.5396 23.3532L8.50125 23.2588C8.48847 23.2274 8.4747 23.1969 8.46192 23.1665C8.43237 23.0977 8.40185 23.0299 8.37139 22.9621C8.35365 22.9257 8.33688 22.8903 8.31921 22.854C8.28577 22.7852 8.25133 22.7174 8.21589 22.6506C8.14008 22.5071 8.0607 22.3676 7.97776 22.232C7.94534 22.1799 7.91286 22.1278 7.8794 22.0767C7.87053 22.062 7.8607 22.0473 7.85085 22.0325C7.82026 21.9853 7.78886 21.9391 7.75736 21.8929C7.6758 21.7741 7.59223 21.6581 7.50659 21.5451C7.46328 21.4881 7.42003 21.4321 7.37574 21.3771C7.32754 21.316 7.27928 21.2572 7.2301 21.1982C7.20564 21.1677 7.17993 21.1382 7.15436 21.1088C7.11888 21.0675 7.08347 21.0263 7.04707 20.985C7.01166 20.9437 6.97526 20.9034 6.93886 20.8631C6.90736 20.8277 6.87487 20.7924 6.84239 20.758C6.82471 20.7383 6.80699 20.7197 6.78931 20.701C6.74601 20.6538 6.7017 20.6076 6.65742 20.5624L6.57179 20.474C6.53833 20.4396 6.50488 20.4052 6.47044 20.3718C6.44598 20.3462 6.42138 20.3217 6.39667 20.2981C6.35037 20.2519 6.30418 20.2065 6.25787 20.1605C6.25494 20.1576 6.25175 20.1557 6.24906 20.1527C6.20178 20.1065 6.15357 20.0603 6.10537 20.0141C5.98136 19.8952 5.85838 19.7793 5.73641 19.6663C5.68325 19.6162 5.63112 19.567 5.57895 19.5189C5.53864 19.4815 5.49943 19.4442 5.45894 19.4078C5.41954 19.3705 5.3802 19.3341 5.34081 19.2978C5.30142 19.2616 5.26313 19.2251 5.22459 19.1879C4.97472 18.9521 4.73756 18.7231 4.52115 18.4921C4.41 18.3733 4.30368 18.2534 4.20428 18.1325C4.17479 18.0971 4.14525 18.0618 4.11865 18.0264C4.10091 18.0058 4.0852 17.9851 4.06972 17.9635C4.04415 17.9321 4.02046 17.9006 3.99789 17.8682C3.92699 17.7719 3.86008 17.6736 3.79909 17.5744C3.79224 17.5635 3.78534 17.5528 3.77941 17.542C3.75286 17.4997 3.72826 17.4574 3.70465 17.4132C3.68893 17.3867 3.67408 17.3592 3.66038 17.3316C3.64564 17.3042 3.63185 17.2767 3.61809 17.2491C3.60433 17.2216 3.59148 17.1941 3.57869 17.1666C3.57576 17.1605 3.57258 17.1538 3.56982 17.1469C3.55997 17.1253 3.55019 17.1027 3.54034 17.0801C3.52756 17.0516 3.5159 17.0231 3.50495 16.9936C3.49412 16.9692 3.48524 16.9445 3.47637 16.9189C3.47333 16.9119 3.47072 16.9047 3.46854 16.8973C3.45869 16.8708 3.44883 16.8443 3.44094 16.8179C3.42125 16.7589 3.4026 16.699 3.38682 16.6371C3.37997 16.6145 3.37403 16.5909 3.36914 16.5674C3.36225 16.5418 3.35633 16.5162 3.3514 16.4907C3.34351 16.4573 3.33666 16.4219 3.33073 16.3875C3.32766 16.3766 3.3256 16.3654 3.32461 16.3541C3.31965 16.3305 3.31575 16.306 3.31281 16.2814C3.3095 16.2653 3.30718 16.249 3.30588 16.2325C3.30197 16.2099 3.29903 16.1864 3.29707 16.1628C3.29211 16.1284 3.28919 16.093 3.28626 16.0576C3.28228 16.0233 3.28015 15.9889 3.27936 15.9545C3.27642 15.9171 3.2744 15.8788 3.2744 15.8395C3.27146 15.7423 3.27244 15.641 3.27837 15.5378C3.27935 15.5113 3.28131 15.4848 3.28327 15.4573C3.28425 15.4328 3.28624 15.4071 3.28936 15.3816C3.2892 15.3776 3.28954 15.3737 3.29035 15.3698C3.29426 15.3187 3.30019 15.2666 3.30705 15.2146C3.31102 15.1802 3.31494 15.1458 3.32087 15.1114C3.32381 15.0858 3.32772 15.0603 3.33267 15.0337C3.33952 14.9856 3.34839 14.9364 3.35824 14.8863C3.36436 14.8529 3.37104 14.8195 3.37795 14.7861C3.38774 14.7372 3.39856 14.6869 3.41134 14.6358C3.42021 14.5955 3.43006 14.5552 3.44088 14.5139C3.46156 14.4323 3.48419 14.3478 3.50976 14.2623C3.52156 14.2201 3.53533 14.1778 3.54915 14.1336C3.56194 14.0904 3.5757 14.0472 3.59142 14.002C3.6052 13.9587 3.61997 13.9145 3.63571 13.8693C3.63571 13.8683 3.6367 13.8673 3.63768 13.8654C3.84925 13.4438 4.07622 13.0202 4.31861 12.5947C4.36681 12.5092 4.41601 12.4237 4.4672 12.3382C4.51736 12.2517 4.56849 12.1642 4.62165 12.0768C4.66985 11.9973 4.71804 11.9166 4.7663 11.836C4.77413 11.8242 4.78104 11.8124 4.7879 11.8007C4.83909 11.7181 4.89025 11.6357 4.94243 11.553C4.99651 11.4656 5.05161 11.3781 5.10868 11.2906C5.16373 11.2042 5.21877 11.1177 5.27597 11.0312C5.33793 10.9368 5.40095 10.8425 5.4639 10.7472C5.51895 10.6657 5.57399 10.5832 5.6302 10.5015L5.80436 10.248C5.96964 10.0113 6.13953 9.77377 6.31403 9.53561C6.36816 9.46194 6.42229 9.38821 6.4774 9.31454C6.62421 9.11704 6.77353 8.92051 6.92706 8.72295C6.97233 8.66498 7.01882 8.60603 7.06482 8.54805C7.10513 8.49497 7.14647 8.44292 7.1888 8.39081C7.25767 8.30242 7.32851 8.21495 7.40032 8.12649C7.47116 8.03809 7.54297 7.95061 7.61582 7.86215C7.68763 7.77473 7.76044 7.68628 7.83427 7.5988C7.89134 7.53001 7.9494 7.46221 8.00745 7.39343C8.06862 7.32171 8.13045 7.249 8.19242 7.17625C8.59585 6.70656 9.01697 6.23822 9.4558 5.77122C9.53942 5.68178 9.62407 5.59235 9.70965 5.50194C9.79528 5.41257 9.88187 5.32216 9.96848 5.23272C10.055 5.32216 10.1417 5.41257 10.2272 5.50194C10.3129 5.59235 10.3975 5.68178 10.4811 5.77122C10.9199 6.23801 11.341 6.70636 11.7445 7.17625C11.8065 7.249 11.8684 7.32171 11.9294 7.39343C11.9875 7.46221 12.0457 7.53001 12.1027 7.5988C12.1764 7.68628 12.2495 7.77473 12.3211 7.86215C12.3939 7.95061 12.4657 8.03809 12.5366 8.12649C12.6084 8.21495 12.6793 8.30242 12.7481 8.39081C12.7904 8.44292 12.8317 8.49497 12.8721 8.54805C12.9184 8.60603 12.9646 8.66498 13.0099 8.72295C13.1633 8.92051 13.3129 9.11704 13.4595 9.31454C13.5146 9.38821 13.5687 9.46194 13.6228 9.53561C13.798 9.77345 13.9678 10.0109 14.1325 10.248L14.3067 10.5015C14.3628 10.5832 14.4179 10.6657 14.473 10.7472C14.5359 10.8425 14.5989 10.9366 14.661 11.0312C14.718 11.1177 14.7731 11.2042 14.8282 11.2906C14.8853 11.3781 14.9404 11.4656 14.9945 11.553C15.0466 11.6355 15.0978 11.7179 15.149 11.8007C15.1558 11.8124 15.1627 11.8242 15.1706 11.836C15.2188 11.9166 15.267 11.9972 15.3153 12.0768C15.3684 12.1642 15.4193 12.2517 15.4697 12.3382C15.5209 12.4237 15.5701 12.5092 15.6183 12.5947C15.8614 13.0202 16.0883 13.4438 16.2992 13.8654C16.3002 13.8673 16.3012 13.8683 16.3012 13.8693C16.3032 13.8762 16.3061 13.883 16.3081 13.8889C16.3208 13.9273 16.3337 13.9646 16.3455 14.002C16.3603 14.0472 16.375 14.0904 16.3878 14.1336C16.3996 14.171 16.4114 14.2083 16.4212 14.2447C16.4468 14.3272 16.4694 14.4088 16.4891 14.4883C16.4989 14.5237 16.5068 14.5581 16.5147 14.5925C16.5226 14.6201 16.5275 14.6456 16.5331 14.6719C16.5339 14.6731 16.5343 14.6745 16.5341 14.6759L16.5518 14.7553C16.5606 14.7946 16.5685 14.8339 16.5754 14.8732C16.5757 14.8736 16.576 14.8741 16.5762 14.8746C16.5764 14.8751 16.5764 14.8756 16.5764 14.8761C16.5813 14.9047 16.5872 14.9322 16.5912 14.9606C16.599 15 16.6049 15.0393 16.6108 15.0786C16.6167 15.1179 16.6226 15.1562 16.6266 15.1947C16.6295 15.2153 16.6334 15.2369 16.6344 15.2575C16.6356 15.264 16.6363 15.2706 16.6364 15.2772C16.6384 15.2929 16.6403 15.3086 16.6413 15.3243C16.6492 15.3941 16.6541 15.4629 16.657 15.5307C16.6591 15.5583 16.661 15.5867 16.661 15.6142V15.6192C16.662 15.6408 16.662 15.6614 16.662 15.682C16.664 15.7548 16.663 15.8265 16.66 15.8963C16.659 15.9415 16.6561 15.9867 16.6521 16.0307C16.652 16.0395 16.6513 16.0484 16.6502 16.0572C16.6462 16.0985 16.6423 16.1407 16.6374 16.181C16.6256 16.2792 16.6098 16.3756 16.5891 16.4689C16.5878 16.4796 16.5855 16.4901 16.5823 16.5004C16.5822 16.5042 16.5812 16.5079 16.5794 16.5112C16.5798 16.5129 16.5798 16.5146 16.5795 16.5163C16.5791 16.518 16.5784 16.5196 16.5774 16.521C16.5725 16.5495 16.5645 16.576 16.5577 16.6035C16.5479 16.6457 16.536 16.687 16.5233 16.7283C16.4967 16.8177 16.4672 16.9055 16.4327 16.9907C16.4199 17.0251 16.4061 17.0595 16.3904 17.0929C16.3843 17.1076 16.3776 17.1224 16.3707 17.1371C16.3363 17.2138 16.2999 17.2894 16.2596 17.3641C16.2399 17.4004 16.2202 17.4368 16.1984 17.4722C16.1827 17.5007 16.1649 17.5292 16.1482 17.5577C16.1384 17.5725 16.1285 17.5883 16.1188 17.6039C16.101 17.6324 16.0821 17.6609 16.0627 17.6904C16.0555 17.7026 16.0476 17.7145 16.039 17.7258C16.0374 17.729 16.0353 17.7319 16.0329 17.7346C16.0152 17.7621 15.9975 17.7886 15.9779 17.814C16.2307 18.3574 16.4493 18.9159 16.6324 19.4865C16.6381 19.4798 16.6439 19.4743 16.6497 19.4673L16.6519 19.4648C16.6919 19.4212 16.7309 19.3766 16.77 19.3321C16.7735 19.328 16.7769 19.3239 16.7805 19.3198C16.8654 19.2225 16.948 19.1231 17.0281 19.0215C17.0337 19.0145 17.0392 19.0074 17.0447 19.0004C17.0738 18.9638 17.1026 18.9271 17.1303 18.889C17.1688 18.8393 17.2054 18.7886 17.2421 18.7373C17.2529 18.7221 17.2637 18.7069 17.2743 18.6917C17.2997 18.655 17.3251 18.6187 17.3498 18.5817C17.385 18.53 17.4192 18.4772 17.4525 18.4234L17.4537 18.4215C17.4908 18.3639 17.526 18.3053 17.5593 18.2457C17.582 18.2053 17.6056 18.1651 17.6272 18.1248C17.6439 18.0942 17.6607 18.0629 17.6762 18.0324C17.6821 18.0227 17.687 18.0125 17.6909 18.0019C17.7185 17.9497 17.7441 17.8967 17.7687 17.8436C17.7834 17.8112 17.7982 17.7797 17.813 17.7474V17.7483C18.321 16.6049 18.443 15.1816 17.7549 13.2589L17.7601 13.2571C16.1398 10.0183 13.6466 6.67362 10.5248 3.55591L9.96815 3L9.41151 3.55591C6.28966 6.67362 3.79653 10.0183 2.17628 13.2571L2.18141 13.2589C1.49356 15.1818 1.61591 16.6051 2.12362 17.7485Z" fill="url(#paint3_linear_443_2882)"/>
<path d="M19.011 16.2217C18.9376 17.181 18.619 18.1055 18.0859 18.9069C18.0887 18.9211 18.092 18.9353 18.0945 18.9497C18.1712 19.3467 18.2306 19.7382 18.2726 20.124C18.2815 20.2017 18.2883 20.2782 18.2953 20.3549C18.3307 20.7391 18.3484 21.1185 18.3484 21.4909C18.3484 21.6147 18.3464 21.7385 18.3423 21.8613C18.3381 21.9841 18.3324 22.106 18.3245 22.2278V22.2288C18.3167 22.3507 18.3068 22.4715 18.295 22.5914C18.2714 22.8312 18.2389 23.069 18.1996 23.3038C18.1504 23.5967 18.0875 23.8846 18.0126 24.1686C17.9979 24.2246 17.982 24.2816 17.9664 24.3376C17.2826 26.7392 15.7191 28.672 13.3182 30.0812C12.2703 30.6955 11.1435 31.1643 9.96886 31.4746C8.79418 31.1643 7.66733 30.6955 6.61944 30.0812C4.2186 28.672 2.65506 26.7392 1.97125 24.3376C1.95553 24.2816 1.93976 24.2246 1.92501 24.1686C1.8502 23.8846 1.78725 23.5967 1.73807 23.3038C1.69868 23.069 1.6662 22.8312 1.64258 22.5914C1.6308 22.4716 1.62097 22.3507 1.6131 22.2288V22.2278C1.60521 22.107 1.59934 21.9842 1.59536 21.8613C1.59139 21.7385 1.58924 21.6147 1.58924 21.4909C1.58924 21.1182 1.60693 20.7391 1.64235 20.3549C1.64926 20.2782 1.65618 20.2017 1.66499 20.124C1.70731 19.7378 1.76667 19.3464 1.84309 18.9497C1.84572 18.9357 1.84921 18.9214 1.85172 18.9069C1.31857 18.1055 1.00003 17.181 0.926531 16.2217C-0.122892 19.3057 -0.282218 22.1711 0.456709 24.7667C1.24879 27.5486 3.12026 29.8647 5.86946 31.4645C6.59902 31.8877 7.36255 32.2495 8.15217 32.5463C8.17878 32.5562 8.20535 32.567 8.23171 32.5758C8.42847 32.6485 8.61016 32.7117 8.77683 32.7652C8.80931 32.776 8.84174 32.7868 8.87324 32.7967C8.9461 32.8193 9.01596 32.8409 9.08184 32.8606C9.11243 32.8704 9.14301 32.8792 9.17237 32.8871L9.18124 32.89V34.9998H10.7555V32.89L10.7644 32.8871C10.794 32.8792 10.8234 32.8704 10.8549 32.8606C10.9209 32.8409 10.9908 32.8193 11.0635 32.7967C11.095 32.7859 11.1265 32.776 11.1599 32.7652C11.3262 32.7112 11.508 32.6481 11.7051 32.5758C11.7316 32.567 11.7583 32.5562 11.7846 32.5463C12.5743 32.2495 13.3378 31.8877 14.0674 31.4645C16.8165 29.8647 18.688 27.5487 19.4801 24.7667C20.2198 22.1711 20.0605 19.3057 19.011 16.2217Z" fill="url(#paint4_linear_443_2882)"/>
<defs>
<linearGradient id="paint0_linear_443_2882" x1="10.6136" y1="29.0815" x2="10.6136" y2="11.0425" gradientUnits="userSpaceOnUse">
<stop stop-color="#1E7F9D"/>
<stop offset="1" stop-color="#25A6EF"/>
</linearGradient>
<linearGradient id="paint1_linear_443_2882" x1="6.25786" y1="18.682" x2="6.25786" y2="18.2634" gradientUnits="userSpaceOnUse">
<stop stop-color="#1E7F9D"/>
<stop offset="1" stop-color="#25A6EF"/>
</linearGradient>
<linearGradient id="paint2_linear_443_2882" x1="5.16346" y1="22.5214" x2="5.16346" y2="22.4172" gradientUnits="userSpaceOnUse">
<stop stop-color="#1E7F9D"/>
<stop offset="1" stop-color="#25A6EF"/>
</linearGradient>
<linearGradient id="paint3_linear_443_2882" x1="9.96833" y1="29.0812" x2="9.96833" y2="3" gradientUnits="userSpaceOnUse">
<stop stop-color="#1E7F9D"/>
<stop offset="1" stop-color="#25A6EF"/>
</linearGradient>
<linearGradient id="paint4_linear_443_2882" x1="9.96871" y1="34.9998" x2="9.96871" y2="16.2217" gradientUnits="userSpaceOnUse">
<stop stop-color="#1E7F9D"/>
<stop offset="1" stop-color="#25A6EF"/>
</linearGradient>
</defs>
</svg>
