<svg width="498" height="495" viewBox="0 0 498 495" fill="none" xmlns="http://www.w3.org/2000/svg">
<g filter="url(#filter0_b_122_3956)">
<rect x="60.2054" y="58.1704" width="189.329" height="189.329" fill="#24EE75" fill-opacity="0.15"/>
<rect x="61.2054" y="59.1704" width="187.329" height="187.329" stroke="#25A6EF" stroke-width="2" stroke-dasharray="3 3"/>
</g>
<line x1="60.2404" y1="494.591" x2="60.2404" y2="0.398407" stroke="url(#paint0_linear_122_3956)"/>
<line x1="3.8075" y1="58.7495" x2="498" y2="58.7495" stroke="url(#paint1_linear_122_3956)"/>
<line x1="154.905" y1="494.601" x2="154.905" y2="0.408905" stroke="url(#paint2_linear_122_3956)"/>
<line x1="2.84802" y1="152.875" x2="497.04" y2="152.875" stroke="url(#paint3_linear_122_3956)"/>
<line x1="249.035" y1="494.601" x2="249.035" y2="0.408905" stroke="url(#paint4_linear_122_3956)"/>
<line x1="1.8988" y1="247" x2="496.091" y2="247" stroke="url(#paint5_linear_122_3956)"/>
<line x1="342.63" y1="494.601" x2="342.63" y2="0.408905" stroke="url(#paint6_linear_122_3956)"/>
<line x1="0.949219" y1="341.125" x2="495.142" y2="341.125" stroke="url(#paint7_linear_122_3956)"/>
<line x1="436.76" y1="494.601" x2="436.76" y2="0.408905" stroke="url(#paint8_linear_122_3956)"/>
<line y1="435.25" x2="494.192" y2="435.25" stroke="url(#paint9_linear_122_3956)"/>
<g opacity="0.64" clip-path="url(#clip0_122_3956)">
<mask id="mask0_122_3956" style="mask-type:luminance" maskUnits="userSpaceOnUse" x="66" y="351" width="77" height="77">
<path d="M142.569 351.257H66.6233V427.202H142.569V351.257Z" fill="white"/>
</mask>
<g mask="url(#mask0_122_3956)">
<path d="M95.4848 417.727C92.9628 416.682 90.6281 415.234 88.5725 413.438C88.209 413.101 87.8291 412.782 87.4592 412.458C87.0866 412.128 86.7339 411.775 86.4031 411.403C85.3004 410.082 84.3363 408.652 83.5259 407.134C82.7144 405.652 82.0532 404.092 81.5521 402.478C81.0896 401.064 80.7216 399.621 80.4506 398.158C80.2648 397.224 80.1668 396.275 80.1577 395.322C80.1812 394.368 80.3147 393.419 80.5556 392.496C80.7074 391.923 80.9109 392.042 81.1718 392.549C81.3365 392.875 81.4801 393.211 81.6017 393.555C81.8072 393.984 81.9647 394.435 82.0714 394.899C82.1463 395.113 82.1895 395.333 82.2309 395.547C82.2724 395.762 82.2872 395.98 82.3354 396.198C82.435 396.627 82.5112 397.053 82.6158 397.48C82.7204 397.907 82.8382 398.324 82.9626 398.744C83.0872 399.164 83.2216 399.581 83.3959 399.984C83.6847 400.81 84.0084 401.625 84.3604 402.44C84.7125 403.256 85.008 404.086 85.3748 404.879C85.8329 405.861 86.402 406.787 87.0709 407.638C87.7456 408.481 88.4741 409.279 89.2521 410.028C90.9828 411.677 92.9792 413.023 95.1575 414.008C95.8328 414.316 96.5231 414.59 97.2259 414.827C97.5796 414.944 97.9284 415.079 98.2868 415.178L99.3537 415.481C101.548 416.027 103.814 416.221 106.069 416.056C107.775 415.868 109.448 415.45 111.043 414.815C111.402 414.723 111.72 414.528 112.076 414.414C112.433 414.301 112.684 414.236 112.915 414.177C113.131 414.139 113.351 414.137 113.568 414.173C113.924 414.228 114.256 414.385 114.525 414.626C114.661 414.726 114.791 414.834 114.916 414.947C115.094 415.136 115.071 415.39 114.937 415.711C114.711 416.157 114.404 416.558 114.032 416.893C113.667 417.144 113.285 417.361 112.898 417.597L112.308 417.937L111.693 418.224C111.282 418.424 110.858 418.595 110.424 418.735C109.996 418.885 109.547 418.991 109.097 419.109C108.647 419.227 108.196 419.296 107.737 419.389C107.283 419.47 106.826 419.527 106.366 419.561C105.903 419.611 105.435 419.612 104.968 419.636C104.501 419.659 104.035 419.605 103.559 419.57C100.784 419.413 98.0517 418.818 95.4626 417.807L95.4848 417.727Z" fill="#25A6EF"/>
<path d="M118.952 415.162C119.142 414.736 119.237 414.274 119.233 413.807C119.216 413.442 119.059 413.097 118.796 412.843C118.49 412.606 118.15 412.416 117.788 412.279C117.037 411.899 116.236 411.626 115.41 411.467C114.504 411.259 113.57 411.094 112.635 410.962C111.804 410.864 110.966 410.828 110.128 410.855L108.546 410.899C108.053 410.912 107.559 410.898 107.068 410.857C106.88 410.817 106.589 410.416 106.78 409.841C107.009 409.19 107.543 408.693 108.208 408.509C108.786 408.401 109.369 408.324 109.954 408.279C110.531 408.256 111.107 408.256 111.681 408.279C112.835 408.319 113.983 408.468 115.11 408.723C115.789 408.877 116.495 408.976 117.235 409.098C117.641 409.156 118.042 409.238 118.438 409.342C118.638 409.399 118.834 409.469 119.025 409.55C119.223 409.625 119.414 409.717 119.596 409.826C120.5 410.302 121.243 411.036 121.73 411.935C122.179 412.848 122.322 413.881 122.139 414.881C121.947 415.92 121.58 416.919 121.054 417.836C120.313 419.108 119.474 420.322 118.547 421.466C117.867 422.352 117.297 423.311 116.601 424.197C116.453 424.397 116.288 424.583 116.109 424.754C115.42 425.375 115.027 425.4 114.407 424.952C114.263 424.858 114.124 424.755 113.992 424.645C113.585 424.229 113.518 423.588 113.831 423.098C114.031 422.668 114.259 422.252 114.514 421.853C114.775 421.466 115.057 421.105 115.326 420.709C115.879 419.957 116.481 419.216 116.994 418.478C117.771 417.473 118.4 416.361 118.863 415.177L118.952 415.162Z" fill="#25A6EF"/>
<path d="M82.1701 359.52C84.1202 357.61 86.3687 356.031 88.827 354.845C89.2793 354.643 89.7225 354.419 90.165 354.206C90.6154 353.993 91.0779 353.807 91.5503 353.648C93.1977 353.152 94.8916 352.827 96.6054 352.677C98.2875 352.512 99.9819 352.516 101.663 352.689C103.145 352.818 104.617 353.046 106.068 353.37C107 353.566 107.912 353.849 108.792 354.214C109.66 354.61 110.48 355.105 111.235 355.689C111.702 356.053 111.513 356.194 110.945 356.235C110.581 356.259 110.215 356.259 109.851 356.236C109.375 356.256 108.899 356.224 108.43 356.14C108.204 356.125 107.985 356.079 107.771 356.033C107.558 355.987 107.351 355.915 107.132 355.873C106.698 355.797 106.277 355.7 105.843 355.628C105.409 355.557 104.979 355.502 104.544 355.451C104.108 355.401 103.672 355.361 103.233 355.363C102.36 355.305 101.484 355.283 100.595 355.287C99.7072 355.29 98.8281 355.237 97.9542 355.262C96.8716 355.299 95.7967 355.459 94.7506 355.74C93.7109 356.03 92.691 356.387 91.6976 356.809C89.5012 357.753 87.4798 359.062 85.7184 360.678C85.1705 361.179 84.6481 361.706 84.1534 362.259C83.9073 362.539 83.6462 362.807 83.4152 363.098L82.7177 363.96C81.3548 365.764 80.2868 367.773 79.5537 369.911C79.0571 371.554 78.7845 373.257 78.7434 374.973C78.687 375.34 78.7416 375.708 78.706 376.081C78.6704 376.454 78.632 376.71 78.595 376.946C78.5458 377.159 78.4607 377.362 78.3432 377.547C78.1527 377.853 77.8774 378.097 77.5507 378.25C77.4051 378.335 77.2551 378.414 77.1016 378.484C76.8577 378.573 76.6333 378.453 76.3909 378.204C76.0687 377.821 75.8204 377.381 75.6587 376.907C75.5716 376.473 75.5216 376.036 75.4565 375.588L75.3751 374.911L75.352 374.233C75.3296 373.777 75.3391 373.32 75.3803 372.866C75.4107 372.413 75.4888 371.959 75.5567 371.498C75.6246 371.038 75.7389 370.596 75.8331 370.137C75.9372 369.688 76.0639 369.245 76.2129 368.809C76.3486 368.364 76.5309 367.932 76.6924 367.494C76.854 367.055 77.0875 366.648 77.3063 366.224C78.5398 363.733 80.1593 361.453 82.1048 359.468L82.1701 359.52Z" fill="#25A6EF"/>
<path d="M75.3198 382.112C75.6378 382.453 76.0253 382.723 76.4561 382.902C76.7991 383.029 77.1779 383.021 77.5148 382.878C77.8529 382.69 78.1611 382.452 78.4291 382.173C79.0734 381.631 79.6387 381.002 80.1086 380.303C80.6559 379.552 81.1744 378.757 81.6621 377.95C82.0794 377.223 82.4412 376.467 82.7444 375.686L83.3243 374.213C83.5065 373.755 83.713 373.306 83.9431 372.87C84.0541 372.713 84.5371 372.603 84.9913 373.004C85.4998 373.47 85.7479 374.156 85.6556 374.84C85.5289 375.414 85.3709 375.98 85.1822 376.537C84.9768 377.076 84.751 377.606 84.5048 378.125C84.0148 379.171 83.4275 380.168 82.7506 381.104C82.3427 381.669 81.9741 382.279 81.5721 382.912C81.3596 383.262 81.1269 383.6 80.8752 383.923C80.7441 384.084 80.6032 384.237 80.4533 384.381C80.3068 384.534 80.1471 384.673 79.976 384.798C79.183 385.443 78.2164 385.838 77.1987 385.933C76.183 385.988 75.1766 385.714 74.3279 385.154C73.4477 384.569 72.6727 383.84 72.036 382.996C71.1566 381.815 70.3692 380.567 69.6806 379.265C69.1327 378.293 68.4743 377.392 67.9327 376.404C67.8072 376.19 67.7003 375.965 67.6131 375.733C67.3125 374.856 67.4432 374.484 68.0987 374.089C68.242 373.994 68.3908 373.907 68.5444 373.829C69.0863 373.617 69.7024 373.808 70.0306 374.288C70.3475 374.64 70.6403 375.013 70.9071 375.404C71.1609 375.796 71.3825 376.197 71.6408 376.6C72.1154 377.404 72.5609 378.248 73.0384 379.009C73.6585 380.119 74.434 381.134 75.3415 382.024L75.3198 382.112Z" fill="#25A6EF"/>
<path d="M140.64 378.74C141.388 381.365 141.703 384.095 141.572 386.821C141.534 387.315 141.519 387.811 141.496 388.302C141.468 388.8 141.411 389.295 141.325 389.785C140.975 391.47 140.453 393.114 139.767 394.692C139.109 396.249 138.297 397.736 137.343 399.131C136.523 400.372 135.62 401.556 134.643 402.677C134.026 403.403 133.343 404.07 132.602 404.669C131.839 405.243 131.014 405.727 130.14 406.112C129.597 406.349 129.563 406.115 129.798 405.596C129.951 405.265 130.126 404.943 130.32 404.634C130.529 404.207 130.784 403.803 131.082 403.431C131.203 403.24 131.348 403.07 131.491 402.904C131.633 402.738 131.795 402.591 131.935 402.418C132.21 402.073 132.496 401.749 132.766 401.402C133.036 401.054 133.289 400.703 133.541 400.345C133.794 399.986 134.037 399.622 134.244 399.235C134.712 398.495 135.149 397.736 135.57 396.953C135.99 396.171 136.457 395.424 136.851 394.643C137.336 393.675 137.708 392.654 137.96 391.6C138.201 390.548 138.374 389.482 138.477 388.407C138.695 386.026 138.51 383.625 137.929 381.306C137.751 380.586 137.536 379.875 137.286 379.176C137.158 378.827 137.047 378.469 136.901 378.128L136.476 377.103C135.541 375.045 134.286 373.148 132.756 371.483C131.548 370.263 130.182 369.211 128.694 368.356C128.398 368.132 128.049 368.004 127.738 367.795C127.427 367.586 127.22 367.429 127.031 367.285C126.867 367.14 126.728 366.968 126.622 366.776C126.444 366.463 126.361 366.105 126.383 365.745C126.377 365.576 126.38 365.407 126.391 365.238C126.429 364.981 126.642 364.842 126.977 364.747C127.467 364.647 127.972 364.639 128.466 364.723C128.889 364.853 129.296 365.017 129.721 365.174L130.355 365.426L130.962 365.729C131.373 365.927 131.77 366.153 132.15 366.406C132.534 366.648 132.896 366.934 133.268 367.213C133.641 367.493 133.974 367.804 134.333 368.106C134.677 368.411 135.006 368.734 135.318 369.073C135.645 369.405 135.937 369.771 136.245 370.122C136.554 370.473 136.8 370.873 137.069 371.267C138.669 373.54 139.9 376.051 140.716 378.708L140.64 378.74Z" fill="#25A6EF"/>
<path d="M124.053 361.941C123.601 362.058 123.18 362.27 122.817 362.563C122.541 362.804 122.368 363.141 122.333 363.505C122.337 363.892 122.399 364.276 122.516 364.645C122.685 365.47 122.968 366.267 123.358 367.013C123.757 367.852 124.208 368.687 124.685 369.501C125.124 370.214 125.617 370.893 126.158 371.532L127.176 372.745C127.492 373.124 127.788 373.519 128.061 373.929C128.146 374.102 128.012 374.579 127.444 374.787C126.791 375.011 126.07 374.902 125.513 374.494C125.069 374.109 124.646 373.7 124.248 373.269C123.871 372.831 123.514 372.38 123.175 371.916C122.489 370.986 121.893 369.994 121.393 368.953C121.092 368.325 120.732 367.71 120.366 367.054C120.16 366.701 119.975 366.335 119.811 365.96C119.732 365.768 119.665 365.571 119.61 365.371C119.545 365.169 119.499 364.962 119.471 364.752C119.282 363.747 119.397 362.71 119.798 361.77C120.235 360.851 120.956 360.097 121.853 359.619C122.787 359.124 123.798 358.791 124.843 358.634C126.301 358.425 127.773 358.328 129.246 358.344C130.362 358.326 131.467 358.177 132.594 358.172C132.842 358.164 133.091 358.178 133.336 358.212C134.25 358.366 134.515 358.658 134.549 359.423C134.564 359.594 134.57 359.767 134.565 359.939C134.492 360.516 134.031 360.966 133.452 361.026C132.992 361.136 132.525 361.216 132.054 361.264C131.587 361.3 131.13 361.303 130.652 361.338C129.719 361.372 128.765 361.36 127.868 361.417C126.597 361.432 125.335 361.63 124.12 362.003L124.053 361.941Z" fill="#25A6EF"/>
</g>
</g>
<g opacity="0.72">
<path d="M377.082 95.4257C379.244 93.5717 381.617 91.9792 384.152 90.6811C385.044 90.1782 385.907 89.6658 386.818 89.2103C388.422 88.4512 390.045 87.749 391.677 87.0752L396.592 85.1774C398.035 84.6175 399.439 83.9913 400.853 83.3745C402.684 82.6438 404.525 81.9416 406.395 81.2774C406.973 81.0781 406.945 81.2014 406.565 81.6C405.949 82.2648 405.272 82.8715 404.544 83.4124C403.7 84.0007 402.855 84.5701 402.001 85.13C401.147 85.6898 400.217 86.0789 399.316 86.5344C397.513 87.4358 395.681 88.2709 393.84 89.049C391.609 90.0412 389.445 91.1759 387.359 92.4461C385.053 93.7365 382.851 95.2055 380.774 96.8396C380.138 97.3373 379.53 97.8695 378.952 98.4338L378.098 99.2688L377.32 100.17C376.929 100.6 376.583 101.067 376.285 101.565C375.971 102.057 375.692 102.571 375.45 103.102C374.959 104.219 374.571 105.378 374.293 106.566C373.909 108.411 373.665 110.283 373.562 112.165C373.562 112.582 373.562 112.981 373.515 113.389C373.315 114.907 373.107 115.372 372.48 115.742C372.346 115.833 372.207 115.915 372.063 115.989C371.617 116.179 371.114 115.524 370.848 114.29C370.159 110.472 370.509 106.539 371.863 102.903C372.368 101.401 373.08 99.976 373.98 98.671C374.463 98.0637 374.928 97.4944 375.431 96.9155L376.997 95.3213L377.082 95.4257Z" fill="#25A6EF"/>
<path d="M387.302 112.535C384.847 114.786 382.528 117.182 380.356 119.709C379.55 120.657 378.914 121.673 378.136 122.612C375.34 125.951 372.724 129.435 370.298 133.05C369.25 134.679 368.3 136.368 367.451 138.108C366.475 140.402 365.199 142.556 363.655 144.513C363.134 145.121 362.327 144.599 361.758 143.564C361.015 142.355 360.799 140.895 361.16 139.522L361.843 137.7C362.098 137.106 362.387 136.526 362.707 135.964C363.308 134.812 363.94 133.683 364.604 132.576C365.947 130.336 367.44 128.189 369.074 126.152C371.066 123.713 372.613 120.838 374.549 118.285C376.688 115.471 378.969 112.766 381.381 110.181L383.659 107.847L385.993 105.57C387.208 104.45 388.403 103.321 389.684 102.277C390.339 101.746 390.899 101.233 391.582 100.683C392.265 100.132 392.949 99.6484 393.603 99.1645C394.597 98.4431 395.548 97.6637 396.45 96.8301C396.887 96.4316 397.295 96.0236 397.674 95.6155C398.054 95.2075 398.471 94.8659 398.822 94.4863C399.173 94.1068 399.392 93.8031 399.676 93.49C400.317 92.5383 401.445 92.0369 402.58 92.1994C402.884 92.1994 403.197 92.1994 403.529 92.1994C404.025 92.2488 404.442 92.5941 404.582 93.0724C404.833 93.8206 404.833 94.6302 404.582 95.3783C404.166 96.7405 403.524 98.0234 402.684 99.174C401.938 100.253 401.032 101.212 399.999 102.021C398.101 103.624 396.26 104.792 394.865 106.063C392.398 108.208 389.846 110.324 387.502 112.706L387.302 112.535Z" fill="#25A6EF"/>
<path d="M401.802 82.3497C403.688 81.5882 405.526 80.7136 407.306 79.7307C408.255 79.2183 409.023 78.5825 409.878 78.0132C410.119 77.883 410.348 77.7305 410.561 77.5577L411.253 76.9029L412.629 75.6029C413.056 75.2138 413.578 74.654 414.138 74.1416L415.713 72.5759C416.216 72.0919 416.814 71.4656 417.383 70.8868L419.101 69.1123L418.987 69.7481C418.987 69.8904 418.987 69.9568 418.987 70.0517V70.6116V71.4372C418.995 71.5477 418.995 71.6587 418.987 71.7693L418.56 75.0525L417.678 81.695L416.871 87.3315C416.681 88.6031 416.472 89.8651 416.197 91.1272C415.256 95.6087 413.935 100.002 412.25 104.26C411.416 106.411 410.466 108.514 409.403 110.561C408.354 112.64 407.122 114.622 405.721 116.482C403.262 119.885 400.173 122.784 396.621 125.023C394.308 126.417 391.762 127.382 389.106 127.869C386.441 128.38 383.702 128.373 381.04 127.85C379.427 127.556 379.787 126.844 381.163 126.152C383.158 125.242 385.241 124.539 387.379 124.055C391.861 123.135 395.903 120.732 398.851 117.232C400.368 115.46 401.721 113.554 402.893 111.538C404.172 109.456 405.322 107.298 406.338 105.076C407.586 102.301 408.565 99.4127 409.261 96.4506C409.982 93.4426 410.675 90.387 411.272 87.3315L411.994 83.7921L412.24 82.549L412.297 82.2169V82.0555V82.0081V82.0555L412.088 82.2263C411.997 82.3024 411.914 82.3883 411.842 82.4826C411.51 82.6723 411.035 83.0329 410.551 83.3176C410.314 83.4694 410.048 83.6118 409.783 83.7541L408.929 84.2286C408.615 84.4089 408.293 84.5702 407.98 84.7315C404.027 86.6605 399.935 88.2909 395.739 89.6089C392.645 90.6432 389.533 91.5922 386.534 92.6929C383.591 93.6669 380.813 95.0845 378.298 96.8966C377.421 97.577 376.655 98.3902 376.03 99.3069C375.392 100.271 374.843 101.29 374.388 102.353C373.486 104.438 372.946 106.662 372.794 108.929C372.732 109.912 372.732 110.897 372.794 111.88C372.851 112.829 372.927 113.56 372.984 114.205C373.022 114.748 373.022 115.294 372.984 115.837C372.968 116.235 372.892 116.629 372.756 117.004C372.588 117.333 372.398 117.65 372.187 117.953C372.006 118.219 371.892 118.532 371.769 118.703C371.646 118.874 371.219 118.769 370.459 118.19C370.289 118.039 369.995 117.887 369.89 117.659C369.786 117.431 369.596 117.184 369.444 116.9C369.106 116.25 368.839 115.566 368.647 114.86C367.449 109.842 368.025 104.564 370.279 99.9237C370.852 98.7393 371.525 97.606 372.291 96.536C373.132 95.3514 374.138 94.2937 375.28 93.3951C377.362 91.7649 379.654 90.4212 382.093 89.4002C385.5 87.9293 388.878 86.8571 392.18 85.7468C395.482 84.6366 398.709 83.5643 401.774 82.2453L401.802 82.3497Z" fill="#25A6EF"/>
</g>
<path d="M370.697 366.931C370.584 366.937 370.47 366.937 370.357 366.931H370.267C370.204 366.931 370.096 366.931 370.069 366.985C370.043 367.038 370.069 366.985 370.007 366.985C369.944 367.054 369.898 367.137 369.872 367.227C369.683 367.594 369.558 367.992 369.504 368.402C369.495 368.619 369.468 368.835 369.424 369.048C369.185 370.718 369.137 372.409 369.28 374.09C369.335 374.86 369.449 375.624 369.621 376.377C369.879 377.323 370.089 378.281 370.249 379.248C370.249 379.553 369.971 379.66 369.531 379.544C368.981 379.389 368.516 379.021 368.239 378.521C367.762 377.559 367.363 376.56 367.046 375.534C366.889 375.022 366.763 374.5 366.67 373.973C366.608 373.428 366.587 372.879 366.607 372.331C366.607 371.022 366.409 369.64 366.607 368.241C366.665 367.75 366.761 367.264 366.894 366.787L367.136 366.043L367.324 365.666C367.396 365.504 367.495 365.352 367.558 365.182C367.79 364.835 368.097 364.544 368.455 364.329C368.81 364.156 369.192 364.043 369.585 363.997C370.139 363.946 370.697 363.967 371.245 364.06C371.711 364.141 372.142 364.24 372.608 364.338C373.945 364.634 375.183 365.092 376.448 365.424C377.417 365.693 378.43 365.774 379.399 365.953C379.614 366.007 379.821 366.034 380.027 366.106C380.189 366.161 380.346 366.234 380.494 366.321C380.601 366.419 380.686 366.538 380.745 366.671C380.86 366.927 380.909 367.207 380.888 367.487C380.897 367.627 380.897 367.768 380.888 367.909C380.888 368.312 380.404 368.662 379.686 368.904C379.211 368.904 378.726 368.904 378.251 368.904C377.795 368.841 377.343 368.754 376.896 368.644C375.999 368.429 375.102 368.16 374.277 367.891C373.64 367.693 373.021 367.496 372.411 367.326C372.106 367.236 371.81 367.164 371.514 367.092C371.218 367.021 370.949 367.03 370.697 367.021V366.931Z" fill="#25A6EF"/>
<path d="M410.618 403.693C411.184 403.574 411.645 403.164 411.829 402.617C411.886 402.387 411.919 402.153 411.928 401.917C411.953 401.405 411.935 400.892 411.874 400.383C411.773 399.796 411.62 399.22 411.416 398.66C411.326 398.399 411.218 398.145 411.094 397.898L410.788 397.108C410.442 396.414 410.281 395.641 410.322 394.866C410.322 394.606 410.528 394.659 410.771 394.812C411.095 394.987 411.396 395.201 411.668 395.449C412.148 395.972 412.6 396.52 413.022 397.09C413.411 397.767 413.712 398.491 413.919 399.243C414.027 399.719 414.197 400.203 414.314 400.724C414.372 400.993 414.411 401.265 414.431 401.54C414.462 401.82 414.462 402.103 414.431 402.383C414.354 403.016 414.149 403.626 413.83 404.177C413.493 404.75 413.018 405.228 412.448 405.568C411.823 405.925 411.14 406.168 410.43 406.286C409.449 406.423 408.459 406.485 407.469 406.474C406.725 406.557 405.975 406.587 405.227 406.564C405.065 406.564 404.904 406.564 404.742 406.564C404.15 406.42 404.007 406.187 404.025 405.532C404.025 405.38 404.025 405.236 404.025 405.083C404.074 404.626 404.398 404.246 404.841 404.124C405.164 404.043 405.478 403.953 405.792 403.89L406.249 403.783C406.398 403.769 406.549 403.769 406.698 403.783L408.42 403.908C409.173 404.007 409.939 403.924 410.654 403.666L410.618 403.693Z" fill="#25A6EF"/>
<path d="M362.858 369.577V368.68V367.424C362.846 366.479 362.909 365.534 363.046 364.598C363.173 363.766 363.443 362.961 363.845 362.221C364.211 361.531 364.748 360.947 365.405 360.526C366.007 360.21 366.666 360.021 367.343 359.97C367.793 359.936 368.245 359.96 368.689 360.041C369.263 360.212 369.81 360.337 370.366 360.553C370.923 360.768 371.47 361.019 371.999 361.261L372.788 361.629L373.264 361.889L374.161 362.392C375.354 363.073 376.565 363.674 377.749 364.347C378.791 364.895 379.881 365.345 381.006 365.693C382.441 366.023 383.837 366.507 385.168 367.137C385.572 367.379 385.392 368.276 384.818 369.129C384.292 370.054 383.333 370.648 382.271 370.708C380.62 370.502 378.992 370.142 377.408 369.631C376.638 369.375 375.884 369.076 375.148 368.734C374.425 368.389 373.722 368.005 373.04 367.586C372.638 367.332 372.218 367.107 371.784 366.913L371.138 366.635L370.976 366.572H370.923H370.815C370.509 366.478 370.209 366.364 369.918 366.231C369.747 366.231 369.514 366.079 369.326 366.168C369.169 366.261 369.051 366.408 368.994 366.581C368.844 366.978 368.753 367.395 368.725 367.819C368.725 367.891 368.725 368.321 368.725 368.59V369.488C368.725 370.107 368.805 370.734 368.886 371.353C369.06 373.269 369.412 375.164 369.936 377.014C370.175 377.718 370.475 378.399 370.833 379.05L371.73 381.042C371.855 381.329 372.026 381.598 372.134 381.939C372.519 383.042 372.313 383.518 371.236 384.262C370.985 384.442 370.743 384.63 370.492 384.774C369.653 385.291 368.563 385.124 367.917 384.379C366.874 383.267 365.97 382.032 365.226 380.701C364.609 379.294 364.117 377.835 363.755 376.341C363.244 374.124 362.896 371.872 362.714 369.604L362.858 369.577Z" fill="#25A6EF"/>
<path d="M409.756 403.191C410.214 403.191 410.653 403.191 411.084 403.191H411.245C411.245 403.191 411.308 403.191 411.245 403.191C411.245 403.191 411.29 403.191 411.308 403.191H411.47C411.733 403.269 412.017 403.223 412.241 403.065C412.331 402.895 412.125 402.688 412.151 402.518V402.249C412.159 402.195 412.159 402.141 412.151 402.087L412.035 401.675C411.838 401.038 411.622 400.374 411.398 399.719C410.958 398.391 410.429 397.091 409.998 395.727C409.595 394.525 409.101 393.368 408.563 392.202C407.917 390.703 407.128 389.152 407.316 387.25C407.388 386.64 408.312 386.685 409.308 386.918C410.304 387.151 411.416 387.492 411.784 388.183L413.91 392.139C414.269 392.833 414.609 393.541 414.932 394.265C415.219 395.009 415.462 395.79 415.695 396.597C415.987 397.566 416.375 398.504 416.852 399.396C416.978 399.656 417.032 399.791 417.265 400.221C417.46 400.594 417.634 400.977 417.785 401.37C417.947 401.764 418.081 402.15 418.216 402.545C418.336 402.928 418.424 403.322 418.476 403.72C418.59 404.517 418.472 405.33 418.135 406.061C417.726 406.77 417.134 407.355 416.422 407.757C415.682 408.175 414.884 408.477 414.053 408.654C413.641 408.771 413.156 408.815 412.788 408.896L412.16 408.968C412.005 408.977 411.849 408.977 411.694 408.968C410.21 409.057 408.722 409.018 407.244 408.851C405.068 408.573 402.919 408.111 400.821 407.47C400.005 407.237 399.18 407.048 398.336 406.824C397.508 406.566 396.701 406.242 395.923 405.855C395.57 405.697 395.228 405.515 394.901 405.308C393.717 404.411 393.618 403.81 394.246 402.617C394.379 402.348 394.529 402.087 394.694 401.836C395.221 401.077 396.147 400.701 397.054 400.876C398.354 401.128 399.601 401.289 400.812 401.468C402.023 401.648 403.118 402.096 404.32 402.365C406.085 402.78 407.89 403 409.702 403.02L409.756 403.191Z" fill="#25A6EF"/>
<path d="M399.701 379.678C396.48 382.773 393.269 385.877 390.102 389.035C388.954 390.192 387.949 391.475 386.783 392.623L383.706 395.637L380.557 398.589C378.458 400.571 376.386 402.563 374.358 404.599C372.564 406.393 370.869 408.331 369.245 410.26C368.24 411.543 367.208 412.79 366.15 414.019C365.02 415.189 363.822 416.292 362.562 417.32C361.781 417.948 361.153 417.374 360.902 416.091C360.598 414.373 360.863 412.603 361.656 411.049C365.616 405.632 370.057 400.582 374.923 395.96C376.394 394.542 377.786 393.044 379.095 391.475C380.467 389.941 381.786 388.371 383.23 386.882C386.343 383.617 389.51 380.405 392.694 377.184L398.552 371.255C401.486 368.241 404.527 365.298 407.326 362.194C409.524 359.799 411.363 357.144 413.417 354.623C413.866 354.067 414.314 353.502 414.79 352.981C416.691 351.097 417.651 350.855 419.275 351.779C419.662 351.967 420.037 352.179 420.396 352.416C421.527 353.25 421.553 354.838 420.54 356.507L419.365 358.301C418.978 358.921 418.558 359.519 418.109 360.095C417.212 361.243 416.315 362.374 415.328 363.513C413.399 365.747 411.345 367.936 409.255 370.115C406.16 373.345 402.975 376.494 399.799 379.714L399.701 379.678Z" fill="#25A6EF"/>
<path d="M187.616 125.555C169.073 128.561 157.958 107.516 157.958 107.516L163.157 100.688C165.568 106.964 169.952 112.287 175.648 115.856C184.59 120.938 188.8 119.464 188.8 119.464L187.616 125.555Z" fill="#25A6EF"/>
<path d="M113.578 192.571C113.908 191.038 116.604 189.157 117.807 188.42C122.173 186.286 127.383 186.9 131.133 189.991C143.101 200.698 119.087 203.317 124.499 213.267C125.837 215.75 114.704 225.681 114.704 225.681C114.704 225.681 110.3 205.043 112.182 197.653C114.063 190.263 113.578 192.551 113.578 192.571Z" fill="#25A6EF"/>
<path d="M190.953 105.654C192.169 102.834 193.199 99.9375 194.037 96.9831C194.806 94.323 195.191 91.5667 195.181 88.7976C195.181 88.1575 195.045 87.6726 195.026 87.1101C194.922 86.655 194.785 86.2078 194.619 85.7717C194.493 85.4143 194.31 85.08 194.075 84.7825C193.832 84.4197 193.538 84.0931 193.203 83.8126C191.787 82.5995 189.863 82.1639 188.062 82.6488C184.746 83.3083 181.06 85.9657 177.627 88.7394C171.343 94.0821 165.699 100.136 160.81 106.779C155.97 113.552 151.928 120.861 148.764 128.561C145.841 135.508 143.367 142.635 141.355 149.898C139.997 154.514 139.027 159.247 137.766 163.922L133.887 177.868C133.13 180.719 131.947 180.273 130.939 177.48C129.487 173.111 128.991 168.48 129.484 163.902C132.781 143.943 138.6 124.061 150.374 106.371C154.079 101.076 157.842 96.1684 162.071 91.3774C166.183 86.231 170.972 81.6637 176.308 77.7996C179.594 75.5096 183.341 73.967 187.287 73.2801C189.62 72.9739 191.992 73.1926 194.231 73.9202C196.419 74.6359 198.412 75.8511 200.05 77.4698C200.897 78.3183 201.651 79.2547 202.3 80.263C202.887 81.2546 203.362 82.3085 203.716 83.4053L204.181 84.9958L204.414 86.5476C204.554 87.5565 204.619 88.5744 204.608 89.5929C204.536 93.3204 203.956 97.0207 202.882 100.591C200.375 108.843 196.815 116.738 192.291 124.081C185.657 135.156 177.433 144.971 169.403 154.631C163.099 162.118 156.969 169.489 150.374 176.569C148.939 178.12 147.562 179.691 146.029 181.204C144.009 183.165 141.792 184.913 139.415 186.422C138.189 187.122 136.826 187.545 135.419 187.664C134.935 187.707 134.448 187.707 133.964 187.664C133.363 187.664 133.499 186.829 134.158 185.452C135.104 183.377 136.295 181.423 137.708 179.633C139.066 177.946 140.249 176.122 141.684 174.512L145.874 169.527L154.312 159.577C159.917 152.749 165.504 145.805 170.741 138.648C174.62 133.372 178.267 127.882 181.758 122.432C185.272 117.106 188.279 111.463 190.739 105.576L190.953 105.654Z" fill="#25A6EF"/>
<path d="M107.042 213.578C107.042 213.287 107.042 212.88 106.828 212.705V212.181L106.693 211.134L106.479 209C106.363 207.584 106.266 206.149 106.227 204.713C106.132 201.718 106.294 198.72 106.712 195.752C106.915 193.352 107.464 190.993 108.341 188.75C109.364 186.562 110.792 184.587 112.55 182.931C113.443 182.039 114.44 181.258 115.518 180.603C116.497 180.087 117.508 179.634 118.544 179.245C122.745 177.557 127.436 177.557 131.637 179.245C135.203 180.682 138.261 183.147 140.424 186.325C141.773 188.248 142.632 190.473 142.926 192.804C142.926 193.366 142.926 193.948 142.926 194.511C142.883 195.064 142.812 195.614 142.713 196.159C142.561 197.239 142.275 198.294 141.859 199.302C141.374 200.563 140.657 200.213 139.59 199.127C139.047 198.584 138.465 197.866 137.747 197.187C137.026 196.49 136.346 195.752 135.71 194.976C134.987 193.86 134.176 192.803 133.286 191.815C132.465 191.106 131.543 190.524 130.551 190.088C129.597 189.781 128.616 189.566 127.622 189.448C127.37 189.477 127.117 189.477 126.865 189.448C126.603 189.345 126.33 189.274 126.051 189.235C125.459 189.1 124.854 189.028 124.247 189.021C123.855 188.994 123.461 189.033 123.083 189.138C122.678 189.186 122.284 189.304 121.919 189.487C121.589 189.661 121.046 189.855 120.872 189.991C120.624 190.143 120.395 190.326 120.193 190.534C119.195 191.735 118.425 193.11 117.923 194.588C116.355 199.137 115.651 203.94 115.848 208.748V211.114V212.569C115.848 213.403 115.984 214.276 116.119 215.168L116.41 216.953L116.585 217.903V218.02L116.721 217.884L116.973 217.593L120.154 214.14L121.589 212.511L123.626 210.319C125.114 208.659 126.765 207.151 128.553 205.819C129.332 205.228 130.163 204.709 131.036 204.267C132.447 203.483 134.103 203.261 135.672 203.647C136.746 203.982 137.473 204.984 137.456 206.11C137.534 206.631 137.534 207.16 137.456 207.681C137.195 208.392 136.807 209.049 136.312 209.621C136.018 210.135 135.622 210.584 135.148 210.94C132.884 212.482 130.761 214.221 128.805 216.138L127.059 217.806L126.613 218.233C126.458 218.369 126.38 218.485 125.954 218.854L124.014 220.793C122.792 222.093 121.57 223.315 120.367 224.673L116.818 229.095L112.55 234.1C111.755 230.783 110.94 227.447 110.126 224.13C108.424 220.828 107.303 217.259 106.809 213.578H107.042Z" fill="#25A6EF"/>
<path d="M175.649 119.309C173.583 118.09 171.634 116.681 169.83 115.1C169.209 114.499 168.472 114.072 167.89 113.451C165.913 111.187 164.279 108.645 163.041 105.906C162.769 105.305 162.536 104.703 162.245 104.121C161.912 103.569 161.651 102.975 161.469 102.356C161.211 101.567 160.997 100.764 160.829 99.951C160.742 99.1158 160.782 98.2723 160.946 97.4488C161.062 96.9251 162.013 96.9057 163.118 97.1384C164.176 97.2534 165.173 97.6939 165.97 98.3992C167.463 100.492 168.627 102.801 169.422 105.246C170.22 106.7 171.366 107.933 172.758 108.835C174.155 110.055 175.669 111.134 177.278 112.055C178.283 112.632 179.334 113.125 180.42 113.529C182.064 114.147 183.789 114.526 185.541 114.654C186.872 114.646 188.189 114.382 189.42 113.878C189.681 113.781 189.958 113.742 190.235 113.762C191.224 113.762 191.67 114.246 192.311 115.701C192.446 116.031 192.621 116.361 192.737 116.69C193.186 117.756 192.905 118.989 192.039 119.755C190.799 121.013 189.16 121.802 187.403 121.986C185.735 122.277 184.028 122.277 182.36 121.986C179.973 121.416 177.671 120.535 175.513 119.367L175.649 119.309Z" fill="#25A6EF"/>
<g filter="url(#filter1_f_122_3956)">
<circle cx="437.795" cy="59.2399" r="12.8359" fill="#25A6EF"/>
</g>
<g filter="url(#filter2_f_122_3956)">
<circle cx="61.2749" cy="435.76" r="12.8359" fill="#25A6EF"/>
</g>
<rect x="58.0658" y="56.031" width="6.41795" height="6.41795" fill="#25A6EF"/>
<rect x="246.326" y="56.031" width="6.41795" height="6.41795" fill="#25A6EF"/>
<rect x="245.821" y="244.284" width="6.41795" height="6.41795" fill="#25A6EF"/>
<rect x="58.0658" y="244.291" width="6.41795" height="6.41795" fill="#25A6EF"/>
<path d="M342.595 58.7053H436.725V152.835" stroke="url(#paint10_linear_122_3956)"/>
<path d="M154.335 435.225H60.2054V341.095" stroke="url(#paint11_linear_122_3956)"/>
<defs>
<filter id="filter0_b_122_3956" x="36.2054" y="34.1704" width="237.329" height="237.33" filterUnits="userSpaceOnUse" color-interpolation-filters="sRGB">
<feFlood flood-opacity="0" result="BackgroundImageFix"/>
<feGaussianBlur in="BackgroundImageFix" stdDeviation="12"/>
<feComposite in2="SourceAlpha" operator="in" result="effect1_backgroundBlur_122_3956"/>
<feBlend mode="normal" in="SourceGraphic" in2="effect1_backgroundBlur_122_3956" result="shape"/>
</filter>
<filter id="filter1_f_122_3956" x="384.959" y="6.40405" width="105.672" height="105.672" filterUnits="userSpaceOnUse" color-interpolation-filters="sRGB">
<feFlood flood-opacity="0" result="BackgroundImageFix"/>
<feBlend mode="normal" in="SourceGraphic" in2="BackgroundImageFix" result="shape"/>
<feGaussianBlur stdDeviation="20" result="effect1_foregroundBlur_122_3956"/>
</filter>
<filter id="filter2_f_122_3956" x="8.43896" y="382.924" width="105.672" height="105.672" filterUnits="userSpaceOnUse" color-interpolation-filters="sRGB">
<feFlood flood-opacity="0" result="BackgroundImageFix"/>
<feBlend mode="normal" in="SourceGraphic" in2="BackgroundImageFix" result="shape"/>
<feGaussianBlur stdDeviation="20" result="effect1_foregroundBlur_122_3956"/>
</filter>
<linearGradient id="paint0_linear_122_3956" x1="60.7379" y1="0.398407" x2="60.7407" y2="494.58" gradientUnits="userSpaceOnUse">
<stop stop-color="white" stop-opacity="0"/>
<stop offset="0.510417" stop-color="white" stop-opacity="0.54"/>
<stop offset="1" stop-color="white" stop-opacity="0"/>
</linearGradient>
<linearGradient id="paint1_linear_122_3956" x1="498" y1="59.247" x2="3.81792" y2="59.2499" gradientUnits="userSpaceOnUse">
<stop stop-color="white" stop-opacity="0"/>
<stop offset="0.510417" stop-color="white" stop-opacity="0.54"/>
<stop offset="1" stop-color="white" stop-opacity="0"/>
</linearGradient>
<linearGradient id="paint2_linear_122_3956" x1="155.402" y1="0.408905" x2="155.405" y2="494.591" gradientUnits="userSpaceOnUse">
<stop stop-color="white" stop-opacity="0"/>
<stop offset="0.510417" stop-color="white" stop-opacity="0.54"/>
<stop offset="1" stop-color="white" stop-opacity="0"/>
</linearGradient>
<linearGradient id="paint3_linear_122_3956" x1="497.04" y1="153.372" x2="2.85845" y2="153.375" gradientUnits="userSpaceOnUse">
<stop stop-color="white" stop-opacity="0"/>
<stop offset="0.510417" stop-color="white" stop-opacity="0.54"/>
<stop offset="1" stop-color="white" stop-opacity="0"/>
</linearGradient>
<linearGradient id="paint4_linear_122_3956" x1="249.533" y1="0.408905" x2="249.535" y2="494.591" gradientUnits="userSpaceOnUse">
<stop stop-color="white" stop-opacity="0"/>
<stop offset="0.510417" stop-color="white" stop-opacity="0.54"/>
<stop offset="1" stop-color="white" stop-opacity="0"/>
</linearGradient>
<linearGradient id="paint5_linear_122_3956" x1="496.091" y1="247.497" x2="1.90923" y2="247.5" gradientUnits="userSpaceOnUse">
<stop stop-color="white" stop-opacity="0"/>
<stop offset="0.510417" stop-color="white" stop-opacity="0.54"/>
<stop offset="1" stop-color="white" stop-opacity="0"/>
</linearGradient>
<linearGradient id="paint6_linear_122_3956" x1="343.127" y1="0.408905" x2="343.13" y2="494.591" gradientUnits="userSpaceOnUse">
<stop stop-color="white" stop-opacity="0"/>
<stop offset="0.510417" stop-color="white" stop-opacity="0.54"/>
<stop offset="1" stop-color="white" stop-opacity="0"/>
</linearGradient>
<linearGradient id="paint7_linear_122_3956" x1="495.142" y1="341.622" x2="0.959646" y2="341.625" gradientUnits="userSpaceOnUse">
<stop stop-color="white" stop-opacity="0"/>
<stop offset="0.510417" stop-color="white" stop-opacity="0.54"/>
<stop offset="1" stop-color="white" stop-opacity="0"/>
</linearGradient>
<linearGradient id="paint8_linear_122_3956" x1="437.258" y1="0.408905" x2="437.261" y2="494.591" gradientUnits="userSpaceOnUse">
<stop stop-color="white" stop-opacity="0"/>
<stop offset="0.510417" stop-color="white" stop-opacity="0.54"/>
<stop offset="1" stop-color="white" stop-opacity="0"/>
</linearGradient>
<linearGradient id="paint9_linear_122_3956" x1="494.192" y1="435.748" x2="0.0104273" y2="435.75" gradientUnits="userSpaceOnUse">
<stop stop-color="white" stop-opacity="0"/>
<stop offset="0.510417" stop-color="white" stop-opacity="0.54"/>
<stop offset="1" stop-color="white" stop-opacity="0"/>
</linearGradient>
<linearGradient id="paint10_linear_122_3956" x1="437.26" y1="58.7053" x2="342.595" y2="153.37" gradientUnits="userSpaceOnUse">
<stop stop-color="#24EE75"/>
<stop offset="0.510963" stop-color="#24EE75" stop-opacity="0"/>
</linearGradient>
<linearGradient id="paint11_linear_122_3956" x1="59.6706" y1="435.225" x2="154.335" y2="340.56" gradientUnits="userSpaceOnUse">
<stop stop-color="#24EE75"/>
<stop offset="0.510963" stop-color="#24EE75" stop-opacity="0"/>
</linearGradient>
<clipPath id="clip0_122_3956">
<rect width="75.9457" height="75.9457" fill="white" transform="translate(66.6233 351.257)"/>
</clipPath>
</defs>
</svg>
