<svg width="64" height="64" viewBox="0 0 64 64" fill="none" xmlns="http://www.w3.org/2000/svg">
<path d="M51.3598 48.702C49.5253 50.4803 47.4118 51.9462 45.1035 53.0415C42.8491 54.0952 40.4722 54.8635 38.0276 55.3289C36.2871 55.6984 34.5183 55.9201 32.7404 55.9916C26.4863 56.1355 20.329 54.43 15.0401 51.0891C12.6967 49.6023 10.6021 47.7554 8.83365 45.6165C7.68609 44.2395 6.72753 42.7154 5.98337 41.0846C5.33009 39.4184 4.99649 37.644 5.00003 35.8543C5.00003 34.7498 5.76248 34.8567 6.7102 35.5622C7.9135 36.4917 8.94966 37.6195 9.77425 38.897C10.984 41.5458 12.7739 43.8886 15.0116 45.7519C17.3512 47.7228 19.9994 49.2949 22.8499 50.405C26.3629 51.8301 30.4602 52.0012 34.308 51.6591C38.5652 51.3795 42.6607 49.9214 46.1367 47.4478C48.2453 45.8894 50.0231 43.9275 51.367 41.676C53.4482 38.1664 54.7122 34.233 55.0652 30.168C55.2825 27.0306 55.0716 23.8782 54.4381 20.7977C54.3099 20.1208 54.1317 19.4652 54.0035 18.7883C53.6899 16.2515 53.7683 15.4107 54.8229 14.5699C55.0159 14.3792 55.2206 14.2007 55.4357 14.0354C56.0343 13.6079 57.2955 14.4416 58.0224 16.394C58.6032 17.8459 59.0168 19.3592 59.2551 20.9046C59.5279 22.4805 59.6921 24.0733 59.7468 25.6717C59.86 28.9737 59.5171 32.2755 58.7278 35.4838C57.564 40.4988 55.042 45.0966 51.4382 48.7732L51.3598 48.702Z" fill="white"/>
<path d="M18.781 16.2657C19.0447 18.5745 20.4769 21.4889 22.693 22.5078C23.6479 22.9496 25.0659 22.6717 25.3081 21.4461C25.6362 19.2859 25.1948 17.079 24.0611 15.2111C23.6064 14.3163 22.9322 13.5514 22.1016 12.9879C21.4942 12.67 20.7734 12.6531 20.1518 12.9422C19.5302 13.2314 19.0788 13.7936 18.9306 14.4629C18.2893 16.6648 21.7239 17.6054 22.3652 15.4035L22.4436 15.1185L21.6242 16.1873L21.2037 16.3085L19.9639 15.7883C21.1681 16.7503 22.1942 18.9307 21.8878 20.4984L24.5029 19.4295C23.3699 18.73 22.5915 17.5779 22.3652 16.2657C22.3356 15.2944 21.5551 14.514 20.5838 14.4843C19.6032 14.4921 18.8101 15.2851 18.8024 16.2657H18.781Z" fill="white"/>
<path d="M29.5693 11.4987C29.8401 13.8573 31.3222 17.0069 33.5882 18.0686C34.5431 18.5104 35.9682 18.2254 36.2034 16.9998C36.5208 14.7493 36.05 12.4583 34.8708 10.5154C34.4152 9.605 33.733 8.82713 32.8899 8.25652C32.2895 7.93818 31.5757 7.91493 30.9559 8.19351C30.336 8.4721 29.8795 9.02131 29.719 9.68166C29.0777 11.8906 32.5194 12.8312 33.1536 10.6294L33.2391 10.3444L32.4196 11.4132L31.9921 11.5343L30.7308 11.0142C31.9849 12.0189 33.0823 14.4203 32.7688 16.0449L35.3839 14.9832C34.3008 14.4773 33.2462 12.6602 33.1322 11.4916C32.8756 9.23987 29.3057 9.21137 29.5693 11.4916V11.4987Z" fill="white"/>
</svg>
