<svg width="64" height="64" viewBox="0 0 64 64" fill="none" xmlns="http://www.w3.org/2000/svg">
<path d="M46.5039 3.34552C47.9426 2.78089 49.4434 2.38928 50.9745 2.17893L51.8827 2.06149C52.2136 2.03435 52.5462 2.03435 52.8771 2.06149L53.5739 2.21025C53.8423 2.28861 54.1041 2.3881 54.3569 2.50777C54.8896 2.79627 55.3418 3.21346 55.6722 3.72134C55.9381 4.14565 56.1387 4.60753 56.2672 5.09149C56.4725 5.86112 56.6114 6.64695 56.6822 7.44033L56.9641 9.86747C57.0521 10.3846 57.0914 10.9089 57.0815 11.4334C57.0012 11.9674 56.8674 12.492 56.6822 12.9993C56.5491 13.3203 56.2594 13.2655 55.8523 12.9993C55.3161 12.6904 54.8539 12.2682 54.4978 11.7622C54.0555 9.96155 53.7544 8.1291 53.5974 6.28157C53.4408 5.63956 53.4173 5.55343 53.1824 5.39684C53.112 5.39684 52.9867 5.34987 52.8144 5.39684C52.6346 5.3844 52.4541 5.3844 52.2742 5.39684C51.0609 5.44411 49.8631 5.68736 48.7275 6.11715C47.9715 6.35244 47.2292 6.62951 46.5039 6.94708C45.3739 7.4852 44.2921 8.11909 43.2703 8.84181C42.4874 9.44468 41.8297 10.1415 41.125 10.7992C40.9685 10.9401 40.8354 11.0967 40.6709 11.2376C40.4776 11.4704 40.1906 11.6051 39.888 11.6051C39.5854 11.6051 39.2984 11.4704 39.105 11.2376C38.9641 11.128 38.8154 11.0341 38.6823 10.9166C38.2317 10.5134 38.167 9.83157 38.5335 9.35073C39.0236 8.54978 39.5956 7.80195 40.2403 7.11933C40.9484 6.43168 41.737 5.83228 42.5892 5.33421C43.8377 4.55454 45.1468 3.87642 46.5039 3.30637V3.34552Z" fill="white"/>
<path d="M40.3342 36.0804C38.1569 38.608 35.656 40.8377 32.8962 42.712C31.9114 43.4313 30.8838 44.0901 29.8192 44.685C25.9452 46.4642 21.7352 47.3932 17.4722 47.4097C16.5483 47.4097 15.6322 47.4097 14.7162 47.347C14.2543 47.347 13.8001 47.2844 13.346 47.2531C12.8919 47.2218 12.4456 47.1043 11.9994 47.0339C9.72537 46.6467 7.51346 45.9568 5.42261 44.9826C4.77276 44.685 4.91369 44.5676 5.56354 44.4658C6.58702 44.3078 7.6206 44.2241 8.65618 44.2153C9.78362 44.2701 10.9111 44.2153 12.0072 44.2153L13.6201 44.09C14.1525 44.09 14.6849 44.09 15.186 44.09C17.308 44.0755 19.4247 43.8764 21.5122 43.4949C22.7973 43.2536 24.0433 42.8374 25.2155 42.2579C25.8184 41.9917 26.3743 41.6159 26.9537 41.3105C27.533 41.0052 28.0811 40.6372 28.6448 40.3005C31.1466 38.777 33.4168 36.9023 35.386 34.7338L36.3099 33.7081L37.1711 32.6355C37.7662 31.9308 38.2751 31.1557 38.8075 30.3962C40.4096 28.0648 41.7835 25.5844 42.9101 22.9896C43.7948 20.9774 44.155 18.793 44.891 16.726C45.0319 16.2719 45.1337 15.8099 45.3059 15.3558C45.3842 15.1444 45.4625 14.9565 45.5408 14.7843C45.6191 14.612 45.7444 14.4789 45.8383 14.3458C46.0053 14.1166 46.1999 13.9089 46.4177 13.7273C46.788 13.4339 47.245 13.2715 47.7174 13.2654C47.9406 13.2352 48.1655 13.2195 48.3907 13.2184C49.0719 13.2575 49.4399 14.1657 49.5495 15.6377C49.5865 16.1612 49.5576 16.6873 49.4634 17.2036C49.4007 17.7203 49.3303 18.2449 49.2442 18.7695C49.158 19.2941 49.0484 19.8108 48.9466 20.3354C48.8257 20.852 48.6687 21.3596 48.4769 21.8543C47.7582 23.9054 46.8867 25.8996 45.8697 27.8203C44.3267 30.7543 42.4904 33.5244 40.389 36.0883L40.3342 36.0804Z" fill="white"/>
<path d="M43.5521 3.54894C44.5721 2.80414 45.6362 2.12173 46.7387 1.50544C47.3356 1.17537 47.9498 0.877424 48.5786 0.612885C48.743 0.54242 48.9309 0.487613 49.1032 0.424978C49.2922 0.35253 49.4857 0.292379 49.6825 0.2449C50.176 0.0974784 50.6867 0.0158683 51.2015 0.00218615C51.8306 -0.0155269 52.4582 0.0745052 53.057 0.268388C53.4293 0.4354 53.7791 0.64846 54.0984 0.902575C54.4158 1.17307 54.6997 1.48061 54.9439 1.81862C55.1206 2.06854 55.2802 2.33012 55.4215 2.60157C55.5341 2.79422 55.636 2.99286 55.7269 3.19661C55.9148 3.59591 56.0714 3.97956 56.2123 4.37103C56.502 5.15398 56.7369 5.93693 56.9483 6.64941C57.3476 8.16833 57.7312 9.65592 57.9583 11.167C58.1619 12.5059 58.4515 13.8212 58.7412 15.1366C58.9397 15.9753 59.037 16.8349 59.0309 17.6968C59.0132 18.5836 58.9136 19.4668 58.7334 20.3353C58.6081 20.8912 58.3419 20.8129 57.8878 20.4058C57.2194 19.8293 56.6344 19.1626 56.1497 18.4249L55.8443 17.8456C55.7309 17.663 55.644 17.4653 55.586 17.2583L55.2493 16.0604L54.5838 13.6646C54.3724 12.8817 54.1219 12.0987 53.9731 11.261L53.5503 8.78685C53.3865 7.81359 53.0888 6.86769 52.6656 5.97607C52.4772 5.56353 52.2628 5.16342 52.0236 4.77816C51.8983 4.56677 51.8983 4.5746 51.8356 4.48064C51.7825 4.40929 51.725 4.34131 51.6634 4.27708C51.6287 4.23731 51.586 4.2053 51.5381 4.18312C51.3689 4.09798 51.1764 4.07048 50.9901 4.10483H50.8491C50.763 4.10483 50.6612 4.16747 50.5594 4.19878C50.3513 4.26467 50.1474 4.34311 49.9487 4.43367C49.0477 4.85402 48.1835 5.349 47.365 5.91344C46.2145 6.69365 45.1088 7.53796 44.0532 8.44236C42.3936 9.80572 40.8243 11.2755 39.3555 12.8425C38.228 14.0639 37.3746 15.4889 36.3724 16.7573C36.1532 17.0469 35.9653 17.3445 35.7226 17.6185C34.83 18.6285 34.3368 18.7694 33.3738 18.3545C33.1624 18.2605 32.9353 18.1822 32.7396 18.0726C32.0819 17.689 31.9566 16.8512 32.3716 15.8804C32.7004 15.1679 33.0527 14.4632 33.4364 13.7742C33.8328 13.0933 34.2776 12.4418 34.7674 11.8247C35.7392 10.5542 36.7987 9.35337 37.9383 8.23096C39.661 6.51353 41.4916 4.90784 43.419 3.42367L43.5521 3.54894Z" fill="white"/>
<path d="M26.2881 63.194C26.4055 63.3975 26.202 63.6402 25.9045 63.8908C25.7598 63.9811 25.5878 64.0172 25.419 63.9926C25.2781 63.8908 25.1293 63.7968 25.0041 63.6872C24.8788 63.5776 24.1272 62.4893 23.7905 62.1213C23.5733 61.7357 23.41 61.3221 23.3051 60.8921C23.0624 60.0387 22.8353 59.1618 22.6474 58.2927C22.6121 58.0959 22.6121 57.8944 22.6474 57.6977C22.7533 57.039 22.7533 56.3676 22.6474 55.709C22.6474 55.5994 22.6474 55.4819 22.5143 55.388C22.2756 54.6913 22.1797 53.9537 22.2324 53.2192C22.4282 52.6555 22.5378 52.0918 22.6787 51.528C22.6787 51.4497 22.6787 51.3715 22.7883 51.2932C22.9939 51.1988 23.1189 50.9863 23.1015 50.7608C23.1438 50.5082 23.2147 50.2613 23.3129 50.0248C23.4261 49.888 23.5519 49.7622 23.6887 49.649C23.861 49.563 24.0589 49.5435 24.2446 49.5942C24.3777 49.6881 24.5656 49.5942 24.7222 49.5942H24.9023C25.3763 50.0317 25.7944 50.5261 26.1472 51.0661C26.1472 51.0661 26.249 51.5985 26.3429 52.1387C26.4369 52.679 26.5465 53.2427 26.5856 53.3601C26.6248 53.4776 26.5856 53.6029 26.5152 53.7203C26.4447 53.8377 26.8362 55.3723 26.8362 55.4271C26.8362 55.7638 26.9614 56.077 26.6952 56.4136C26.6618 56.4746 26.6618 56.5484 26.6952 56.6094C26.717 57.1702 26.6803 57.7317 26.5856 58.2849C26.5791 58.5673 26.5922 58.8498 26.6248 59.1305C26.6248 59.1774 26.5856 59.2322 26.5778 59.2871C26.5474 59.3479 26.5314 59.4148 26.5308 59.4828C26.537 60.1554 26.6025 60.8261 26.7266 61.4871C26.7266 61.6359 26.4604 62.458 26.5073 62.6381C26.5543 62.8181 26.2255 63.1157 26.2881 63.194Z" fill="white"/>
<path d="M41.2348 55.8343C41.3601 56.0379 41.1565 56.2806 40.8512 56.5311C40.707 56.6228 40.5345 56.6589 40.3657 56.6329C40.2326 56.5311 40.0839 56.4372 39.9586 56.3276C39.8333 56.218 39.0817 55.1297 38.745 54.7617C38.5221 54.3779 38.356 53.9639 38.2518 53.5324C38.0169 52.679 37.782 51.8021 37.6019 50.9331C37.5666 50.7363 37.5666 50.5348 37.6019 50.338C37.7038 49.6764 37.7038 49.0031 37.6019 48.3415C37.6019 48.2397 37.6019 48.1223 37.4688 48.0283C37.2482 47.3361 37.1709 46.6061 37.2418 45.883C37.4375 45.3193 37.5471 44.7556 37.6881 44.1919C37.6881 44.1136 37.6881 44.0353 37.7977 43.9492C37.9989 43.8541 38.1226 43.6468 38.1109 43.4246C38.1532 43.172 38.2241 42.9251 38.3223 42.6886C38.4334 42.55 38.5594 42.4239 38.6981 42.3128C38.8682 42.2196 39.0689 42.1998 39.254 42.258C39.3871 42.352 39.575 42.258 39.7316 42.258H39.9038C40.3766 42.7024 40.7945 43.2019 41.1487 43.7456C41.1487 43.7456 41.2426 44.278 41.3444 44.8182C41.4462 45.3585 41.548 45.9222 41.5871 46.0396C41.6263 46.1571 41.5871 46.2824 41.5167 46.3998C41.4462 46.5172 41.8377 48.0518 41.8377 48.1066C41.8377 48.4433 41.9551 48.7565 41.6889 49.0931C41.6582 49.1548 41.6582 49.2272 41.6889 49.2889C41.7107 49.8497 41.674 50.4112 41.5793 50.9644C41.5635 51.2434 41.5635 51.5231 41.5793 51.8021C41.5793 51.8569 41.5793 51.9117 41.5323 51.9665C41.5081 52.029 41.4948 52.0953 41.4932 52.1623C41.5007 52.8344 41.5635 53.5048 41.6811 54.1666C41.6811 54.3154 41.4227 55.1375 41.4619 55.3176C41.501 55.4976 41.18 55.7638 41.2348 55.8343Z" fill="white"/>
<path d="M52.5951 41.1148C52.7203 41.3184 52.5089 41.5611 52.2114 41.8116C52.067 41.9026 51.8948 41.9387 51.726 41.9134C51.5929 41.8116 51.4441 41.7177 51.311 41.6081C51.1779 41.4985 50.4341 40.418 50.0975 40.0422C49.8864 39.6479 49.731 39.2264 49.6355 38.7895C49.4006 37.9361 49.1657 37.067 48.9857 36.1901C48.9503 35.9933 48.9503 35.7918 48.9857 35.595C49.0877 34.9361 49.0877 34.2653 48.9857 33.6064C48.9857 33.4967 48.9857 33.3793 48.8604 33.2854C48.6407 32.5929 48.5609 31.8637 48.6255 31.1401C48.8291 30.5764 48.9309 30.0205 49.0796 29.4567C49.0796 29.3706 49.0796 29.2923 49.1814 29.214C49.3884 29.1203 49.5162 28.9085 49.5024 28.6816C49.5419 28.4293 49.6102 28.1824 49.706 27.9457C49.8007 27.8128 49.9083 27.6896 50.027 27.5777C50.1957 27.4892 50.3922 27.4695 50.5751 27.5229C50.716 27.6168 50.8961 27.5229 51.0605 27.5229H51.2327C51.7055 27.9673 52.1235 28.4667 52.4776 29.0105L52.6733 30.0831C52.7751 30.6312 52.8769 31.1871 52.9161 31.3045C52.9317 31.43 52.9041 31.557 52.8378 31.6647C52.8378 31.7273 53.1666 33.3167 53.1666 33.3715C53.1666 33.7081 53.284 34.0213 53.0178 34.358C52.963 34.4285 53.0178 34.4911 53.0178 34.5616C53.0356 35.1073 52.9936 35.6534 52.8926 36.1901C52.877 36.4717 52.877 36.754 52.8926 37.0357C52.8831 37.0895 52.8673 37.1421 52.8456 37.1923C52.8345 37.257 52.8345 37.3232 52.8456 37.388C52.8492 38.0603 52.912 38.7311 53.0335 39.3923C53.0335 39.5411 52.7673 40.3632 52.8143 40.5433C52.8613 40.7234 52.5402 41.0365 52.5951 41.1148Z" fill="white"/>
</svg>
