<svg width="64" height="64" viewBox="0 0 64 64" fill="none" xmlns="http://www.w3.org/2000/svg">
<path d="M36.1312 34.2803L29.5834 33.9995C28.7852 33.9995 27.9944 34.0586 27.1963 33.9995C24.388 33.8566 21.5772 33.6891 18.764 33.4969C17.515 33.4083 16.266 33.4378 15.0245 33.4526C14.2263 33.4526 13.4282 33.5117 12.6226 33.4526C12.2124 33.4508 11.8027 33.4237 11.3958 33.3713C11.1889 33.3713 10.982 33.3122 10.7824 33.2678L10.4573 33.2013L10.0582 33.0757C9.38566 32.8392 9.87342 32.2406 10.3686 31.5976L10.7159 31.1247C10.8685 30.9657 11.0341 30.8199 11.2111 30.6886C11.5509 30.4146 11.9657 30.2498 12.4009 30.2156C15.5982 29.9586 18.811 29.9586 22.0083 30.2156C23.997 30.334 25.991 30.334 27.9797 30.2156L34.5644 30.2969C35.9168 30.2969 37.2693 30.3413 38.6217 30.3413C40.6688 30.3413 42.7233 30.393 44.7556 30.2748C46.3298 30.1861 47.8743 29.8831 49.4411 29.6835C49.781 29.6392 50.121 29.5579 50.4683 29.5357C51.769 29.4692 52.1829 29.7427 52.4563 30.8143C52.532 31.0569 52.5937 31.3036 52.6411 31.5533C52.7482 32.4054 52.165 33.1907 51.3182 33.3344C48.514 34.0755 45.6237 34.4408 42.7233 34.4207C40.5062 34.4207 38.3335 34.4207 36.1312 34.369V34.2803Z" fill="white"/>
<path d="M4.28637 36.2462L3.92425 35.9432C3.92425 35.9062 3.73949 35.8028 3.63603 35.7215L3.30346 35.4554L2.07667 34.4208L0 32.4032L1.01986 31.2503C1.32286 30.9252 1.61848 30.5926 1.89931 30.26C2.18014 29.9275 2.63834 29.6393 3.03002 29.3437C3.42171 29.048 3.69515 28.9076 4.02032 28.6933C4.16813 28.5972 4.36767 28.4568 4.47113 28.4051L4.7963 28.2203L6.11178 27.4813L8.72056 26.0771C9.45959 25.6633 10.1986 25.1755 10.9376 24.7025C11.8125 24.0167 12.7869 23.4684 13.8273 23.0767C14.1672 22.9658 14.4259 23.4831 14.4924 24.1335C14.6072 24.7977 14.4017 25.477 13.9381 25.9663C12.1952 27.3577 10.3187 28.5732 8.33626 29.5949C7.73017 29.9127 7.15814 30.2916 6.6291 30.7256L6.08222 31.1691C5.97996 31.256 5.87126 31.3351 5.75704 31.4055C5.53099 31.5305 5.32228 31.6845 5.13626 31.8637C5.09192 31.8637 5.09931 31.9007 5.13626 31.9155V31.9598C5.15427 31.9901 5.17669 32.0175 5.20277 32.0411L5.35797 32.2185C5.47621 32.3367 5.60185 32.4624 5.74965 32.5954C6.04265 32.8361 6.34857 33.0606 6.66605 33.2679C7.04296 33.5266 7.40508 33.7778 7.81155 34.0069C8.96569 34.7833 10.1761 35.4725 11.4328 36.0688C12.4191 36.4542 13.4535 36.7029 14.5072 36.8079C14.7289 36.8079 14.9654 36.8079 15.1649 36.8744C15.3317 36.8891 15.4896 36.9563 15.6157 37.0665C15.7249 37.1556 15.8026 37.2773 15.8374 37.4139C15.9092 37.8511 15.9217 38.2961 15.8744 38.7367C15.8744 38.9954 15.8744 39.2467 15.8226 39.4758C15.7855 39.864 15.6279 40.231 15.3718 40.5252C15.1099 40.8783 14.7198 41.1145 14.2855 41.1829C13.7056 41.2259 13.1226 41.1811 12.5561 41.0499C12.0171 40.9349 11.4882 40.7767 10.9746 40.5769C9.97736 40.1691 9.01786 39.6745 8.10716 39.0988C6.74734 38.2637 5.49099 37.2956 4.21986 36.3497L4.28637 36.2462Z" fill="white"/>
<path d="M57.711 32.13L58.1101 31.9452C58.2061 31.9009 58.184 31.9452 58.1987 31.9452C58.2552 31.9523 58.3123 31.9523 58.3687 31.9452C58.5154 31.9251 58.6563 31.8747 58.7826 31.7974C58.8077 31.754 58.8077 31.7004 58.7826 31.657C58.7308 31.5535 58.5609 31.4944 58.5017 31.3909L58.317 31.1544C58.2762 31.1021 58.2317 31.0527 58.184 31.0066L57.9475 30.7258C57.6075 30.3932 57.2528 30.0607 56.898 29.7355C56.159 29.0852 55.4643 28.4422 54.681 27.8362C54.0134 27.2961 53.3097 26.8023 52.5747 26.3581C51.6017 25.8481 50.7018 25.2092 49.8994 24.4588C49.6629 24.2002 50.0029 23.7198 50.5572 23.3946C51.1096 22.9975 51.8204 22.8928 52.4639 23.1138C54.509 24.1263 56.4042 25.417 58.0953 26.9494C58.619 27.4162 59.1746 27.8458 59.7581 28.2353L60.2311 28.5678L60.8814 29.0408C61.3027 29.3364 61.7609 29.7798 62.1895 30.1124C62.3783 30.2735 62.5493 30.4543 62.6994 30.6519L63.1502 31.1914L64.0001 32.3221C62.9919 33.1826 61.9332 33.9822 60.8297 34.7166C60.135 35.1748 59.832 35.3226 59.396 35.5812L58.1544 36.3203C56.898 37.0593 55.5974 37.6579 54.3558 38.4043C53.395 38.9808 52.5452 39.7641 51.5475 40.4293C51.3407 40.6004 51.1179 40.7514 50.8823 40.8801C50.6954 40.9884 50.4848 41.0493 50.2689 41.0574C50.0902 41.068 49.9124 41.0242 49.759 40.9318C49.4099 40.6376 49.1427 40.2584 48.983 39.8307C48.8796 39.5942 48.7687 39.3725 48.6948 39.1507C48.5781 38.7782 48.5453 38.3845 48.5987 37.9979C48.6244 37.7891 48.6614 37.5818 48.7096 37.3771C48.746 37.2074 48.8249 37.0498 48.9387 36.9189C49.5795 36.2663 50.3144 35.7133 51.1188 35.2782C51.9244 34.8052 52.7964 34.3914 53.6759 33.9628C54.984 33.3346 56.3512 32.7434 57.6592 32.0634L57.711 32.13Z" fill="white"/>
</svg>
