<svg width="51" height="56" viewBox="0 0 51 56" fill="none" xmlns="http://www.w3.org/2000/svg">
<path d="M23.7461 16.6303C27.3108 14.8662 30.0353 11.7666 31.3275 8.00497C31.4102 7.77758 32.7538 15.4158 37.281 16.8887C37.281 16.8887 31.8029 19.514 30.5058 24.713C30.5109 24.7853 30.1957 20.5838 23.7461 16.6303Z" fill="#25A6EF"/>
<g filter="url(#filter0_f_122_4013)">
<path d="M23.7461 16.6303C27.3108 14.8662 30.0353 11.7666 31.3275 8.00497C31.4102 7.77758 32.7538 15.4158 37.281 16.8887C37.281 16.8887 31.8029 19.514 30.5058 24.713C30.5109 24.7853 30.1957 20.5838 23.7461 16.6303Z" fill="#25A6EF"/>
</g>
<path d="M31.6482 41.3686C34.5832 39.9142 36.8237 37.3578 37.8807 34.2575C37.9479 34.0714 39.0487 40.3556 42.7903 41.5649C42.7903 41.5649 38.289 43.7252 37.2192 47.999C37.2037 48.0559 36.9453 44.6037 31.6482 41.3686Z" fill="#25A6EF"/>
<g filter="url(#filter1_f_122_4013)">
<path d="M31.6484 41.3686C34.5835 39.9142 36.824 37.3578 37.881 34.2575C37.9482 34.0714 39.0489 40.3556 42.7905 41.5649C42.7905 41.5649 38.2893 43.7252 37.2195 47.999C37.204 48.0559 36.9456 44.6037 31.6484 41.3686Z" fill="#25A6EF"/>
</g>
<path d="M8.00012 31.8186C10.8331 30.4124 12.998 27.9467 14.026 24.9556C14.088 24.7696 15.1577 30.8367 18.7701 32.0047C18.7701 32.0047 14.4187 34.0719 13.3903 38.2062C13.3645 38.2734 13.1164 34.9401 8.00012 31.8186Z" fill="#25A6EF"/>
<g filter="url(#filter2_f_122_4013)">
<path d="M8 31.8184C10.8329 30.4121 12.9979 27.9464 14.0258 24.9554C14.0878 24.7693 15.1576 30.8365 18.77 32.0044C18.77 32.0044 14.4186 34.0716 13.3902 38.206C13.3643 38.2732 13.1163 34.9398 8 31.8184Z" fill="#25A6EF"/>
</g>
<defs>
<filter id="filter0_f_122_4013" x="15.7461" y="0" width="29.5349" height="32.7139" filterUnits="userSpaceOnUse" color-interpolation-filters="sRGB">
<feFlood flood-opacity="0" result="BackgroundImageFix"/>
<feBlend mode="normal" in="SourceGraphic" in2="BackgroundImageFix" result="shape"/>
<feGaussianBlur stdDeviation="4" result="effect1_foregroundBlur_122_4013"/>
</filter>
<filter id="filter1_f_122_4013" x="23.6484" y="26.2534" width="27.1421" height="29.7463" filterUnits="userSpaceOnUse" color-interpolation-filters="sRGB">
<feFlood flood-opacity="0" result="BackgroundImageFix"/>
<feBlend mode="normal" in="SourceGraphic" in2="BackgroundImageFix" result="shape"/>
<feGaussianBlur stdDeviation="4" result="effect1_foregroundBlur_122_4013"/>
</filter>
<filter id="filter2_f_122_4013" x="0" y="16.9512" width="26.77" height="29.2559" filterUnits="userSpaceOnUse" color-interpolation-filters="sRGB">
<feFlood flood-opacity="0" result="BackgroundImageFix"/>
<feBlend mode="normal" in="SourceGraphic" in2="BackgroundImageFix" result="shape"/>
<feGaussianBlur stdDeviation="4" result="effect1_foregroundBlur_122_4013"/>
</filter>
</defs>
</svg>
