<svg width="251" height="251" viewBox="0 0 251 251" fill="none" xmlns="http://www.w3.org/2000/svg">
<g opacity="0.3">
<path d="M67.1174 85.4555C67.9758 88.091 68.8393 90.7214 69.6977 93.3569C70.1645 94.7475 70.6163 96.1531 71.2037 97.4984C74.3462 104.662 77.5992 111.78 80.5308 119.034C84.1402 127.965 87.4986 137.001 90.7867 146.057C91.2887 147.422 91.5246 148.898 91.7505 150.344C91.9614 151.729 91.3791 152.889 90.4002 153.828C88.9795 155.198 86.8912 155.093 85.7968 153.426C85.1041 152.372 84.6472 151.107 84.3109 149.882C82.7647 144.22 80.6363 138.783 77.9757 133.557C77.2427 132.111 76.3743 130.656 76.048 129.099C75.0088 124.14 72.7097 119.632 71.1736 114.853C70.039 111.298 68.5682 107.85 67.3082 104.336C65.0592 98.0657 62.8353 91.7857 60.5261 85.5308C59.6125 83.0358 59.1707 80.5057 59.6828 77.8753C59.9237 76.6604 61.485 76.0831 62.2882 77.0369C63.4277 78.3873 64.4267 79.8883 65.2901 81.4395C66.003 82.7095 66.4497 84.1352 67.007 85.4956C67.0421 85.4856 67.0772 85.4755 67.1174 85.4655V85.4555Z" fill="#1E7F9D"/>
<path d="M147.106 77.6443C146.684 79.9686 146.248 82.2879 145.871 84.6222C145.67 85.8571 145.46 87.102 145.404 88.347C145.254 91.6753 145.173 95.0085 145.098 98.3418C145.023 101.675 144.958 105.003 144.837 108.332C144.566 116.524 144.21 124.717 144.034 132.915C144.004 134.149 143.703 135.394 143.406 136.614C143.115 137.779 142.161 138.532 140.916 138.989C139.104 139.661 137.182 138.949 136.75 137.267C136.474 136.203 136.484 135.043 136.614 133.949C137.192 128.909 137.237 123.884 136.785 118.823C136.654 117.428 136.424 115.967 136.735 114.627C137.709 110.345 137.423 105.977 138.005 101.675C138.437 98.4824 138.557 95.2495 138.939 92.0467C139.601 86.334 140.404 80.6463 141.218 74.9637C141.544 72.6946 142.337 70.6063 144.019 68.8644C144.797 68.0612 146.443 68.3021 146.71 69.3513C147.091 70.8372 147.262 72.3733 147.322 73.8844C147.372 75.1293 147.111 76.3743 146.991 77.6192C147.026 77.6243 147.061 77.6343 147.101 77.6393L147.106 77.6443Z" fill="#1E7F9D"/>
<path d="M212.732 113.412C211.322 114.898 209.891 116.374 208.506 117.88C207.768 118.678 207.025 119.481 206.402 120.365C203.084 125.098 199.952 129.963 196.628 134.687C192.547 140.51 188.365 146.258 184.279 152.076C183.662 152.954 182.813 153.682 181.98 154.395C181.177 155.073 180.022 155.078 178.772 154.716C176.945 154.184 175.695 152.598 176.147 151.147C176.428 150.229 176.995 149.4 177.633 148.682C180.534 145.374 182.964 141.765 184.987 137.849C185.544 136.765 186.036 135.58 186.93 134.777C189.761 132.212 191.573 128.873 194.058 126.052C195.905 123.959 197.512 121.665 199.304 119.526C202.497 115.706 205.775 111.961 209.043 108.211C210.348 106.715 211.954 105.606 214.148 105.234C215.162 105.069 216.432 106.143 216.176 107.067C215.82 108.377 215.273 109.607 214.63 110.761C214.108 111.71 213.32 112.488 212.652 113.342C212.682 113.367 212.707 113.392 212.738 113.417L212.732 113.412Z" fill="#1E7F9D"/>
<path d="M227.527 173.461C226.452 173.767 225.373 174.058 224.309 174.38C223.746 174.555 223.174 174.721 222.672 175.017C219.997 176.609 217.396 178.345 214.67 179.826C211.312 181.654 207.863 183.3 204.419 184.967C203.902 185.218 203.255 185.223 202.617 185.223C202.005 185.223 201.272 184.525 200.524 183.516C199.435 182.04 198.867 180.173 199.359 179.42C199.671 178.943 200.147 178.707 200.649 178.576C202.959 177.989 204.997 176.87 206.799 175.268C207.296 174.826 207.763 174.264 208.435 174.214C210.574 174.038 212.145 172.688 214.073 172.086C215.509 171.639 216.804 170.896 218.194 170.354C220.674 169.39 223.189 168.491 225.679 167.542C226.673 167.166 227.818 167.236 229.273 168.175C229.946 168.612 230.659 170.113 230.403 170.66C230.037 171.433 229.56 172.05 229.028 172.547C228.591 172.959 227.998 173.1 227.476 173.356C227.491 173.391 227.506 173.421 227.522 173.461H227.527Z" fill="#1E7F9D"/>
<path d="M27.5448 159.008L30.858 161.217C31.4453 161.599 32.0226 162.005 32.6602 162.276C34.372 162.989 36.0788 163.722 37.7755 164.485C39.4723 165.253 41.1389 166.077 42.7654 166.985C44.7533 168.12 46.7061 169.325 48.6037 170.615C50.5012 171.905 52.3586 173.245 54.1759 174.641C54.7281 175.057 55.1146 175.705 55.471 176.353C55.8174 176.97 55.5614 177.974 54.9992 179.104C54.1709 180.745 52.6749 182.025 51.706 181.844C51.0886 181.734 50.6167 181.352 50.2201 180.926C48.4179 178.923 46.184 177.462 43.6389 176.528C42.9411 176.267 42.148 176.102 41.6911 175.514C40.2203 173.617 37.9964 172.874 36.1942 171.478C35.5216 170.956 34.8037 170.504 34.0708 170.083C33.3429 169.651 32.5999 169.244 31.877 168.797C29.3118 167.191 26.7115 165.605 24.0308 164.154C22.9665 163.567 22.1332 162.613 21.7417 160.841C21.5609 160.023 22.2085 158.486 22.8661 158.356C23.7999 158.17 24.7135 158.17 25.5619 158.311C26.2597 158.426 26.857 158.833 27.4946 159.114C27.5096 159.079 27.5297 159.049 27.5448 159.013V159.008Z" fill="#1E7F9D"/>
</g>
</svg>
