<svg width="498" height="498" viewBox="0 0 498 498" fill="none" xmlns="http://www.w3.org/2000/svg">
<path d="M57.4891 132.747L57.1006 125.735C56.9811 123.394 56.9612 121.044 56.8815 118.693C56.8417 116.343 56.7022 114.012 56.7421 111.642L56.7819 104.55C56.752 102.2 56.9413 99.7992 57.0409 97.4287C57.1803 95.0483 57.2002 92.6877 57.499 90.2675L57.8675 86.6619L58.0468 84.8592L58.1365 83.9628L58.1863 83.5146C58.2062 83.3453 58.1962 83.2656 58.256 82.9967C58.7042 79.3214 60.5269 75.6661 62.8276 73.1064C65.1383 70.4869 67.7479 68.7339 70.2777 67.3694C72.8275 66.0149 75.3573 65.0388 77.8473 64.232C80.3373 63.4551 82.7875 62.8476 85.2077 62.3396C86.4129 62.0807 87.628 61.8516 88.8033 61.6524L92.2694 61.1145L106.124 58.9433L119.998 57.26C139.619 55.0788 159.34 53.6246 178.941 52.5987C205.096 51.1247 231.271 50.5171 257.426 50.4972C283.591 50.4773 309.736 51.1745 335.881 52.4593C348.949 53.1067 362.016 53.9334 375.084 54.9692C381.617 55.4573 388.151 56.1345 394.685 56.7122L414.197 58.8735C417.493 59.262 421.198 59.6604 425.302 61.005C427.344 61.6823 429.505 62.6384 431.557 64.0527C433.609 65.4372 435.541 67.3495 436.945 69.4013C438.379 71.4729 439.395 73.7339 440.053 75.9151C440.71 78.1063 441.049 80.2278 441.228 82.2497C441.567 86.2735 441.308 89.9388 441.049 93.2654C440.023 106.333 438.768 119.39 437.304 132.418C433.708 164.509 428.778 196.461 422.553 228.154C421.776 232.118 420.989 236.072 420.163 240.026C419.356 243.98 418.509 247.934 417.653 251.878C416.816 255.833 415.91 259.767 415.023 263.701C414.127 267.585 413.29 271.649 411.866 276.051C410.442 280.394 408.37 285.135 404.784 289.338C401.169 293.571 396.478 296.449 391.956 298.282C387.404 300.135 382.932 301.111 378.689 301.838C376.548 302.216 374.546 302.435 372.484 302.724L366.339 303.531C350.084 305.374 333.999 306.36 317.873 307.266C301.758 308.172 285.663 308.68 269.557 309.158C237.347 309.935 205.136 310.065 172.856 309.198C153.374 308.571 133.713 307.097 114.41 304.388C113.255 304.218 112.13 304.059 111.024 303.899C110.466 303.81 109.909 303.73 109.361 303.641C108.654 303.501 107.946 303.382 107.279 303.192C104.58 302.495 102.239 301.409 100.217 300.174C96.1737 297.684 93.365 294.657 91.3033 291.708C90.8053 290.991 90.2973 290.195 89.8591 289.398C89.4308 288.611 89.0623 287.834 88.7535 287.077C88.126 285.563 87.7276 284.119 87.4587 282.774C86.9209 280.085 86.8611 277.794 86.9607 275.822C87.13 272.954 87.7376 271.47 88.5643 271.181C89.4009 270.892 90.4766 271.848 91.7614 273.82C93.0662 275.753 94.5502 278.79 96.7414 281.679C98.7235 284.248 102.468 287.615 106.821 289.457C108.205 290.035 109.6 290.404 110.944 290.543C112.966 290.722 114.998 290.892 117.05 291.071C119.132 291.26 121.233 291.459 123.335 291.659C125.436 291.858 127.588 291.957 129.719 292.127C131.85 292.286 133.992 292.445 136.133 292.605L139.34 292.854L142.557 293.043C146.84 293.312 151.113 293.591 155.316 293.85C194.15 295.971 233.174 296.051 272.077 294.945C291.529 294.378 310.971 293.422 330.323 292.027C335.164 291.679 340.004 291.32 344.815 290.842L352.036 290.175C354.437 289.936 356.817 289.637 359.217 289.368C361.598 289.069 364.018 288.86 366.359 288.501L373.4 287.465C378.052 286.758 382.344 285.792 385.96 284.278C387.952 283.452 389.685 282.426 391.109 281.25C391.816 280.663 392.444 280.025 393.012 279.358C393.569 278.661 394.097 277.914 394.575 277.067C396.527 273.681 397.723 269.01 398.848 263.81C401.149 253.223 403.43 242.685 405.76 232.536C413.161 200.106 418.599 167.109 422.523 133.942C423.489 125.645 424.396 117.339 425.172 109.032C425.581 104.879 425.959 100.715 426.308 96.5522L426.836 90.3671C426.975 88.4049 427.055 86.5325 426.995 84.7994C426.945 83.0664 426.726 81.5126 426.368 80.1979C426.009 78.8732 425.471 77.8872 424.814 77.0505C424.186 76.2537 423.37 75.6561 422.204 75.0785C421.049 74.5107 419.515 74.0625 417.792 73.7239C416.069 73.3753 414.147 73.1263 412.085 72.8773L405.8 72.1004L393.43 70.5765C344.218 65.1085 294.188 63.3356 244.468 63.1265C233.373 63.0269 222.297 63.236 211.202 63.3655C200.126 63.6942 189.041 63.9033 177.985 64.5209C155.874 65.5965 133.773 67.1802 111.92 70.1682C110.556 70.3475 109.181 70.4969 107.817 70.6861L103.743 71.3435L95.596 72.6482C90.0782 73.4749 84.889 74.4211 80.1879 76.0944C77.8573 76.9211 75.686 77.9469 73.9629 79.172C72.2398 80.417 71.1143 81.8015 70.5865 83.2656C70.3873 83.6142 70.3873 84.0425 70.2777 84.4209C70.2578 84.5405 70.2179 84.5803 70.208 84.7596L70.1582 85.2576L70.0586 86.2635L69.6701 90.2774C69.3514 92.9367 69.2817 95.6658 69.1622 98.3849C68.7339 109.251 69.0028 120.267 69.7399 131.263L69.9889 135.386L70.3275 139.51L71.0148 147.767L71.8613 156.013L72.2896 160.137L72.7876 164.26C74.8593 181.8 77.2099 198.821 79.4409 215.166C81.6919 231.51 83.8333 247.167 85.6659 262.008C87.4189 275.643 83.9827 275.583 79.7098 260.155C76.7318 249.229 74.0127 237.954 71.4629 226.52C68.9929 215.066 66.6323 203.453 64.6702 191.79C61.3735 172.617 59.0926 152.737 57.7281 132.906C57.6484 132.856 57.5787 132.807 57.4891 132.747Z" fill="url(#paint0_linear_122_4112)"/>
<path d="M363.63 269.597L347.923 270.105L343.999 270.235L340.074 270.285L332.226 270.394C329.457 270.444 326.678 270.494 323.899 270.543C321.12 270.563 318.352 270.623 315.593 270.753L304.527 271.281L293.471 271.669C286.101 271.968 278.731 272.117 271.36 272.286C256.619 272.605 241.909 272.695 227.198 272.615C209.13 272.426 191.053 272.227 172.975 272.037C154.938 271.888 136.91 271.729 118.932 272.047C116.223 272.087 113.494 271.988 110.765 271.818C108.046 271.689 105.327 271.49 102.648 271.29C97.4985 270.902 94.1121 269.129 91.9508 266.729C88.8034 263.243 91.6819 259.328 99.0224 258.203C103.654 257.506 108.753 257.287 113.564 257.446C135.745 257.944 157.776 257.914 179.828 256.888C185.913 256.599 192.248 256.111 198.144 256.699C216.999 258.552 235.972 257.864 254.817 258.601C258.313 258.741 261.829 258.84 265.334 258.91C268.84 258.97 272.346 258.97 275.862 258.99L286.39 259.01C289.896 259 293.402 258.99 296.908 258.97C321.897 259 346.867 258.462 371.757 256.619C374.237 256.43 376.687 256.311 379.108 256.261C380.313 256.231 381.518 256.241 382.713 256.241C383.898 256.221 385.084 256.231 386.249 256.261C390.93 256.37 395.462 256.848 399.814 257.805C403.818 258.691 404.037 261.988 399.645 263.273C396.548 264.179 393.35 265.006 390.103 265.763C386.856 266.5 383.57 267.227 380.263 267.715C374.835 268.581 369.187 268.85 363.65 269.368C363.64 269.438 363.63 269.508 363.62 269.597H363.63Z" fill="url(#paint1_linear_122_4112)"/>
<path d="M205.794 328.411C206.511 327.624 207.258 326.837 207.925 326.021C208.274 325.592 208.652 325.164 208.742 324.636C209.23 321.838 209.379 318.929 210.046 316.21C210.853 312.854 212.019 309.617 213.104 306.34C213.264 305.842 213.961 305.513 214.648 305.184C215.315 304.876 217.208 305.115 219.618 305.633C223.124 306.39 226.71 307.784 227.357 308.73C227.775 309.328 227.636 309.806 227.287 310.194C225.704 311.967 225.235 314.069 225.773 316.509C225.923 317.186 226.281 317.953 225.634 318.352C223.562 319.616 223.941 321.708 222.755 323.262C221.869 324.417 221.59 325.782 220.883 326.997C219.628 329.158 218.224 331.27 216.909 333.391C216.381 334.238 214.997 334.716 211.949 334.447C210.535 334.317 207.447 333.152 206.909 332.495C206.132 331.558 205.724 330.732 205.545 329.995C205.395 329.387 205.833 328.989 206.013 328.491C205.943 328.461 205.873 328.441 205.804 328.411H205.794Z" fill="#25A6EF"/>
<path d="M273.322 333.899C273.352 332.833 273.412 331.758 273.402 330.702C273.392 330.144 273.402 329.586 273.143 329.118C271.739 326.668 270.036 324.317 268.88 321.758C267.456 318.61 266.44 315.314 265.414 312.027C265.255 311.529 265.623 310.862 265.992 310.194C266.36 309.557 268.034 308.66 270.304 307.704C273.611 306.31 277.336 305.384 278.412 305.742C279.099 305.971 279.239 306.419 279.179 306.907C278.89 309.168 279.727 311.041 281.589 312.565C282.107 312.983 282.844 313.342 282.555 314.029C281.639 316.2 283.193 317.525 283.193 319.387C283.193 320.772 283.81 321.947 284.009 323.272C284.368 325.622 284.607 328.033 284.966 330.393C285.105 331.339 284.368 332.564 281.888 334.367C280.743 335.194 277.655 336.369 276.808 336.24C275.613 336.06 274.757 335.712 274.139 335.273C273.631 334.915 273.701 334.317 273.512 333.829C273.442 333.859 273.372 333.879 273.302 333.909L273.322 333.899Z" fill="#25A6EF"/>
<path d="M293.78 346.21C289.577 345.741 285.374 345.233 281.161 344.825C278.93 344.606 276.689 344.367 274.448 344.427C262.526 344.755 250.604 345.473 238.681 345.662C224 345.911 209.329 345.831 194.648 345.891C192.437 345.891 190.196 345.363 188.005 344.815C185.903 344.287 184.529 342.425 183.662 339.975C182.397 336.409 183.593 332.564 186.561 331.638C188.443 331.04 190.505 331.021 192.457 331.22C201.451 332.126 210.395 331.897 219.349 330.612C221.819 330.254 224.399 329.676 226.799 330.174C234.478 331.748 242.217 330.752 249.906 331.419C255.623 331.927 261.37 331.778 267.097 332.106C277.316 332.684 287.515 333.431 297.714 334.128C301.788 334.407 305.603 335.612 308.959 338.63C310.503 340.034 310.324 343.331 308.491 344.028C305.892 345.034 303.182 345.652 300.493 346.02C298.282 346.329 296.021 346.02 293.78 345.971C293.78 346.05 293.76 346.12 293.76 346.19L293.78 346.21Z" fill="#25A6EF"/>
<path d="M226.759 362.355C250.086 362.285 273.402 362.444 296.768 362.913C302.963 363.042 309.168 363.171 315.373 363.351C321.589 363.5 327.794 363.65 333.989 363.809L340.194 363.928L346.409 364.138C350.552 364.297 354.686 364.367 358.839 364.616L365.064 364.934L368.171 365.094L369.725 365.173C370.612 365.263 371.986 365.512 372.554 365.701C375.502 366.508 378.171 367.982 380.392 369.815C382.623 371.647 384.446 373.859 385.85 376.179C390.193 383.34 394.316 390.611 398.181 398.111C400.113 401.856 401.966 405.661 403.719 409.565C404.595 411.517 405.442 413.489 406.239 415.501C407.065 417.563 407.762 419.396 408.529 421.477C409.276 423.529 409.984 425.651 410.601 427.902C411.209 430.162 411.746 432.533 411.976 435.272C412.075 436.646 412.115 438.111 411.906 439.784L411.727 441.049C411.647 441.477 411.497 441.975 411.378 442.423C411.229 442.901 411.139 443.32 410.91 443.828C410.691 444.326 410.452 444.824 410.203 445.312C409.984 445.79 409.635 446.278 409.266 446.766C408.908 447.244 408.519 447.722 408.141 448.14C407.474 448.808 406.766 449.435 406.019 449.963C404.535 451.039 402.972 451.786 401.557 452.304C400.123 452.831 398.818 453.16 397.653 453.429C396.488 453.698 395.512 453.867 394.446 454.086C392.364 454.515 390.273 454.893 388.181 455.252C386.089 455.63 383.988 455.919 381.896 456.248C379.795 456.527 377.703 456.835 375.602 457.074C358.809 459.096 342.046 459.594 325.503 459.754C284.946 459.983 244.448 460.68 203.752 460.511C183.413 460.411 163.055 460.082 142.677 459.355L127.398 458.728L119.759 458.339L115.885 458.14C113.972 458.021 112.04 457.662 110.168 457.035C108.285 456.407 106.462 455.511 104.789 454.355C103.096 453.23 101.692 451.756 100.357 450.242C97.7475 447.075 96.373 443.28 95.7356 439.854C95.118 436.397 95.0782 433.111 95.3969 430.093C95.7156 427.065 96.2335 424.167 96.9606 421.428C98.6638 414.774 101.263 408.729 104.152 402.972C107.07 397.225 110.327 391.787 113.753 386.568C115.944 383.241 118.046 380.532 120.128 378.241L119.819 378.749C122.13 375.432 125.038 373.301 127.747 372.225C130.456 371.13 132.936 371.03 134.819 371.438C136.761 371.867 137.637 372.763 137.797 373.56C137.966 374.396 137.448 375.173 136.641 376.05C135.008 377.773 132.239 379.954 130.396 384.496L130.058 385.054C129.729 385.671 129.251 386.528 128.773 387.364C123.853 396.109 118.484 405.78 114.52 415.073C112.229 420.402 110.437 425.89 109.739 431.049C109.421 433.599 109.45 436.039 109.899 438.001C110.337 440.003 111.203 441.298 112.419 442.383C113.036 442.891 113.743 443.3 114.54 443.589C114.938 443.728 115.357 443.847 115.795 443.927C116.014 443.967 116.233 443.997 116.462 444.027L116.801 444.057L117.379 444.087L126.582 444.575C132.717 444.873 138.852 445.122 144.998 445.312C169.569 446.069 194.16 445.959 218.771 445.312C232.357 444.963 246.5 444.286 259.737 444.684C280.872 445.312 302.147 445.272 323.361 445.232C344.487 445.132 365.422 444.525 385.801 441.507C387.693 441.218 389.585 440.939 391.458 440.591L394.257 440.093C395.123 439.923 395.88 439.754 396.478 439.575C397.085 439.395 397.534 439.196 397.852 439.017C398.012 438.927 398.141 438.838 398.251 438.748C398.31 438.708 398.36 438.658 398.41 438.618L398.43 438.599C398.271 438.429 399.894 440.023 399.197 439.346L399.177 439.326L399.107 439.256C399.107 439.256 399.008 439.166 398.958 439.136C398.908 439.107 398.868 439.077 398.818 439.047L398.749 439.017C398.749 439.017 398.639 438.937 398.579 438.907L398.39 438.788L398.29 438.738C398.29 438.738 398.31 438.738 398.32 438.738C398.32 438.708 398.32 438.678 398.33 438.648C398.34 438.589 398.36 438.539 398.39 438.479C398.43 438.33 398.44 438.071 398.5 437.881C398.51 437.613 398.52 437.314 398.539 437.035C398.539 435.77 398.29 434.156 397.922 432.523C397.543 430.87 397.045 429.156 396.468 427.404C395.89 425.651 395.233 423.878 394.546 422.015L393.54 419.386L392.464 416.756C389.516 409.744 386.05 402.812 382.394 395.97C380.562 392.553 378.669 389.157 376.737 385.781L375.273 383.261L374.904 382.633L374.635 382.195C374.446 381.916 374.267 381.627 374.058 381.368C373.261 380.303 372.325 379.406 371.329 378.749C370.881 378.46 370.422 378.211 369.954 378.022C369.725 377.912 369.486 377.843 369.247 377.763L368.889 377.653H368.879L368.998 376.508C369.058 375.87 369.098 375.243 369.118 374.606V374.127C368.63 381.109 368.968 376.06 368.849 377.623H368.769L368.61 377.604L367.962 377.564L366.658 377.474L364.048 377.295C360.572 377.066 357.096 376.797 353.61 376.608C346.628 376.259 339.646 375.861 332.644 375.651C318.65 375.094 304.627 374.865 290.593 374.655C262.526 374.357 234.429 374.526 206.331 374.994C183.911 375.372 162.756 374.974 143.842 372.763C135.147 371.737 135.576 368.42 145.595 367.285C159.778 365.681 174.669 364.476 189.509 363.62C201.71 362.913 214.26 362.853 226.65 362.604C226.68 362.524 226.71 362.454 226.759 362.375V362.355Z" fill="url(#paint2_linear_122_4112)"/>
<path opacity="0.8" d="M156.741 382.584C158.095 383.191 159.26 384.088 160.187 385.203C160.426 385.502 160.655 385.811 160.874 386.129C161.083 386.438 161.342 386.807 161.611 387.305C161.79 387.633 161.97 388.062 162.079 388.579C162.189 389.087 162.199 389.735 162.079 390.303C161.87 391.508 161.013 392.544 160.356 393.032C159.669 393.559 159.081 393.818 158.563 394.018C158.055 394.207 157.527 394.346 157.159 394.426C155.934 394.735 154.709 395.024 153.464 395.253C152.687 395.392 151.97 395.512 151.143 395.631C150.665 395.691 150.087 395.751 149.35 395.721C148.623 395.681 147.667 395.561 146.611 395.024C146.083 394.755 145.575 394.376 145.127 393.908C144.659 393.43 144.301 392.862 144.042 392.295C143.534 391.129 143.484 390.024 143.603 389.068C143.743 388.111 144.042 387.245 144.55 386.438C144.669 386.239 144.818 386.04 144.968 385.84C145.097 385.681 145.227 385.522 145.366 385.382C145.635 385.083 145.924 384.834 146.203 384.605C146.89 384.058 147.677 383.938 148.334 383.928C148.962 383.928 149.619 384.665 150.286 385.711C151.263 387.235 151.751 389.107 151.502 389.725C151.342 390.113 151.133 390.233 150.954 390.233H150.695L150.615 390.223H150.585L150.028 389.785H150.037L150.087 389.834C150.356 390.024 150.376 389.944 150.047 389.904C149.729 389.854 149.231 389.984 149.181 390.054C149.181 390.054 149.161 390.073 149.171 390.054L149.261 389.964C149.261 389.964 149.271 389.954 149.3 389.904C149.37 389.795 149.49 389.536 149.589 389.087C149.649 388.828 149.699 388.53 149.739 388.151C149.769 387.862 149.739 387.982 149.769 387.922C149.779 387.902 149.779 387.882 149.798 387.862C149.858 387.803 149.968 387.783 150.147 387.892C150.277 387.982 150.476 388.032 150.685 388.062C150.884 388.101 151.093 388.121 151.292 388.121C151.691 388.141 152.089 388.101 152.478 388.062C153.265 387.972 154.041 387.813 154.848 387.862C155.147 387.882 155.446 387.882 155.745 387.862L156.492 387.813C156.641 387.803 156.76 387.773 156.78 387.773C156.751 387.693 156.87 387.972 156.95 388.121C157.049 388.301 157.109 388.44 157.209 388.579C157.368 388.848 157.547 389.058 157.667 389.167C158.095 389.595 158.115 389.018 156.84 389.665C156.701 389.735 156.492 389.854 156.372 389.934C156.372 389.934 156.372 389.914 156.372 389.904C156.372 389.874 156.332 389.805 156.312 389.755C156.262 389.635 156.203 389.526 156.113 389.416C155.804 388.958 155.257 388.54 154.629 388.321C154.111 388.161 153.723 387.574 152.627 386.358C152.129 385.801 151.472 384.267 151.95 383.739C152.597 383.002 153.514 382.544 154.45 382.374C155.227 382.235 156.004 382.484 156.741 382.703L156.78 382.594L156.741 382.584Z" fill="#1E7F9D"/>
<path opacity="0.8" d="M190.077 383.38C190.704 383.739 191.342 384.157 191.959 384.685C192.577 385.223 193.164 385.87 193.642 386.597C193.901 386.986 194.1 387.404 194.31 387.823C194.559 388.36 194.738 388.898 194.867 389.536C194.947 389.964 194.997 390.452 194.927 391.03C194.857 391.607 194.648 392.295 194.23 392.912C193.822 393.54 193.174 394.048 192.686 394.297C192.188 394.565 191.82 394.675 191.581 394.765C190.834 395.044 190.126 395.283 189.389 395.512C187.915 395.97 186.411 396.328 184.877 396.538C184.409 396.607 183.931 396.657 183.463 396.697L182.746 396.757C182.517 396.777 182.278 396.787 181.959 396.796C181.362 396.806 180.684 396.796 179.858 396.637C179.051 396.478 178.015 396.159 176.999 395.372C176.013 394.635 175.166 393.35 174.898 392.095C174.609 390.84 174.738 389.715 175.037 388.759C175.336 387.793 175.804 386.956 176.461 386.199C176.82 385.801 177.149 385.502 177.477 385.253C177.806 384.994 178.145 384.775 178.473 384.586C179.28 384.117 180.127 384.107 180.834 384.167C181.511 384.237 182.079 385.054 182.607 386.179C183.383 387.823 183.553 389.755 183.125 390.352C182.866 390.731 182.577 390.84 182.348 390.83C182.208 390.83 182.089 390.83 182.009 390.83H181.899L181.85 390.85H181.83C182.059 391.089 181.521 390.522 181.571 390.581L181.591 390.611C181.72 390.741 181.84 390.81 181.79 390.791C181.79 390.791 181.69 390.751 181.621 390.731C181.302 390.621 180.714 390.651 180.575 390.751C180.555 390.751 180.535 390.771 180.555 390.751L180.664 390.661C180.654 390.671 180.674 390.651 180.684 390.641C180.744 390.581 180.893 390.372 181.053 389.984L181.182 389.615L181.312 389.157C181.362 388.928 181.362 388.948 181.372 388.928C181.372 388.908 181.391 388.888 181.411 388.878C181.471 388.828 181.591 388.819 181.75 388.948C181.979 389.147 182.457 389.237 182.856 389.287C183.274 389.326 183.682 389.317 184.091 389.287C184.917 389.217 185.724 389.068 186.561 389.077C187.188 389.097 187.806 389.008 188.413 388.898L189.33 388.719L189.788 388.629C189.867 388.609 189.937 388.599 189.967 388.599C189.987 388.619 189.977 388.56 190.007 388.639C190.116 388.978 190.216 389.237 190.286 389.426C190.545 390.103 190.694 390.293 190.784 390.402C190.814 390.442 190.834 390.432 190.744 390.392C190.595 390.303 190.057 390.253 189.668 390.342C189.479 390.382 189.32 390.432 189.29 390.442C189.27 390.442 189.26 390.452 189.31 390.442H189.34V390.422C188.931 390.641 189.23 390.482 189.13 390.532V390.522V390.482C189.091 390.372 189.061 390.263 189.001 390.143C188.792 389.685 188.124 389.137 187.218 388.749C186.501 388.43 185.804 387.733 185.226 386.149C184.967 385.422 185.196 383.789 185.714 383.49C186.431 383.062 187.208 382.852 188.025 382.843C188.702 382.833 189.34 383.141 190.037 383.42L190.087 383.321L190.077 383.38Z" fill="#1E7F9D"/>
<path opacity="0.8" d="M224.817 382.823C225.823 383.291 226.779 383.898 227.656 385.103C228.084 385.701 228.472 386.528 228.582 387.454C228.702 388.38 228.522 389.287 228.164 390.054C227.785 390.87 227.247 391.408 226.789 391.806C226.321 392.195 225.903 392.444 225.524 392.693C224.996 393.022 224.628 393.211 224.23 393.43C223.831 393.629 223.423 393.828 223.014 394.008C222.188 394.366 221.341 394.675 220.475 394.924C218.732 395.402 216.899 395.661 215.056 395.561C214.489 395.531 213.921 395.482 213.353 395.402C213.074 395.372 212.785 395.302 212.507 395.263C212.248 395.213 211.879 395.143 211.401 394.984C210.923 394.824 210.305 394.565 209.638 394.057C208.971 393.559 208.333 392.733 208.015 391.956C207.367 390.352 207.527 389.107 207.756 388.091C208.234 386.189 209.429 384.675 210.744 383.699C212.058 382.723 213.423 382.215 214.718 381.916C215.505 381.737 216.331 381.906 217.078 382.155C217.805 382.394 218.224 383.36 218.373 384.595C218.562 386.398 218.064 388.271 217.626 388.729C217.317 389.018 217.019 389.048 216.7 388.998C215.973 388.858 215.285 389.048 214.987 389.336C214.847 389.476 214.797 389.625 214.837 389.745C214.857 389.775 214.837 389.795 214.877 389.834L214.907 389.874V389.894H214.927C215.017 389.924 214.11 389.635 214.499 389.755C214.499 389.755 214.12 389.655 213.752 389.665C213.343 389.665 212.965 389.795 212.885 389.854C212.786 389.924 213.094 389.735 213.423 388.928C213.493 388.759 213.572 388.569 213.662 388.32L213.801 387.912L213.881 387.673C213.881 387.713 213.911 387.763 213.971 387.803C214.12 387.892 214.299 387.982 214.479 388.052C214.837 388.181 215.206 388.251 215.574 388.291C216.321 388.36 217.078 388.31 217.845 388.4C219.001 388.54 220.126 388.181 221.242 387.912C221.491 387.842 221.74 387.783 221.989 387.703L222.596 387.514C222.666 387.494 222.716 387.474 222.755 387.474C222.775 387.474 222.785 387.474 222.795 387.474C222.795 387.474 222.795 387.474 222.805 387.484L222.885 387.573L223.054 387.743C223.273 387.952 223.453 388.081 223.592 388.161C223.741 388.241 223.791 388.251 223.801 388.251C223.741 388.251 223.911 388.251 223.871 388.251C223.871 388.251 223.821 388.251 223.811 388.271C223.751 388.291 223.732 388.301 223.662 388.33C223.532 388.39 223.403 388.49 223.243 388.629C223.174 388.699 223.094 388.769 223.024 388.848C223.024 388.858 223.024 388.838 223.024 388.828C223.024 388.779 222.945 388.699 222.845 388.629C222.736 388.56 222.716 388.52 222.457 388.46C222.098 388.37 221.6 388.201 221.072 387.822C220.554 387.454 220.006 386.826 219.867 385.98C219.748 385.183 220.724 383.809 220.853 383.46C221.092 382.992 221.361 382.693 222.078 382.504C222.367 382.434 222.716 382.434 223.144 382.494L223.473 382.544L223.911 382.633C224.2 382.703 224.488 382.783 224.757 382.882L224.807 382.783L224.817 382.823Z" fill="#1E7F9D"/>
<path opacity="0.8" d="M256.918 381.986L257.864 382.285C258.243 382.414 258.651 382.564 259.02 382.743C259.767 383.101 260.474 383.54 261.151 384.147C261.868 384.785 262.575 385.641 263.113 386.767C263.392 387.344 263.562 388.002 263.611 388.669C263.721 389.974 262.974 391.159 261.828 391.647L261.43 391.816C258.781 392.952 255.942 393.798 253.004 393.988C252.008 394.047 251.002 394.057 250.006 393.998C249.508 393.968 249.01 393.928 248.512 393.868L247.765 393.769C247.546 393.739 247.217 393.689 246.829 393.609C246.45 393.52 245.982 393.39 245.434 393.151C244.886 392.902 244.229 392.504 243.641 391.856C243.054 391.229 242.596 390.372 242.396 389.466C242.187 388.559 242.257 387.673 242.446 386.986C242.835 385.591 243.512 384.715 244.279 383.988C244.667 383.629 245.116 383.311 245.624 383.032C245.912 382.882 246.092 382.803 246.291 382.723C246.48 382.653 246.669 382.574 246.839 382.524C247.695 382.245 248.343 382.424 248.761 382.603C249.159 382.783 249.508 383.649 250.185 384.695C250.663 385.462 251.131 386.269 251.281 387.026C251.45 387.793 251.261 388.51 250.823 388.878C250.275 389.336 249.747 389.446 249.418 389.416C249.229 389.406 249.1 389.386 249.02 389.376H248.97V389.366C249.06 389.565 248.153 387.633 248.542 388.45V388.47L248.572 388.52L248.621 388.609C248.681 388.719 248.741 388.789 248.771 388.828C248.841 388.908 248.791 388.828 248.602 388.699C248.422 388.569 248.104 388.42 247.845 388.37C247.247 388.241 247.406 388.579 247.765 388.012C247.874 387.852 247.994 387.613 248.123 387.285C248.203 387.105 248.263 386.926 248.343 386.687L248.392 386.518L248.422 386.418C248.422 386.418 248.422 386.398 248.432 386.388C248.492 386.338 248.612 386.299 248.88 386.249C249.408 386.149 249.936 385.92 250.394 386.199C251.898 387.115 253.532 386.567 255.115 386.667C256.331 386.757 257.486 386.408 258.671 386.209L259.508 386.05L258.193 388.878C258.263 388.878 258.283 388.858 258.143 388.908C258.074 388.938 258.004 388.968 257.904 389.038C257.854 389.067 257.805 389.107 257.755 389.137C257.785 389.067 257.655 388.878 257.456 388.709C257.237 388.54 256.998 388.39 256.679 388.271C256.301 388.141 255.842 388.032 255.315 387.922C254.837 387.822 254.309 387.593 253.85 387.155C253.392 386.727 253.004 386.069 252.924 385.233C252.854 384.446 253.751 383.042 254.03 382.763C254.478 382.374 254.817 382.105 255.335 381.966C255.753 381.846 256.261 382.026 256.898 382.105L256.918 381.996V381.986Z" fill="#1E7F9D"/>
<path opacity="0.8" d="M291.27 383.659C291.539 383.799 291.808 383.948 292.067 384.107L292.455 384.346L292.645 384.466L292.944 384.645C293.352 384.894 293.74 385.183 294.139 385.552C294.537 385.93 294.965 386.368 295.374 387.125C295.583 387.524 295.782 388.032 295.862 388.619C295.941 389.207 295.892 389.864 295.712 390.392C295.553 390.94 295.244 391.478 294.916 391.876C294.577 392.275 294.228 392.563 293.93 392.773C293.123 393.32 292.495 393.5 292.157 393.649C291.778 393.799 291.39 393.938 291.001 394.067C290.224 394.326 289.438 394.555 288.631 394.735C287.027 395.103 285.364 395.283 283.691 395.233C282.665 395.203 281.639 395.093 280.623 394.904C280.364 394.864 280.115 394.804 279.866 394.755L279.438 394.655C279.239 394.605 278.97 394.526 278.621 394.386C278.282 394.247 277.834 394.038 277.346 393.639C276.858 393.261 276.34 392.633 276.031 391.936C275.713 391.239 275.613 390.522 275.623 389.994C275.623 389.446 275.703 389.028 275.792 388.699C275.982 387.992 276.141 387.723 276.3 387.354C276.47 386.996 276.669 386.667 276.878 386.338C277.306 385.701 277.804 385.123 278.352 384.625C279.458 383.639 280.733 382.922 282.147 382.514C282.993 382.255 283.96 382.404 284.816 382.693C285.653 382.972 286.031 384.018 286.001 385.263C285.981 386.169 285.713 387.056 285.474 387.783C285.225 388.51 285.035 389.068 284.906 389.287C284.736 389.566 284.617 389.566 284.418 389.506C283.98 389.336 283.402 389.506 283.103 389.854C282.944 390.024 282.864 390.233 282.854 390.422C282.854 390.472 282.854 390.522 282.864 390.562V390.631L282.884 390.651L282.466 390.482L281.948 390.293C280.822 389.904 280.334 389.994 280.245 390.034C280.215 390.044 280.304 390.024 280.464 389.775C280.543 389.655 280.633 389.476 280.743 389.217C280.852 388.948 280.972 388.609 281.151 387.992L281.32 387.404L281.43 387.016C281.43 387.016 281.44 387.006 281.48 387.016C281.539 387.016 281.599 387.026 281.649 387.046C281.758 387.076 281.868 387.125 281.968 387.215C283.282 388.291 284.886 387.902 286.39 388.121C287.545 388.291 288.671 388.022 289.806 387.862C290.065 387.832 290.314 387.783 290.573 387.743C290.663 387.733 290.722 387.723 290.732 387.743C290.732 387.753 290.732 387.723 290.752 387.773L290.842 387.972L291.021 388.321C291.141 388.54 291.23 388.699 291.33 388.838C291.519 389.117 291.669 389.247 291.748 389.297C291.858 389.356 291.718 389.297 291.828 389.326C291.878 389.326 291.788 389.326 291.629 389.386C291.479 389.446 291.26 389.585 291.021 389.775C290.922 389.874 290.782 389.984 290.683 390.103L290.513 390.293C290.513 390.273 290.493 390.233 290.463 390.193C290.434 390.153 290.394 390.113 290.344 390.073C290.274 390.024 290.135 389.944 290.025 389.884C289.567 389.635 289.089 389.396 288.601 389.197C287.814 388.868 287.187 388.171 286.579 386.607C286.3 385.88 286.47 384.247 287.007 383.938C287.764 383.51 288.581 383.311 289.368 383.291C290.025 383.271 290.613 383.58 291.21 383.779L291.25 383.679L291.27 383.659Z" fill="#1E7F9D"/>
<path opacity="0.8" d="M322.575 383.689C322.694 383.779 323.242 384.008 323.581 384.227C323.949 384.446 324.308 384.695 324.676 385.004C325.045 385.313 325.423 385.671 325.822 386.199C326.2 386.727 326.668 387.504 326.788 388.599C326.847 389.177 326.768 389.785 326.598 390.303C326.439 390.781 326.18 391.269 325.851 391.657C325.204 392.434 324.586 392.743 324.198 392.982L323.571 393.32L323.053 393.589C322.704 393.769 322.355 393.938 321.997 394.107C321.28 394.436 320.553 394.735 319.806 394.984C319.059 395.243 318.292 395.462 317.515 395.621C317.126 395.701 316.728 395.781 316.34 395.83L315.742 395.91C315.553 395.93 315.354 395.95 315.065 395.97C313.76 396.01 312.505 395.91 310.961 395.273C310.204 394.934 309.318 394.426 308.531 393.48C307.724 392.544 307.206 391.199 307.176 389.944C307.117 388.619 307.585 387.344 308.172 386.468C308.77 385.582 309.447 384.984 310.135 384.516C310.822 384.058 311.559 383.719 312.326 383.48C312.973 383.291 313.561 383.181 314.029 383.111C314.607 383.022 315.085 383.241 315.453 383.45C315.802 383.659 316.17 384.516 316.758 385.611C317.176 386.408 317.565 387.255 317.674 388.022C317.804 388.789 317.624 389.476 317.216 389.815C316.688 390.243 316.111 390.332 315.662 390.293C315.144 390.243 314.756 390.223 314.477 390.253C314.318 390.273 314.318 390.253 314.238 390.283C314.178 390.303 314.128 390.342 314.089 390.372C314.069 390.392 314.059 390.402 314.059 390.422C314.059 390.422 314.059 390.432 314.059 390.442C314.079 390.462 313.969 390.362 313.929 390.323C313.7 390.123 313.451 389.954 313.262 389.864C313.073 389.775 312.923 389.755 312.933 389.765C312.923 389.765 312.963 389.765 312.963 389.765L313.133 389.745H313.083C313.083 389.745 313.013 389.765 312.973 389.775H312.943C312.893 389.805 312.983 389.765 313.003 389.745C313.103 389.685 313.142 389.645 313.272 389.526C313.461 389.326 313.74 388.948 313.959 388.52C314.009 388.43 314.049 388.34 314.089 388.251C314.109 388.201 314.079 388.271 314.089 388.281C314.089 388.321 314.079 388.36 314.099 388.4C314.128 388.47 314.188 388.54 314.268 388.589C314.427 388.689 314.656 388.729 314.876 388.739H315.045L315.314 388.719L315.852 388.679C316.21 388.649 316.569 388.629 316.937 388.649C318.043 388.709 319.089 388.331 320.154 388.082L320.871 387.892C321.091 387.833 321.419 387.723 321.449 387.743C321.379 387.603 321.658 388.111 321.798 388.301C321.927 388.51 322.067 388.689 322.166 388.809C322.375 389.058 322.505 389.147 322.555 389.177H322.575C322.604 389.197 322.286 389.038 322.415 389.107H322.425L322.445 389.127C322.475 389.137 322.505 389.157 322.545 389.167C322.614 389.187 322.604 389.187 322.644 389.187C322.624 389.187 322.585 389.187 322.405 389.247C322.266 389.307 322.027 389.436 321.818 389.625C321.708 389.715 321.579 389.825 321.479 389.944L321.34 390.093C321.34 390.034 321.25 389.934 321.15 389.844C321.1 389.805 321.041 389.755 320.981 389.715L320.901 389.655L320.702 389.566L319.915 389.207C319.079 388.828 318.431 388.032 318.152 386.388C318.023 385.631 318.551 384.068 319.049 383.839C319.756 383.51 320.443 383.38 321.081 383.36C321.608 383.35 322.047 383.629 322.535 383.789L322.575 383.679V383.689Z" fill="#1E7F9D"/>
<path opacity="0.8" d="M357.126 384.735C358.331 385.233 359.158 385.92 359.855 386.807C360.203 387.245 360.512 387.763 360.761 388.38C361 388.988 361.189 389.755 361.13 390.641C361.08 391.577 360.681 392.524 360.144 393.201C359.586 393.898 358.938 394.316 358.44 394.605C357.763 394.984 357.225 395.163 356.857 395.302C356.458 395.452 356.05 395.591 355.642 395.711C354.815 395.95 353.978 396.159 353.132 396.298C351.429 396.577 349.666 396.627 347.933 396.388C346.867 396.239 345.811 395.99 344.775 395.651C344.516 395.571 344.257 395.482 344.008 395.382C343.72 395.263 343.6 395.243 343.062 394.984C342.624 394.765 342.206 394.506 341.747 394.137C341.309 393.759 340.791 393.281 340.313 392.354C340.084 391.906 339.875 391.279 339.825 390.601C339.765 389.904 339.885 389.157 340.114 388.569C340.343 387.942 340.742 387.364 341.11 386.976C341.489 386.577 341.847 386.319 342.136 386.139C342.743 385.771 343.042 385.671 343.261 385.572L343.998 385.273C344.994 384.894 346.01 384.585 347.046 384.346C347.674 384.207 348.361 384.346 349.008 384.546C349.636 384.725 350.114 385.631 350.433 386.836C350.891 388.599 350.731 390.522 350.233 391.04C349.905 391.368 349.526 391.438 349.128 391.408C348.221 391.348 347.325 391.508 346.518 391.876C346.319 391.966 346.12 392.075 345.931 392.185C345.891 392.205 345.881 392.225 345.881 392.235L345.582 391.657L345.303 391.179C345.004 390.681 344.805 390.462 344.676 390.342C344.606 390.283 344.566 390.263 344.546 390.243H344.536C344.536 390.243 344.457 390.203 344.616 390.273H344.596C344.596 390.273 344.536 390.253 344.526 390.243C344.467 390.233 344.526 390.253 344.656 390.213C344.915 390.153 345.443 389.755 345.801 389.307C346 389.067 346.15 388.848 346.229 388.719C346.259 388.679 346.279 388.629 346.259 388.659L346.229 388.729L346.2 388.789V388.818H346.18C346.917 387.066 346.389 388.33 346.548 387.942H346.558C346.797 387.962 346.996 388.042 347.166 388.231C347.694 388.838 348.401 389.097 349.118 389.237C349.835 389.376 350.572 389.396 351.299 389.565C352.405 389.814 353.52 389.605 354.626 389.486C354.875 389.466 355.124 389.416 355.373 389.386L355.622 389.356C355.622 389.356 355.672 389.356 355.682 389.356H355.691L355.841 389.655C356.219 390.372 356.528 390.561 356.508 390.542C356.687 390.641 356.608 390.542 356.329 390.601C356.269 390.611 356.189 390.631 356.11 390.661C356.04 390.691 355.95 390.721 355.861 390.761L355.622 390.89L355.512 390.97L355.462 391C355.462 391 355.462 390.89 355.433 390.82C355.403 390.751 355.353 390.691 355.343 390.661C355.233 390.591 355.034 390.512 354.805 390.452C354.437 390.342 353.968 390.133 353.5 389.725C353.042 389.316 352.584 388.679 352.474 387.832C352.385 387.046 353.321 385.661 353.52 385.332C353.859 384.904 354.178 384.615 354.855 384.486C355.393 384.376 356.14 384.585 357.096 384.864L357.136 384.765L357.126 384.735Z" fill="#1E7F9D"/>
<path opacity="0.8" d="M140.396 402.753C141.133 403.031 141.9 403.4 142.617 403.918C142.976 404.177 143.324 404.456 143.643 404.774C143.972 405.083 144.36 405.511 144.669 405.99C144.998 406.507 145.316 407.125 145.496 407.972C145.675 408.798 145.595 409.844 145.257 410.691C144.789 411.866 144.022 412.523 143.464 412.942C142.896 413.36 142.348 413.639 141.99 413.818C141.223 414.217 140.426 414.555 139.619 414.844C137.986 415.422 136.263 415.77 134.52 415.83C133.444 415.87 132.358 415.81 131.293 415.641C130.755 415.561 130.227 415.461 129.689 415.332C129.42 415.272 129.161 415.193 128.902 415.123L128.474 414.993C128.265 414.924 128.026 414.834 127.727 414.705C127.438 414.565 127.09 414.386 126.681 414.077C126.283 413.768 125.805 413.3 125.436 412.643C125.058 411.975 124.849 411.199 124.849 410.412C124.849 409.625 125.048 408.948 125.267 408.46C125.735 407.474 126.203 407.045 126.562 406.677L126.831 406.438L127 406.298L127.339 406.029C128.245 405.322 129.221 404.715 130.257 404.217C130.874 403.908 131.641 403.898 132.349 403.948C133.046 403.998 133.683 404.804 134.201 405.94C134.928 407.603 135.058 409.525 134.739 410.113C134.51 410.491 134.201 410.611 133.843 410.641C133.036 410.731 132.269 411.079 131.681 411.607L131.462 411.816C131.462 411.816 131.462 411.826 131.452 411.836L131.293 411.667C131.094 411.458 130.894 411.268 130.735 411.119C130.068 410.501 129.52 410.352 129.49 410.392C129.48 410.392 129.51 410.392 129.49 410.392C129.5 410.392 129.52 410.382 129.58 410.332C129.689 410.252 129.859 410.063 130.048 409.725C130.257 409.356 130.436 408.958 130.755 408.061L130.825 407.852C130.825 407.852 130.855 407.832 130.884 407.832H131.044C131.522 407.782 132.03 407.593 132.398 407.912C133.016 408.42 133.753 408.559 134.47 408.569C135.197 408.579 135.914 408.48 136.651 408.519C137.757 408.589 138.842 408.161 139.838 407.882L140.018 407.842C140.018 407.842 140.048 407.842 140.068 407.842L140.117 407.912L140.297 408.151C140.765 408.758 141.143 408.978 141.233 409.007C141.372 409.047 141.243 408.968 140.894 409.097C140.725 409.157 140.526 409.256 140.346 409.376C140.257 409.436 140.157 409.505 140.077 409.565C140.018 409.615 140.028 409.605 140.028 409.605C140.028 409.605 139.968 409.446 139.868 409.346C139.779 409.236 139.659 409.147 139.52 409.047C139.241 408.858 138.842 408.699 138.394 408.579C137.677 408.39 136.85 407.832 135.974 406.388C135.576 405.721 135.516 404.067 135.954 403.679C136.582 403.131 137.319 402.772 138.155 402.613C138.842 402.484 139.589 402.693 140.386 402.882L140.416 402.772L140.396 402.753Z" fill="#1E7F9D"/>
<path opacity="0.8" d="M178.812 404.346C179.439 404.635 180.037 404.964 180.605 405.322C180.893 405.502 181.172 405.691 181.451 405.88C181.75 406.089 182.109 406.338 182.477 406.657C182.876 406.996 183.314 407.434 183.732 408.071C184.15 408.699 184.499 409.605 184.559 410.462C184.619 411.049 184.539 411.697 184.35 412.284C184.15 412.852 183.862 413.37 183.563 413.748C182.945 414.525 182.318 414.964 181.74 415.312C181.162 415.651 180.605 415.89 180.037 416.069C179.758 416.159 179.469 416.238 179.17 416.308L178.503 416.448C176.88 416.786 175.216 416.995 173.543 417.005C172.517 417.005 171.481 416.965 170.455 416.856C169.947 416.796 169.43 416.736 168.922 416.657C168.463 416.577 167.806 416.487 166.949 416.209C166.133 415.93 164.928 415.382 163.952 414.127C163.483 413.529 163.105 412.732 162.946 411.966C162.776 411.189 162.786 410.452 162.896 409.794C163.135 408.49 163.683 407.484 164.41 406.637C164.778 406.209 165.206 405.83 165.714 405.492C166.212 405.173 166.601 404.984 167.049 404.804C168.105 404.396 169.101 404.545 169.838 404.774C170.555 404.994 170.924 405.94 171.153 407.165C171.501 408.948 171.133 410.86 170.585 411.338C170.246 411.647 169.997 411.677 169.848 411.607C169.758 411.567 169.708 411.537 169.669 411.497C169.659 411.497 169.659 411.487 169.649 411.478L169.161 410.671V410.681V410.701L169.21 410.76C169.26 410.84 169.32 410.9 169.36 410.94C169.439 411.019 169.439 410.999 169.32 410.94C169.21 410.88 168.981 410.79 168.752 410.77C168.533 410.74 168.344 410.77 168.304 410.79C168.284 410.79 168.294 410.79 168.304 410.79L168.404 410.721C168.404 410.721 168.483 410.661 168.573 410.551C168.653 410.452 168.792 410.272 168.902 410.053C168.981 409.924 169.031 409.814 169.111 409.645L169.29 409.217C169.32 409.167 169.43 409.127 169.589 409.077C169.758 409.027 170.097 408.958 170.356 408.938C170.635 408.918 170.894 408.938 171.143 409.097C172.716 410.093 174.479 409.635 176.162 409.834C176.8 409.914 177.447 409.884 178.065 409.824C178.364 409.824 178.762 409.675 178.852 409.685C178.782 409.575 179.111 410.023 179.26 410.183L179.539 410.452C179.639 410.531 179.728 410.591 179.788 410.641C180.087 410.84 180.196 410.77 179.937 410.79C180.127 410.76 179.838 410.78 179.459 411.119C179.35 411.209 179.25 411.308 179.121 411.438L179.031 411.537C179.031 411.537 179.031 411.537 179.031 411.517C179.031 411.487 178.991 411.448 178.941 411.388C178.852 411.288 178.633 411.139 178.413 410.999C178.194 410.86 177.975 410.731 177.746 410.611C177.288 410.362 176.81 410.153 176.312 409.974C175.515 409.695 174.838 409.057 174.001 407.583C173.613 406.906 173.543 405.253 174.101 404.874C174.878 404.346 175.764 404.077 176.641 404.008C177.368 403.948 178.055 404.247 178.742 404.446L178.782 404.336L178.812 404.346Z" fill="#1E7F9D"/>
<path opacity="0.8" d="M215.335 404.605C215.933 404.834 216.5 405.113 217.038 405.432C217.307 405.591 217.566 405.76 217.825 405.94C218.114 406.129 218.492 406.398 218.791 406.657C219.439 407.254 220.066 407.902 220.684 409.117C221.102 409.904 221.281 411.228 220.913 412.304C220.564 413.44 219.767 414.256 219.18 414.695C218.572 415.153 218.064 415.382 217.666 415.571C217.317 415.73 216.998 415.89 216.65 416.029C215.295 416.597 213.861 417.015 212.397 417.214C210.594 417.463 208.742 417.434 206.929 417.165L206.252 417.045C205.893 416.985 205.465 416.866 205.076 416.726C204.668 416.577 204.24 416.378 203.742 416.049C203.254 415.72 202.656 415.242 202.118 414.346C201.859 413.898 201.64 413.34 201.541 412.752C201.441 412.155 201.461 411.607 201.57 411.049C201.8 409.904 202.417 409.067 202.885 408.599C203.363 408.111 203.762 407.852 204.07 407.663C204.339 407.503 204.568 407.374 204.827 407.235C205.435 406.916 206.192 406.916 206.879 406.986C207.556 407.055 208.154 407.902 208.572 409.067C209.17 410.78 209.21 412.703 209.04 413.23C208.901 413.569 208.702 413.639 208.453 413.639C208.313 413.639 208.164 413.649 208.034 413.679C207.975 413.679 207.875 413.728 207.855 413.718C207.855 413.718 207.855 413.718 207.835 413.699L207.566 413.31C207.407 413.081 207.258 412.902 207.138 412.752C206.102 411.527 205.973 412.195 206.361 411.886C206.57 411.746 206.939 411.328 207.168 410.87C207.407 410.432 207.566 409.904 207.556 409.924C207.556 409.924 207.556 409.884 207.556 409.954V409.993C207.556 409.993 207.596 409.784 207.576 409.884H207.596H207.666L207.955 409.844C208.144 409.814 208.343 409.764 208.532 409.715C208.961 409.585 209.379 409.336 209.748 409.595C210.993 410.432 212.287 409.804 213.572 409.834C214.07 409.844 214.548 409.744 215.016 409.615L215.584 409.446C215.584 409.446 215.624 409.446 215.634 409.446C215.634 409.446 215.634 409.446 215.684 409.525C215.744 409.635 215.793 409.734 215.863 409.834C216.092 410.213 216.291 410.462 216.441 410.631C216.58 410.78 216.69 410.85 216.74 410.88L216.779 410.9C216.69 410.87 216.809 410.91 216.809 410.9C216.869 410.9 216.66 410.88 216.341 411.039C216.182 411.109 215.993 411.228 215.823 411.358C215.664 411.468 215.375 411.746 215.465 411.647C215.465 411.607 215.435 411.527 215.385 411.458C215.355 411.418 215.345 411.398 215.285 411.348C215.206 411.298 215.136 411.238 215.056 411.189C214.907 411.089 214.738 410.989 214.578 410.9C214.24 410.72 213.881 410.571 213.503 410.462C212.895 410.282 212.377 409.725 211.471 408.36C211.052 407.733 210.704 406.119 211.152 405.671C211.769 405.043 212.546 404.665 213.353 404.505C214.02 404.366 214.678 404.585 215.325 404.725L215.355 404.615L215.335 404.605Z" fill="#1E7F9D"/>
<path opacity="0.8" d="M258.223 401.278C258.781 401.567 259.319 401.876 259.856 402.215C260.524 402.613 261.171 403.071 261.848 403.758C262.207 404.127 262.576 404.565 262.914 405.143C263.243 405.711 263.542 406.438 263.651 407.235C263.82 408.27 263.572 409.416 263.074 410.282C262.585 411.139 261.978 411.697 261.43 412.115C260.364 412.922 259.259 413.3 258.512 413.579C256.839 414.157 255.076 414.495 253.303 414.495C250.185 414.515 247.078 413.659 244.329 412.055L244.289 412.035C242.416 410.94 241.779 408.539 242.875 406.657C242.974 406.488 243.104 406.308 243.223 406.149C244.11 405.063 245.136 404.127 246.281 403.36C246.879 402.952 247.655 402.822 248.402 402.782C249.12 402.743 249.867 403.46 250.494 404.545C251.38 406.129 251.699 408.031 251.48 408.629C251.321 409.017 251.052 409.157 250.723 409.237C249.906 409.416 249.189 409.924 248.741 410.601L247.875 405.93C248.552 406.248 249.319 406.398 250.096 406.358C250.574 406.338 251.072 406.169 251.43 406.507C252.018 407.035 252.735 407.195 253.442 407.225C254.159 407.254 254.857 407.175 255.574 407.225C256.111 407.254 256.649 407.195 257.167 407.055C257.456 406.995 257.546 406.956 257.705 406.906L257.864 406.856H257.904C257.914 406.856 257.884 406.826 258.024 406.995C258.392 407.434 258.751 407.683 258.91 407.752C259.09 407.812 258.89 407.772 258.99 407.782C258.96 407.782 258.691 407.852 258.313 408.141C258.223 408.201 258.084 408.33 258.054 408.35C258.054 408.35 258.064 408.33 258.054 408.32C258.054 408.29 258.024 408.25 257.994 408.201C257.835 407.991 257.566 407.782 257.058 407.513C256.599 407.264 256.121 407.045 255.633 406.846C254.847 406.537 254.209 405.85 253.542 404.306C253.233 403.589 253.333 401.946 253.88 401.617C254.637 401.159 255.474 400.94 256.281 400.91C256.948 400.88 257.566 401.179 258.183 401.378L258.223 401.278Z" fill="#1E7F9D"/>
<path opacity="0.8" d="M302.047 402.245C302.664 402.523 303.252 402.842 303.82 403.201C304.129 403.39 304.328 403.529 304.716 403.788C305.075 404.037 305.463 404.326 305.901 404.764C306.35 405.213 306.888 405.9 307.176 406.866C307.326 407.344 307.376 407.852 307.366 408.34C307.346 408.848 307.246 409.356 307.077 409.804C306.599 411.029 305.882 411.637 305.334 412.085C304.756 412.533 304.248 412.802 303.73 413.041C302.894 413.43 302.226 413.718 301.419 414.017C299.846 414.585 298.123 415.033 296.18 415.043C294.985 415.043 293.72 414.904 292.445 414.505C291.818 414.306 291.181 414.047 290.583 413.728L290.135 413.479C289.975 413.39 289.746 413.24 289.567 413.111C289.189 412.832 288.82 412.523 288.442 412.095C288.073 411.677 287.685 411.149 287.376 410.392C287.067 409.655 286.878 408.599 287.067 407.583C287.236 406.567 287.764 405.651 288.242 405.113C288.72 404.555 289.149 404.247 289.477 404.007C290.573 403.27 291.629 402.753 292.804 402.354C293.501 402.115 294.308 402.195 295.045 402.354C295.762 402.504 296.28 403.41 296.589 404.615C297.007 406.388 296.778 408.3 296.41 408.808C296.151 409.137 295.862 409.197 295.533 409.177C295.155 409.157 294.786 409.207 294.437 409.316C294.258 409.376 294.089 409.446 293.93 409.525C293.79 409.595 293.571 409.744 293.521 409.784L293.511 409.794L293.352 409.605C293.173 409.386 293.003 409.197 292.864 409.057C292.595 408.768 292.376 408.609 292.236 408.519C292.107 408.43 291.987 408.41 292.047 408.42C291.997 408.42 292.037 408.42 292.127 408.41C292.296 408.39 292.724 408.211 293.093 407.912C293.471 407.613 293.82 407.215 293.93 407.055C293.949 407.035 293.979 406.986 293.959 407.005V407.015C293.86 407.185 294.099 406.796 294.069 406.836H294.089H294.159C294.248 406.816 294.328 406.816 294.398 406.816C294.557 406.816 294.667 406.866 294.766 407.025C295.065 407.553 295.653 407.733 296.27 407.762C296.898 407.792 297.585 407.683 298.332 407.713C298.89 407.733 299.467 407.633 300.035 407.484C300.324 407.414 300.613 407.324 300.902 407.244L301.34 407.125L301.589 407.075L301.748 407.045H301.788H301.798L301.967 407.274C302.435 407.852 302.874 408.151 303.063 408.211C303.123 408.24 303.172 408.231 303.063 408.231C303.153 408.231 303.103 408.221 302.993 408.27C302.884 408.32 302.704 408.44 302.495 408.639C302.386 408.738 302.276 408.858 302.147 409.007L302.007 409.177C302.007 409.177 302.007 409.177 302.007 409.157C302.007 409.057 301.439 408.709 301.041 408.489C300.613 408.26 300.155 408.061 299.676 407.892C298.91 407.633 298.272 407.015 297.425 405.551C297.037 404.884 296.918 403.231 297.455 402.842C298.202 402.304 299.069 402.006 299.935 401.926C300.653 401.856 301.33 402.135 302.007 402.324L302.047 402.215V402.245Z" fill="#1E7F9D"/>
<path opacity="0.8" d="M337.644 403.211C338.72 403.709 339.736 404.306 340.692 404.944L341.03 405.163L341.747 405.641C343.032 406.497 343.381 408.23 342.524 409.515C342.504 409.545 342.484 409.575 342.465 409.605C342.086 410.133 341.678 410.621 341.279 411.119C339.905 412.822 338.052 413.858 336.349 414.426C334.616 415.023 332.933 415.242 331.309 415.252C330.403 415.252 329.088 415.202 327.774 414.784C327.096 414.575 326.369 414.276 325.562 413.728C324.776 413.181 323.859 412.274 323.361 410.979C323.122 410.332 322.993 409.715 322.973 409.027C322.953 408.35 323.072 407.653 323.282 407.045C323.71 405.81 324.427 404.964 325.134 404.336C325.861 403.709 326.618 403.28 327.465 402.982C327.674 402.902 327.903 402.842 328.112 402.782C328.291 402.743 328.481 402.693 328.65 402.663C329.009 402.593 329.337 402.553 329.636 402.523C330.383 402.454 330.971 402.733 331.429 403.001C331.857 403.26 332.106 404.187 332.415 405.382C332.634 406.258 332.773 407.175 332.714 407.942C332.654 408.709 332.385 409.336 331.987 409.575C331.489 409.884 331.021 409.894 330.692 409.804C330.313 409.695 330.015 409.665 329.905 409.645C329.885 409.625 329.845 409.615 329.825 409.625C329.815 409.625 329.795 409.625 329.795 409.635C329.795 409.635 329.815 409.665 329.706 409.545C329.377 409.157 328.809 408.878 328.7 408.898C328.67 408.898 328.69 408.898 328.7 408.898L328.889 408.878H328.879H328.859H328.809L328.74 408.898C328.65 408.928 328.829 408.868 328.979 408.728C329.178 408.559 329.507 408.201 329.776 407.732C329.855 407.613 329.925 407.483 329.985 407.354C330.074 407.165 330.064 407.205 330.064 407.205C330.064 407.205 330.084 407.244 330.084 407.314C330.124 407.543 330.323 407.713 330.552 407.812C330.682 407.862 330.772 407.902 330.941 407.922C331.12 407.942 331.299 407.962 331.479 407.972C332.196 408.011 332.893 407.942 333.56 408.011C334.576 408.121 335.443 407.772 336.09 407.533C336.578 407.344 336.957 407.125 337.295 406.776L338.491 410.462C337.524 409.824 336.469 409.276 335.353 408.888C334.586 408.609 333.949 407.952 333.281 406.428C332.973 405.721 333.042 404.077 333.56 403.739C334.267 403.26 335.054 403.011 335.811 402.942C336.439 402.882 337.026 403.151 337.624 403.31L337.654 403.201L337.644 403.211Z" fill="#1E7F9D"/>
<path opacity="0.8" d="M378.191 405.382C378.918 406.398 379.476 407.713 379.237 409.466C379.107 410.322 378.679 411.209 378.161 411.786C377.643 412.384 377.086 412.722 376.637 412.942C376.159 413.171 375.781 413.27 375.482 413.36C375.203 413.43 374.934 413.509 374.675 413.619C371.916 414.794 368.799 415.432 365.691 414.963C365.213 414.894 364.745 414.804 364.267 414.685C364.028 414.635 363.799 414.565 363.57 414.495L363.211 414.386C363.052 414.336 362.883 414.276 362.713 414.207C362.046 413.908 361.229 413.579 360.273 412.523C359.805 411.995 359.337 411.189 359.148 410.272C358.948 409.386 359.028 408.38 359.317 407.573C359.606 406.766 360.024 406.179 360.403 405.76C360.781 405.342 361.15 405.043 361.488 404.804C362.225 404.306 362.644 404.127 363.142 403.888C364.138 403.45 365.183 403.131 366.239 402.952C366.887 402.842 367.574 403.051 368.201 403.32C368.809 403.579 369.147 404.545 369.247 405.78C369.367 407.583 368.908 409.456 368.56 409.914C368.311 410.203 368.072 410.213 367.803 410.143C367.195 409.974 366.548 410.053 366.02 410.342C365.9 410.412 365.741 410.511 365.671 410.581C365.651 410.611 365.642 410.631 365.651 410.651C365.651 410.641 365.681 410.691 365.632 410.631L365.502 410.452C365.402 410.332 365.323 410.222 365.223 410.123C364.865 409.705 364.476 409.416 364.247 409.306C364.118 409.246 364.048 409.236 364.028 409.227C363.988 409.227 364.088 409.227 364.018 409.227C363.998 409.236 364.277 409.147 364.606 408.768C364.944 408.4 365.313 407.802 365.622 407.145C365.711 406.946 365.671 407.035 365.671 407.045C365.671 407.065 365.671 407.085 365.671 407.115C365.671 407.155 365.671 407.195 365.751 407.254C365.871 407.354 366 407.444 366.13 407.523C366.398 407.673 366.687 407.752 366.986 407.822C367.584 407.942 368.181 407.962 368.789 408.131C369.705 408.39 370.641 408.221 371.568 408.141C371.986 408.121 372.404 408.051 372.823 407.991L373.43 407.872C373.649 407.892 373.44 407.623 373.988 408.45C374.157 408.679 374.297 408.818 374.386 408.888C374.436 408.928 374.466 408.948 374.476 408.958L374.546 408.997H374.556C374.556 408.997 374.357 408.968 374.147 409.027C373.938 409.077 373.759 409.207 373.749 409.217C373.729 409.236 373.839 409.137 373.918 408.958C373.968 408.858 373.5 409.814 373.699 409.406V409.386V409.346C373.699 409.346 373.659 409.266 373.639 409.217C373.59 409.117 373.51 408.978 373.39 408.798C373.161 408.44 372.793 407.952 372.374 407.244C372.006 406.587 371.857 404.944 372.235 404.545C372.793 403.988 373.639 403.559 374.894 403.619C375.422 403.659 375.93 403.798 376.528 404.137C377.175 404.505 377.673 404.964 378.101 405.462L378.191 405.402V405.382Z" fill="#1E7F9D"/>
<path opacity="0.8" d="M245.743 420.083C250.165 420.451 254.588 420.86 259.02 421.188C261.36 421.358 263.721 421.547 266.061 421.447L275.434 420.979L280.125 420.73C281.699 420.651 283.173 420.541 285.045 420.541C285.513 420.541 285.991 420.541 286.539 420.581C287.097 420.621 287.655 420.641 288.611 420.82C288.82 420.86 289.179 420.949 289.487 421.029C289.706 421.099 289.936 421.169 290.155 421.258C290.224 421.278 290.473 421.388 290.653 421.467C290.852 421.557 291.041 421.657 291.23 421.756L291.449 421.886L291.728 422.065C291.908 422.184 292.087 422.314 292.256 422.453L292.505 422.663L292.625 422.772L292.794 422.931C293.123 423.26 293.442 423.629 293.71 424.027C293.85 424.226 293.969 424.425 294.089 424.635L294.258 424.943C294.308 425.053 294.348 425.123 294.437 425.332C294.736 426.029 294.935 426.836 294.995 427.643C295.025 428.041 295.025 428.439 294.995 428.818C294.965 429.166 294.916 429.465 294.846 429.794C294.706 430.431 294.467 431.069 294.169 431.646C294.089 431.786 294.019 431.925 293.93 432.065L293.78 432.294C293.69 432.433 293.591 432.563 293.491 432.702C293.282 432.971 293.063 433.22 292.824 433.459C292.714 433.569 292.555 433.718 292.485 433.778L292.296 433.937C292.167 434.047 292.037 434.146 291.908 434.236C291.778 434.336 291.639 434.425 291.499 434.515L291.23 434.674C291.071 434.764 290.912 434.854 290.742 434.943C290.444 435.093 290.284 435.152 290.055 435.252L289.557 435.441C289.268 435.541 289.009 435.62 288.8 435.68C288.352 435.81 288.013 435.879 287.655 435.949C286.958 436.079 286.41 436.158 285.912 436.218C285.404 436.278 284.916 436.328 284.458 436.367C283.531 436.447 282.685 436.487 281.868 436.527C278.721 436.666 275.613 436.756 272.486 436.826C264.797 436.995 257.097 437.065 249.408 437.095H237.865H232.098C230.156 437.095 228.293 437.095 226.261 437.055C224.329 437.015 222.297 436.616 220.086 435.939L218.164 435.352C214.598 434.266 212.586 430.491 213.672 426.915C214.329 424.754 216.012 423.161 217.994 422.483C219.299 422.045 220.046 422.015 220.793 421.955C222.417 421.886 223.532 422.384 224.478 423.131C225.405 423.888 226.102 424.933 226.62 426.139C228.104 429.684 226.7 433.469 224.548 434.664C224.279 434.814 224.01 434.973 223.741 435.122C223.642 435.182 223.552 435.242 223.522 435.272V435.292C223.393 434.943 223.273 434.545 223.134 434.176C222.835 433.399 222.626 432.762 222.297 432.095L221.66 422.015C222.496 422.045 223.463 422.155 224.449 422.314C226.54 422.633 228.911 422.802 231.241 422.892C233.572 422.981 235.903 423.011 238.233 422.961C242.894 422.862 247.546 422.483 252.207 421.836C254.777 421.477 257.446 420.89 259.946 421.378C263.94 422.155 267.954 422.274 271.958 422.284H277.974C279.956 422.284 282.087 422.354 283.75 422.423L284.627 422.443H285.284C285.354 422.443 285.404 422.443 285.414 422.443L285.623 423.32L285.892 424.306C286.091 424.973 286.28 425.601 286.509 426.208C286.609 426.497 286.718 426.766 286.848 427.035C286.958 427.284 287.067 427.503 287.197 427.702C287.276 427.872 287.446 428.041 287.505 428.111C287.575 428.16 287.605 428.18 287.625 428.19C287.675 428.2 287.645 428.19 287.645 428.2C287.595 428.21 287.515 428.29 287.396 428.439C287.336 428.559 287.177 428.798 287.087 429.017C286.768 429.764 286.719 430.023 286.489 430.77C286.39 431.099 286.32 431.417 286.25 431.756C286.151 432.144 286.061 432.533 285.991 432.921L285.792 433.987H285.782C285.782 433.987 285.663 433.947 285.563 433.937C285.354 433.907 285.075 433.877 284.776 433.858C284.179 433.808 283.491 433.788 282.794 433.768C279.826 433.738 276.838 433.738 273.86 433.628C263.233 433.17 252.615 432.712 241.998 432.254C237.755 432.075 233.741 430.979 230.126 428.041C228.462 426.686 228.492 423.38 230.385 422.633C233.064 421.557 235.883 420.87 238.691 420.431C241.002 420.073 243.383 420.322 245.733 420.312C245.733 420.232 245.743 420.163 245.753 420.093L245.743 420.083Z" fill="#1E7F9D"/>
<path opacity="0.8" d="M255.474 278.671C256.37 280.304 256.779 282.077 256.58 284.029C256.47 285.055 256.111 286.111 255.604 287.097C254.936 288.432 253.811 289.467 252.725 290.085C251.62 290.722 250.554 291.041 249.538 291.26C248.502 291.489 247.556 291.549 246.669 291.599C246.211 291.619 245.733 291.599 245.255 291.599C244.757 291.559 244.279 291.529 243.761 291.44C242.506 291.23 241.102 290.872 239.608 289.856C238.871 289.368 238.134 288.621 237.546 287.734C236.968 286.808 236.61 285.713 236.52 284.657C236.361 282.515 237.068 280.772 238.014 279.418C238.492 278.731 239.06 278.123 239.717 277.595C240.365 277.057 241.122 276.599 242.008 276.27C243.064 275.862 244.428 275.942 245.554 276.4C246.679 276.848 246.918 278.083 246.55 279.268C246.291 280.145 245.743 280.892 245.315 281.529C245.096 281.848 244.916 282.137 244.787 282.366C244.727 282.476 244.677 282.595 244.638 282.695C244.628 282.725 244.638 282.675 244.648 282.665V282.784C244.648 282.784 244.667 283.123 244.677 283.113C244.588 282.844 243.98 283.073 243.791 283.482C243.691 283.671 243.671 283.88 243.741 283.98C243.751 284.009 243.771 284.029 243.811 284.029C243.811 284.029 243.851 284.029 243.831 284.029H243.711C243.632 284.029 243.532 284.039 243.512 284.049C243.462 284.049 243.393 284.079 243.412 284.069C243.403 284.069 243.373 284.089 243.442 284.049L243.602 283.94C243.602 283.94 243.671 283.88 243.701 283.85C243.741 283.81 243.821 283.75 243.871 283.701C243.92 283.651 243.97 283.591 244.02 283.541C244.04 283.511 244.06 283.491 244.1 283.442C244.12 283.422 244.1 283.452 244.1 283.462C243.901 283.82 244.428 284.179 245.066 284.288C245.723 284.418 246.48 284.448 247.307 284.587C248.492 284.846 249.508 284.537 249.976 284.378C250.195 284.308 250.305 284.278 250.414 284.229C250.524 284.179 250.633 284.039 250.693 283.77C250.833 283.252 250.604 282.336 250.185 281.798C250.026 281.579 249.966 281.34 249.896 280.952C249.817 280.573 249.697 279.996 249.08 279.388C248.542 278.85 247.586 277.416 248.552 276.729C249.209 276.32 250.066 276.081 250.873 276.091C251.669 276.091 252.456 276.29 253.084 276.579C254.159 277.067 254.807 277.934 255.374 278.721L255.474 278.661V278.671Z" fill="#1E7F9D"/>
<path d="M397.294 166.95L401.996 135.097L404.426 119.132L406.956 103.265C407.364 100.755 407.424 98.5941 407.105 97.4586C406.956 96.871 406.776 96.5821 406.537 96.2535C406.278 95.9347 405.8 95.5563 405.033 95.1678C403.5 94.3909 401.049 93.7933 398.211 93.2256C395.462 92.6679 392.713 92.1101 389.964 91.5523C360.532 86.0544 330.562 83.7138 300.503 83.1859C270.424 82.6979 240.235 83.8831 209.927 85.0485C191.222 85.7755 172.686 86.4329 154.34 88.0763C145.167 88.8831 136.064 89.9687 127.04 91.383C122.528 92.0802 118.046 92.9069 113.584 93.7933L110.247 94.5005L108.584 94.8491L107.02 95.2176C104.978 95.7156 103.076 96.2734 101.443 96.9407C99.7892 97.5981 98.4546 98.3749 97.5184 99.1518C97.0801 99.5502 96.6718 99.9187 96.4128 100.327C96.124 100.726 95.8949 101.084 95.7056 101.592C95.2973 102.578 95.0184 104.142 94.879 106.124C94.8092 107.1 94.7594 108.215 94.7196 109.381L94.61 112.817C94.4108 117.399 94.4208 121.99 94.361 126.572C94.4108 131.153 94.4308 135.745 94.62 140.326C94.9288 149.49 95.5164 158.653 96.4626 167.776C97.3988 176.9 98.5642 186.003 100.138 195.047C101.98 205.963 103.753 217.008 105.905 227.775C107.946 238.084 108.186 245.106 107.08 249.916C106.273 253.412 104.51 253.99 102.279 251.849C101.164 250.783 99.9187 249.03 98.6339 246.649C97.349 244.259 96.104 241.211 94.8292 237.566C91.7416 228.323 89.3113 217.935 87.5882 208.025C83.5943 185.196 81.2437 162.159 80.4569 139.081C80.3274 136.193 80.2876 133.315 80.2378 130.426L80.1581 126.094V121.761V117.428L80.2378 113.096L80.3174 108.763C80.3374 107.339 80.3872 105.845 80.5067 104.192C80.6262 102.558 80.8354 100.785 81.2935 98.9128C81.7417 97.0503 82.4688 95.0383 83.5843 93.1858C84.66 91.3332 86.0345 89.6699 87.5285 88.3153C89.0225 86.9508 90.626 85.8453 92.2196 84.919C95.4268 83.1162 98.604 81.9808 101.642 81.0844C104.739 80.178 107.498 79.6003 110.347 78.8932C122.877 75.9849 136.064 73.5845 148.474 72.9172C168.264 71.7817 187.965 71.2539 207.517 70.5865C227.088 69.9192 246.719 69.1523 266.36 69.3017C295.533 69.4511 325.045 70.1583 354.277 73.714L364.038 74.9789L373.769 76.4928C377.016 76.9609 380.243 77.6083 383.47 78.196C386.697 78.7936 389.934 79.3613 393.141 80.0884L402.782 82.17C404.446 82.5585 406.248 83.0166 408.161 83.7337C410.063 84.4708 412.135 85.4767 414.027 87.1699C415.94 88.8233 417.453 91.2137 418.19 93.5344C418.947 95.875 419.107 98.106 419.067 100.098C419.027 102.1 418.778 103.923 418.519 105.616L417.772 110.427C413.808 135.964 410.561 161.691 406.806 187.417C403.798 207.935 399.685 227.188 393.42 243.652C390.532 251.221 387.414 249.996 388.46 240.853C389.914 227.895 391.448 214.319 392.962 200.814C394.237 189.708 396.02 178.344 397.474 167.049C397.404 167.009 397.344 166.969 397.265 166.92L397.294 166.95Z" fill="url(#paint3_linear_122_4112)"/>
<defs>
<linearGradient id="paint0_linear_122_4112" x1="56.735" y1="180.146" x2="441.39" y2="180.146" gradientUnits="userSpaceOnUse">
<stop stop-color="#1E7F9D"/>
<stop offset="0.1875" stop-color="#25A6EF"/>
<stop offset="0.59375" stop-color="#25A6EF"/>
<stop offset="1" stop-color="#1E7F9D"/>
</linearGradient>
<linearGradient id="paint1_linear_122_4112" x1="90.6885" y1="264.437" x2="402.878" y2="264.437" gradientUnits="userSpaceOnUse">
<stop stop-color="#1E7F9D"/>
<stop offset="0.1875" stop-color="#25A6EF"/>
<stop offset="0.59375" stop-color="#25A6EF"/>
<stop offset="1" stop-color="#1E7F9D"/>
</linearGradient>
<linearGradient id="paint2_linear_122_4112" x1="95.2006" y1="411.438" x2="412.057" y2="411.438" gradientUnits="userSpaceOnUse">
<stop stop-color="#1E7F9D"/>
<stop offset="0.1875" stop-color="#25A6EF"/>
<stop offset="0.59375" stop-color="#25A6EF"/>
<stop offset="1" stop-color="#1E7F9D"/>
</linearGradient>
<linearGradient id="paint3_linear_122_4112" x1="80.1581" y1="161.192" x2="419.073" y2="161.192" gradientUnits="userSpaceOnUse">
<stop stop-color="#1E7F9D"/>
<stop offset="0.1875" stop-color="#25A6EF"/>
<stop offset="0.59375" stop-color="#25A6EF"/>
<stop offset="1" stop-color="#1E7F9D"/>
</linearGradient>
</defs>
</svg>
