<svg width="139" height="130" viewBox="0 0 139 130" fill="none" xmlns="http://www.w3.org/2000/svg">
<path d="M104.309 74.1948C102.504 76.0033 100.814 77.9231 99.2488 79.943C98.7067 80.701 98.2446 81.488 97.7319 82.25C95.8554 84.8807 94.3901 87.7816 93.3863 90.8531C93.0167 92.2118 92.8174 93.6113 92.7931 95.0192C92.7218 95.9261 92.8812 96.8109 92.8099 97.7178C92.8121 98.1794 92.7974 98.6328 92.7955 99.1238C92.7936 99.6149 92.8166 100.055 92.7936 100.526C92.7707 100.996 92.3727 101.145 91.7791 100.757C90.934 100.173 90.3035 99.3284 89.9841 98.3521C89.6726 97.3314 89.5481 96.2628 89.6168 95.1978L89.6976 93.6151L89.921 92.0402C90.298 89.9809 90.9789 87.989 91.9415 86.1299C93.0602 83.9297 94.0735 81.625 95.4109 79.5329C96.8901 77.2806 98.4956 75.1138 100.22 73.0429C101.196 71.7877 102.344 70.5442 103.425 69.3095C105.011 67.3715 106.804 65.7137 108.34 63.8347C109.457 62.3825 110.482 60.8609 111.407 59.2792L111.94 58.2863C112.648 57.1078 112.895 56.9682 114.057 57.0089C114.314 57.0203 114.574 57.0023 114.821 57.0305C115.23 57.0549 115.585 57.3208 115.723 57.7062C115.913 58.2451 115.914 58.8326 115.726 59.3724C115.144 61.1672 114.304 62.8676 113.232 64.4203C112.168 65.8671 111.03 67.2579 109.822 68.5871C108.098 70.5719 106.218 72.3853 104.469 74.2947L104.309 74.1948Z" fill="#25A6EF"/>
<path d="M100.802 26.9997C100.469 26.762 100.149 26.5201 99.8082 26.2992L98.7562 25.7166L96.6022 24.6103L94.3105 23.6767L93.1667 23.1952L91.9773 22.8272L89.5732 22.0998C88.7623 21.8979 87.9306 21.7591 87.086 21.5406C85.4248 21.1924 83.7428 20.9521 82.0505 20.8213C75.1259 20.3753 68.1757 21.0988 61.4914 22.9614C56.6075 24.3804 51.9023 26.3541 47.4676 28.8439C39.5468 33.1704 32.5832 39.0547 26.9961 46.1429C24.2684 49.6273 22.1263 53.5327 20.654 57.7057C19.2268 61.8001 18.7871 66.1738 19.3707 70.4704C19.9018 74.1885 21.5182 77.6672 24.0173 80.4709C26.5841 83.4154 29.6966 85.8351 33.1832 87.5964C40.0418 91.0938 47.6567 92.8471 55.3542 92.7011C56.6257 92.649 57.9182 92.6178 59.2105 92.5446C60.5109 92.4589 61.806 92.3058 63.0905 92.0857C66.2774 91.4833 66.078 91.9291 63.5927 93.5691C61.8215 94.6707 59.9532 95.608 58.0113 96.3694C55.171 97.3538 52.1807 97.835 49.175 97.7915C46.213 97.7668 43.2597 97.4673 40.3531 96.8968C38.8619 96.631 37.4458 96.2557 36.0169 95.8427C34.5782 95.3693 33.1662 94.8183 31.7871 94.1921C26.0218 91.795 20.9637 87.966 17.0919 83.0676C15.0741 80.4164 13.6331 77.3724 12.8616 74.1311C12.525 72.5461 12.3085 70.9379 12.2138 69.3203L12.1118 68.1498L12.144 66.9619L12.2295 64.6071C12.7799 58.4775 14.8167 52.5745 18.1633 47.4097C21.9729 41.4238 26.6441 36.0323 32.0265 31.4091C34.7077 29.0977 37.529 26.9541 40.4742 24.9903L42.7884 23.5483L45.1494 22.2446C46.6813 21.3477 48.3232 20.6517 49.9522 19.876C57.0672 16.7744 64.6274 14.8155 72.3534 14.0719C76.227 13.7215 80.1247 13.7342 83.9959 14.1097C87.904 14.4509 91.7618 15.2268 95.4979 16.423C100.118 17.976 104.44 20.3031 108.28 23.305C112.205 26.3168 115.419 30.1564 117.692 34.5507C119.483 37.9121 120.558 41.6083 120.849 45.406C121.059 49.2566 120.447 53.1079 119.055 56.7041C116.372 63.7633 111.631 69.2919 107.379 74.5705C104.217 78.2799 101.557 82.3886 99.4657 86.7912C98.5379 88.8488 97.9269 91.035 97.6536 93.2755C97.6268 93.8171 97.5285 94.3547 97.5437 94.8961L97.5545 95.4248C97.5514 95.6641 97.5441 95.8907 97.5621 96.1508C97.5695 96.6884 97.6467 97.2228 97.792 97.7404L98.2364 99.4255L98.5215 100.268L98.8619 101.273C99.3301 102.656 99.7897 104.014 100.447 105.375L99.4839 105.925C99.3965 105.952 99.3259 106.017 99.2916 106.102L99.1959 106.275L99.0002 106.607L98.9002 106.767C98.9002 106.767 98.8122 106.797 98.7117 106.831L98.4347 106.841C98.0487 106.859 97.7547 106.819 97.419 106.82C96.1016 106.782 94.7929 106.595 93.5174 106.263C92.8181 106.045 92.1341 105.78 91.4698 105.471C90.7844 105.185 90.1068 104.798 89.4717 104.494C88.1967 103.791 87.0142 103.113 85.9702 102.429L85.2503 101.958L84.8124 101.658L84.008 101.062C83.5026 100.686 83.0686 100.315 82.6851 99.9683C82.0396 99.395 81.4833 98.7285 81.0348 97.9908C80.6942 97.3789 80.4678 96.7102 80.3667 96.0172C80.222 95.4323 80.128 94.8359 80.0855 94.2348C80.1151 93.3701 81.1298 93.1807 82.7558 93.555C83.7505 93.7849 84.7164 94.1253 85.6354 94.5698C86.1948 94.8148 86.7711 95.1101 87.3181 95.4013L88.2606 95.909L88.7571 96.1752L88.9211 96.2458C89.4444 96.4772 89.9975 96.6343 90.5643 96.7124C90.7151 96.6613 90.9211 96.7317 91.0042 96.5634C91.0874 96.3952 90.7079 96.0192 90.5977 95.7763C90.4874 95.5334 90.487 95.4495 90.4445 95.3238L90.3806 95.1352C90.3423 95.0221 90.3806 95.1352 90.2785 94.8335C90.273 92.56 90.5716 90.296 91.1661 88.1017C92.312 84.0515 94.0763 80.2026 96.3967 76.6909C98.5755 73.2351 100.995 70.16 103.252 67.1822C105.509 64.2044 107.699 61.4032 109.385 58.5624C111.017 56.0116 112.144 53.1709 112.704 50.195C112.948 48.7788 113.034 47.3398 112.961 45.9045C112.871 44.454 112.602 43.0202 112.16 41.6358C111.228 38.6864 109.76 35.9344 107.829 33.5182C106.853 32.2703 105.745 31.1328 104.522 30.1258C103.899 29.6083 103.317 29.0486 102.685 28.5479L100.668 27.1849L100.802 26.9997Z" fill="#25A6EF"/>
<path d="M74.6051 54.9522C75.1213 55.9142 75.3493 57.0045 75.2619 58.0927C75.2471 58.5609 75.1788 59.0259 75.0586 59.4786C74.9841 59.714 74.9557 59.9198 74.8561 60.1637C74.7565 60.4075 74.6277 60.6893 74.4988 60.9292C74.3158 61.3175 74.0863 61.6821 73.8155 62.0152C73.5595 62.3873 73.2128 62.6879 72.8082 62.8886C71.6896 63.4957 70.3726 63.623 69.1585 63.2415C68.2668 62.9722 67.4345 62.536 66.7057 61.9561C66.0356 61.4977 65.4339 60.9466 64.9185 60.3192C64.7445 60.0886 64.5836 59.8484 64.4367 59.5996C64.3388 59.3105 64.2367 59.0088 64.1345 58.7071C64.0789 58.4178 64.0453 58.1248 64.0339 57.8304C64.091 57.527 64.2272 57.244 64.4288 57.0102C64.6665 56.6775 65.579 57.0551 66.5332 57.3906C67.156 57.6437 67.8228 57.7704 68.4949 57.7634C68.5653 57.5574 68.7283 57.4181 68.8469 57.6442C68.9655 57.8703 69.2355 58.1712 69.4931 58.5184C69.5863 58.6674 69.7556 58.7511 69.9306 58.7346C69.9524 58.8389 69.9867 58.9401 70.0328 59.0363C70.0361 59.0811 70.0507 59.1243 70.0753 59.162C70.0783 59.1887 70.087 59.2144 70.1009 59.2374L70.0125 59.1832C70.0125 59.1832 69.7804 58.9115 69.7929 58.9073C69.7929 58.9073 69.8055 58.903 69.7929 58.9073C69.7755 58.8761 69.764 58.842 69.7589 58.8067L69.8254 58.6721L69.8372 58.5C69.8032 58.3994 69.8906 58.2437 69.8652 58.2102C69.8399 58.1768 69.9399 58.0168 69.8511 57.8787C69.4691 57.6236 68.9731 57.6161 68.5835 57.8595C68.516 57.9315 68.4585 58.0122 68.4126 58.0995C68.3992 58.1758 68.3925 58.253 68.3927 58.3304C68.3599 58.2881 68.3232 58.2489 68.283 58.2134C68.1749 58.1209 68.0545 58.0438 67.9252 57.9843C67.8711 57.9253 67.8031 57.8809 67.7273 57.8551C67.7273 57.8551 67.4879 57.8101 67.5424 57.8056C67.5424 57.8056 67.597 57.8012 67.5424 57.8056L67.643 57.7716C67.7606 57.7684 67.8745 57.7299 67.9698 57.6609C68.135 57.5818 68.2896 57.4824 68.4301 57.365L68.3421 57.3948L68.0998 57.6309C67.9244 57.8164 67.7198 58.0398 67.4819 58.3305C67.2441 58.6212 67.048 58.8697 66.8436 59.1351C66.1764 60.0615 65.2471 60.5863 64.2414 60.016C63.84 59.6362 63.5083 59.1889 63.2615 58.6944C63.0516 58.0639 62.9644 57.399 63.0047 56.7356C63.0891 56.1388 63.2663 55.5588 63.5297 55.0166C63.7473 54.5759 64.0235 54.1666 64.3508 53.7999C65.3875 52.6526 66.8353 51.961 68.3793 51.8756C69.5001 51.7443 70.6361 51.8889 71.6884 52.2966C72.9572 52.7964 74.0263 53.7 74.7306 54.8677L74.6051 54.9522Z" fill="#25A6EF"/>
<path d="M53.2862 65.238C54.0755 66.355 54.4594 67.7081 54.3744 69.0731C54.2693 70.3696 53.833 71.6174 53.107 72.6968C52.6754 73.4752 52.0835 74.1532 51.3704 74.6859C51.0531 74.8859 50.709 75.0401 50.3485 75.1439C49.9783 75.2754 49.5881 75.3411 49.1953 75.3382C48.347 75.3949 47.5015 75.1925 46.7709 74.7577C45.6599 74.1232 44.7418 73.1992 44.1144 72.0841C43.6213 71.2173 43.2578 70.2829 43.0354 69.3108C42.6178 68.0142 42.9141 66.5934 43.8153 65.5719C44.1203 65.2725 44.6763 65.7148 45.2958 66.2617C45.6076 66.5204 45.9405 66.8 46.2352 67.0085C46.4657 67.1567 46.6853 67.3212 46.8923 67.5007C47.1941 67.8925 47.544 68.2448 47.9338 68.5492C47.9679 68.6498 48.1234 68.6952 48.1491 68.8126C48.1792 68.9238 48.2162 69.0329 48.2597 69.1395C48.2903 69.2505 48.3272 69.3596 48.3704 69.4663L48.4768 69.7806C48.4882 69.8646 48.5157 69.9457 48.5576 70.0194C48.5348 70.0752 48.5264 70.1359 48.5333 70.1958C48.5273 70.2657 48.5276 70.3359 48.5343 70.4057C48.5143 69.7259 48.4789 70.2422 48.5201 70.0742C48.5201 70.0742 48.6207 70.0401 48.7213 70.0061L48.9555 69.8287C49.3839 69.5038 49.6056 68.9743 49.5365 68.441C49.4239 68.0453 49.134 67.7242 48.7518 67.5717C48.1145 67.2489 47.3576 67.2682 46.7376 67.6231C46.5256 67.7808 46.4199 68.0438 46.4637 68.3043L46.5063 68.43L46.4183 68.4598L46.6198 68.4756C46.733 68.4373 46.7455 68.4331 46.8258 68.546C46.9061 68.659 46.9941 68.6292 47.0154 68.692C47.0659 68.7616 47.0941 68.8449 47.0962 68.9309C47.0382 69.063 46.9686 69.1898 46.8881 69.3096C46.6027 69.6884 46.2795 70.0373 45.9235 70.3507L45.301 70.9538C44.6368 71.6182 43.6333 71.8077 42.7725 71.4315C42.0994 70.9594 41.5727 70.3074 41.2528 69.55C41.0375 69.0517 40.936 68.5116 40.9558 67.9691C40.953 67.4422 41.0254 66.9175 41.171 66.411C41.7666 64.6493 43.1816 63.2871 44.9647 62.7588C46.4388 62.2921 48.0136 62.2441 49.5135 62.62C51.0051 62.9975 52.3324 63.852 53.2937 65.0533L53.2862 65.238Z" fill="#25A6EF"/>
<path d="M46.0377 71.4327C46.0271 71.0861 45.9989 70.7402 45.9531 70.3965C45.9148 70.2834 45.8098 70.2629 45.8595 70.1199C45.8554 69.6614 45.8267 69.2034 45.7733 68.7479C45.7251 68.5905 45.5993 68.469 45.4402 68.4263C45.2343 68.3559 44.8906 68.4583 45.0981 67.9537C45.3056 67.4491 48.2716 64.4974 48.5872 64.6847C49.1269 64.994 49.3794 65.6366 49.1946 66.2306C49.1045 66.7094 49.4784 66.779 49.614 67.0554C49.7391 67.363 49.8457 67.6778 49.9331 67.9982C49.984 68.1909 50.048 68.3799 50.1247 68.5639C50.2183 68.8405 50.3204 69.1422 50.5185 69.3133C50.7165 69.4845 51.0896 69.3862 51.3876 69.3974C51.4505 69.3761 51.5511 69.3421 51.5888 69.3293C51.6265 69.3165 51.6313 69.455 51.431 69.691L51.0425 70.0747L50.4031 70.6695L49.8473 71.1799C49.2811 71.7134 48.6518 72.1759 47.9735 72.5569C46.993 72.8888 46.5973 72.6304 46.277 72.3465C46.0965 72.0895 45.9735 71.7966 45.9162 71.4879L46.0377 71.4327Z" fill="#25A6EF"/>
<path d="M94.2616 46.4207C94.3044 47.4366 94.1318 48.4501 93.7551 49.3945C93.5409 49.9384 93.2384 50.4433 92.8597 50.8886C92.6594 51.1246 92.4673 51.3437 92.2585 51.5545C92.0382 51.7389 91.8047 51.9069 91.5599 52.0572C90.9463 52.5218 90.2389 52.8473 89.4869 53.0112C89.1054 53.056 88.7208 53.069 88.3372 53.0502C87.9908 53.0035 87.6483 52.9322 87.3121 52.8367C86.7515 52.6267 86.2264 52.3319 85.7552 51.9627C85.0035 51.361 84.3697 50.6255 83.8858 49.7932C83.3834 49.1081 83.0399 48.3198 82.8803 47.4854C82.8069 47.207 82.7145 46.934 82.6037 46.6683C82.5884 46.3877 82.6211 46.1065 82.7005 45.8368C82.9289 45.3112 83.0565 44.7776 83.7732 44.5769C84.1151 44.5376 84.46 44.6191 84.748 44.8074L85.4338 45.1777L86.044 45.5316C86.6256 45.8802 87.2565 46.139 87.9153 46.2993C87.8904 46.6206 87.8919 46.9435 87.9198 47.2646C87.9254 47.5709 88.0304 47.5914 88.0517 47.6543C88.0064 47.8482 87.989 48.0475 87.9999 48.2463C87.9999 48.2463 88.0212 48.3091 88.034 48.3469C87.9276 48.0326 88.2054 49.1015 87.7914 47.6303C87.8114 47.6795 87.8285 47.7299 87.8425 47.7812C87.8468 47.8258 87.8614 47.8688 87.885 47.9069C87.885 47.9069 88.0243 48.0699 87.885 47.9069C87.885 47.9069 87.9432 47.7891 88.0142 47.709C88.1099 47.3978 88.1142 47.0656 88.0265 46.7521C87.8563 46.2492 87.6477 45.6332 87.2741 45.6056C86.9004 45.578 87.079 46.064 87.1517 46.3616C87.1517 46.3616 87.2113 46.5376 87.1943 46.4873C87.1773 46.4371 86.9382 46.4759 86.6434 46.2675C86.3487 46.059 85.9739 45.7796 85.4263 45.3624L84.6935 44.8119C83.8858 44.2934 83.421 43.3792 83.4778 42.4211C83.5222 42.0895 83.6274 41.7688 83.7881 41.4753C83.9934 41.1767 84.2442 40.9121 84.5315 40.6912C84.6949 40.6359 84.8032 40.4591 84.9664 40.3618C85.1672 40.2795 85.3729 40.2098 85.5824 40.1533C85.9827 39.9611 86.4048 39.8182 86.8395 39.7277C88.5815 39.5569 90.3125 40.1453 91.5896 41.3423C93.1319 42.6013 94.1368 44.4004 94.3999 46.3739L94.2616 46.4207Z" fill="#25A6EF"/>
</svg>
