<svg width="139" height="165" viewBox="0 0 139 165" fill="none" xmlns="http://www.w3.org/2000/svg">
<path d="M48.0602 107.956C46.9237 110.62 46.4594 113.521 46.7083 116.406C47.0922 119.487 48.1683 122.44 49.8558 125.046C51.2741 127.084 52.9025 128.967 54.7144 130.665C61.3462 137.424 69.2413 142.814 77.9512 146.529C81.8824 148.255 85.9439 149.668 90.0977 150.754C92.7382 151.473 95.4633 151.874 98.1038 152.487C100.744 153.099 103.427 153.923 106.131 154.599C107.821 154.979 107.652 155.655 106.131 156.711C105.112 157.356 104.029 157.894 102.899 158.317C101.392 158.946 99.795 159.331 98.1672 159.458C97.4067 159.458 96.6251 159.458 95.8646 159.458L93.6043 159.204C92.1045 159.056 90.6258 158.76 89.126 158.528C86.1606 157.984 83.227 157.279 80.3382 156.416C74.5964 154.48 69.1072 151.863 63.988 148.621C57.9253 144.649 51.2078 140.889 45.9689 135.017C43.0111 131.767 40.6511 128.019 38.9979 123.948C37.3195 119.68 36.8091 115.043 37.5192 110.512L37.8783 108.4L38.4909 106.435C38.864 105.103 39.3444 103.803 39.9274 102.549C41.1659 99.9788 42.9121 97.6865 45.0606 95.8099C48.2033 93.1097 51.9489 91.2043 55.9819 90.2542C59.8464 89.2845 63.8563 89.0338 67.8115 89.5148C73.8278 90.0497 79.6753 91.7881 85.0067 94.6269C86.2025 95.189 87.3475 95.8533 88.4289 96.6126C92.4214 99.5278 92.6537 101.598 92.0411 103.689C91.9248 104.17 91.7766 104.643 91.5975 105.105C91.2384 105.759 90.5202 106.013 89.4851 105.992C88.1321 105.982 86.8032 105.633 85.6193 104.978C84.5842 104.45 83.4013 104.133 82.4296 103.563C81.4396 103.02 80.4166 102.54 79.3665 102.126C78.3644 101.649 77.3345 101.233 76.2824 100.88C75.2261 100.563 74.1699 100.077 73.1771 99.8658C69.1565 98.6773 64.926 98.3746 60.7771 98.9785C57.9648 99.3856 55.2796 100.418 52.9188 101.999C52.6442 102.211 52.3273 102.38 52.095 102.591L51.3768 103.246C50.9122 103.656 50.4942 104.117 50.1304 104.619C49.7678 105.085 49.4429 105.58 49.1587 106.097C48.863 106.668 48.6095 107.449 48.3137 108.104L48.0602 107.956Z" fill="url(#paint0_linear_122_4074)"/>
<path d="M44.7855 88.9655C47.1638 87.3452 49.8099 86.1581 52.6015 85.4589C55.2747 84.8088 58.0309 84.5666 60.7766 84.7406C65.654 85.102 70.4337 86.2952 74.9088 88.2684C79.0172 90.0568 82.9734 92.1762 86.7384 94.6057L89.3367 96.2956L89.9282 96.7393L91.1323 97.711C91.4196 97.9564 91.7231 98.1822 92.0406 98.387C92.3364 98.556 92.6532 98.9151 92.9278 98.7883C92.9278 98.0067 92.7166 97.3307 92.6532 96.6759C92.5899 96.021 92.4631 95.4718 92.3575 94.7536C92.3575 94.7536 91.935 92.958 91.7026 91.6694C91.4703 90.3808 91.1323 88.881 90.9422 87.4445C90.752 86.0081 90.6253 84.3604 90.6253 82.8606C90.6253 82.0578 90.6253 81.2551 90.6253 80.4524C90.6175 79.6316 90.6811 78.8117 90.8154 78.002C91.186 74.4876 92.4675 71.1308 94.5333 68.2636C95.0825 67.5665 95.6318 66.8272 96.2232 66.1512L98.1667 64.419C98.8187 63.8495 99.5265 63.347 100.279 62.9192C101.018 62.4967 101.716 62.0319 102.392 61.6306C105.676 60.0604 109.34 59.4595 112.954 59.8984C116.302 60.3987 119.486 61.6795 122.248 63.6374C124.783 65.3902 127.028 67.5285 128.903 69.9747C132.211 74.068 134.765 78.7175 136.444 83.7055C137.951 88.5638 138.81 93.5996 139 98.6827C138.77 111.171 136.026 123.486 130.931 134.89C129.473 138.375 128.206 137.446 127.487 133.939C126.626 128.567 126.491 123.103 127.086 117.695C127.81 112.091 127.945 106.427 127.487 100.795C127.339 99.4432 127.213 98.1123 127.128 96.7815C127.044 95.4507 126.854 94.141 126.621 92.8524L126.262 90.9301L125.776 89.05C125.647 88.4617 125.478 87.883 125.269 87.3178C125.112 86.7523 124.907 86.2011 124.657 85.6701C122.827 81.2116 119.994 77.2355 116.376 74.0517C114.999 72.7542 113.323 71.818 111.496 71.3267C109.831 70.9819 108.098 71.2284 106.595 72.0238C104.415 72.9765 102.725 74.7885 101.927 77.0302C101.114 79.8839 101.006 82.892 101.61 85.7968C101.842 87.4657 102.244 89.1979 102.666 90.9512L104.779 99.5488C105.074 101.006 105.497 102.57 105.708 103.964C105.919 105.358 106.152 106.731 106.215 107.956C106.228 109.056 106.186 110.156 106.088 111.252C105.915 112.04 105.689 112.817 105.412 113.575L104.8 114.632C104.673 114.822 104.673 114.991 104.441 115.181C104.228 115.309 103.99 115.388 103.744 115.413C102.986 115.507 102.22 115.507 101.462 115.413C99.0816 115.104 96.8123 114.219 94.8502 112.836C92.0195 110.935 89.1677 108.738 86.4004 106.9L84.288 105.548L82.8304 104.619L80.2955 103.055C76.9303 101.041 73.3963 99.3237 69.7333 97.9222C66.3752 96.5652 62.7928 95.8488 59.1711 95.8098C57.1768 95.8249 55.2068 96.2491 53.3831 97.0561C52.4774 97.4499 51.6199 97.9461 50.827 98.5348L48.2076 100.647C44.8883 103.491 42.6195 107.367 41.7647 111.653C40.5395 117.821 42.8631 124.792 47.1936 130.411C51.6644 136.166 57.3196 140.891 63.7762 144.269C73.8314 149.677 85.133 151.789 96.4556 153.015C98.9483 153.268 101.42 153.331 103.955 153.522C113.355 154.176 116.376 154.979 118.425 157.746C118.938 158.346 119.397 158.989 119.798 159.669C120.727 161.781 116.735 163.661 109.363 164.21C97.983 164.892 86.5683 163.722 75.5636 160.746C63.5663 157.674 52.5098 151.696 43.3701 143.34C39.7727 139.945 36.6975 136.037 34.2444 131.742C31.5718 127.06 30.004 121.829 29.6604 116.448C29.425 110.727 30.8956 105.066 33.8853 100.183C35.2656 97.8802 36.9182 95.7524 38.8073 93.8452L40.1592 92.451L41.6168 91.2258C42.6519 90.4231 43.4335 89.6626 44.6587 88.8176L44.7855 88.9655Z" fill="url(#paint1_linear_122_4074)"/>
<path d="M55.4107 43.5478C56.1501 43.5478 55.8755 44.4984 55.2206 46.3151C54.8663 47.1121 54.3564 47.8303 53.7208 48.4276C53.1618 48.6353 52.5805 48.7771 51.9886 48.85C50.213 48.2764 48.483 47.5703 46.8131 46.7376C45.7313 46.2336 44.7394 45.5557 43.8768 44.7308C42.1446 43.1887 40.4336 41.7734 38.7859 40.5059C38.4251 40.1996 38.1366 39.8172 37.9409 39.3863C37.2137 37.9789 36.0501 36.845 34.6244 36.1543C34.3949 35.9616 34.0773 35.9128 33.8005 36.0276C32.258 35.6319 30.8177 34.9117 29.5757 33.9151C28.9208 32.6265 27.8857 32.0984 27.1252 30.7042C26.9985 30.5352 26.7872 30.5986 26.8084 30.0705C26.8084 28.8875 26.407 28.8664 26.069 28.6129C25.5409 28.2743 25.0582 27.8697 24.6326 27.4088C24.3971 26.9665 24.2128 26.4987 24.0833 26.0146C24.0288 25.3442 24.1604 24.6717 24.4636 24.0712C24.8438 23.7121 24.7804 22.9938 24.8649 22.4024C24.8649 22.2122 24.8649 21.9587 24.9917 21.8109C25.7598 21.2961 26.5998 20.8975 27.4843 20.6279C28.4262 20.2229 29.4228 19.9596 30.4417 19.8463L31.5613 19.9519C31.9376 19.9741 32.3118 20.0235 32.6809 20.0998C33.0913 20.2049 33.4937 20.339 33.885 20.5012C35.575 21.0293 37.1593 21.8531 37.5395 21.9587C37.9198 22.0644 38.1099 22.4869 38.3211 22.846C38.5324 23.2051 39.5463 23.5431 40.7082 24.1768C41.4922 24.6172 42.2536 25.0966 42.9896 25.6133C43.6867 26.3737 44.6584 26.8173 44.7852 28.1693C44.7852 28.4228 44.9753 28.5284 45.1232 28.6552C46.3255 29.8157 47.3696 31.1297 48.2285 32.5632C48.7234 33.2098 49.2597 33.8237 49.8339 34.401C49.8339 34.5066 49.8339 34.6967 49.9818 34.8446C50.0226 35.0311 50.094 35.2095 50.193 35.3727C51.2736 36.83 52.4749 38.1938 53.7842 39.4497C54.101 39.6821 54.777 41.71 55.1784 41.879C55.5797 42.048 55.115 43.5901 55.4107 43.5478Z" fill="url(#paint2_linear_122_4074)"/>
<path d="M39.0185 71.918C39.8212 71.918 39.7156 73.0587 39.0185 74.6853C38.6386 75.3993 38.1047 76.0199 37.4552 76.502C36.92 76.6404 36.3768 76.7462 35.8287 76.8188C35.5541 76.8188 32.1742 75.5725 30.9912 75.3824C29.9025 75.1413 28.846 74.7726 27.8437 74.2839C25.8642 73.4287 23.8235 72.7226 21.7387 72.1715C21.2666 72.0609 20.8259 71.8442 20.4501 71.5378C19.0885 70.5631 17.4562 70.0387 15.7817 70.0379C15.507 70.0379 15.2324 70.0379 14.8944 70.2703C13.9972 70.5351 13.0542 70.607 12.1272 70.4815C11.18 70.4779 10.2418 70.2989 9.35986 69.9534C8.01734 69.1248 6.60342 68.4178 5.13499 67.841C4.92375 67.841 4.69138 67.841 4.52238 67.4185C4.0999 66.3623 3.61404 66.5102 3.12818 66.4257C2.43665 66.3104 1.76694 66.0895 1.14249 65.7708C0.804496 65.6018 0.487631 65.0103 0.149641 64.5456C-0.0498805 63.8556 -0.0498805 63.1232 0.149641 62.4332C0.445382 61.9473 0.149641 61.2291 0.149641 60.5953C0.149641 60.3841 0.149641 60.1095 0.149641 59.9405C1.5307 58.6706 3.12552 57.6551 4.86037 56.9408H5.91659C6.5292 56.9408 7.35305 56.8141 8.19802 56.7507C9.88797 56.5817 11.6835 56.5395 12.0638 56.4761C12.444 56.4127 12.8031 56.6873 13.1622 56.8775L15.9295 57.1098C17.2815 57.2577 18.6334 57.4478 18.7391 57.4689C19.7319 57.8914 20.8515 57.9125 21.6754 59.0744C21.8232 59.3279 22.0345 59.349 22.2457 59.4124C24.0142 60.0131 25.6864 60.8669 27.2099 61.9473C28.0127 62.4754 28.921 62.75 29.7237 63.2359C29.8716 63.2359 29.9561 63.5105 30.0828 63.6372C30.2233 63.8132 30.3867 63.9695 30.5687 64.102C32.5333 65.116 34.1599 66.658 36.061 67.672C36.5258 67.9255 37.92 70.0379 38.3847 70.3125C38.8495 70.5872 38.6805 71.8969 39.0185 71.918Z" fill="url(#paint3_linear_122_4074)"/>
<path d="M97.8282 42.1748C98.4408 42.6606 97.8282 43.4845 96.6241 44.5829C96.054 45.0373 95.3642 45.3162 94.6384 45.3857C94.0881 45.1707 93.5637 44.8943 93.0752 44.5618C91.6989 42.774 90.5362 40.8315 89.6108 38.7737C88.9023 37.3324 88.4383 35.7833 88.2378 34.1898C87.7956 31.0417 87.6471 27.8593 87.7942 24.6838C87.792 23.9517 87.9582 23.2289 88.28 22.5714C89.189 20.4382 89.8963 18.2245 90.3924 15.9594C90.5633 15.5762 90.5633 15.1385 90.3924 14.7553C89.8855 13.9104 92.188 8.1223 92.8217 7.55194C94.2793 6.05211 95.7792 4.63678 97.2579 3.32707C97.4691 3.13695 97.4902 2.79896 98.0183 2.82009C98.7787 2.83859 99.5045 2.503 99.9829 1.91174C100.641 1.34964 101.348 0.847689 102.095 0.411913C102.594 0.203882 103.121 0.0687105 103.659 0.0105501C104.144 -0.0950716 104.926 0.623156 104.989 0.792151C105.095 1.27801 105.708 1.32026 106.088 1.5315C106.238 1.59923 106.38 1.68431 106.51 1.785C106.616 1.785 106.679 3.20033 106.912 4.67903C107.144 6.15774 107.651 7.74206 107.419 7.88993C107.186 8.0378 105.644 13.9315 105.539 14.5652C105.433 15.199 105.116 15.1567 104.82 15.4102C104.525 15.6637 103.743 20.2266 103.701 20.3744C103.236 21.2405 103.384 22.2545 102.201 22.8882C102.022 23.0054 101.912 23.2026 101.905 23.4163C101.798 24.2257 101.555 25.0113 101.187 25.74C100.807 26.4794 100.49 27.2398 100.131 28.0003C99.8643 28.7844 99.6664 29.5902 99.5393 30.4085C99.5393 30.5564 99.3492 30.7042 99.2647 30.8521C99.1613 31.0111 99.0962 31.1918 99.0746 31.3802C98.6278 33.2822 98.4923 35.244 98.6732 37.1894C98.6479 37.7239 98.5701 38.2545 98.4408 38.7737C98.3586 39.3199 98.3586 39.8753 98.4408 40.4214C98.3833 40.742 98.2689 41.0496 98.1028 41.3298C97.8282 41.71 97.7015 42.0691 97.8282 42.1748Z" fill="url(#paint4_linear_122_4074)"/>
<defs>
<linearGradient id="paint0_linear_122_4074" x1="37.208" y1="124.367" x2="107.336" y2="124.367" gradientUnits="userSpaceOnUse">
<stop stop-color="#1E7F9D"/>
<stop offset="0.1875" stop-color="#25A6EF"/>
<stop offset="0.59375" stop-color="#25A6EF"/>
<stop offset="1" stop-color="#1E7F9D"/>
</linearGradient>
<linearGradient id="paint1_linear_122_4074" x1="29.636" y1="112.079" x2="139" y2="112.079" gradientUnits="userSpaceOnUse">
<stop stop-color="#1E7F9D"/>
<stop offset="0.1875" stop-color="#25A6EF"/>
<stop offset="0.59375" stop-color="#25A6EF"/>
<stop offset="1" stop-color="#1E7F9D"/>
</linearGradient>
<linearGradient id="paint2_linear_122_4074" x1="24.0713" y1="34.3482" x2="55.8527" y2="34.3482" gradientUnits="userSpaceOnUse">
<stop stop-color="#1E7F9D"/>
<stop offset="0.1875" stop-color="#25A6EF"/>
<stop offset="0.59375" stop-color="#25A6EF"/>
<stop offset="1" stop-color="#1E7F9D"/>
</linearGradient>
<linearGradient id="paint3_linear_122_4074" x1="0" y1="66.6428" x2="39.5816" y2="66.6428" gradientUnits="userSpaceOnUse">
<stop stop-color="#1E7F9D"/>
<stop offset="0.1875" stop-color="#25A6EF"/>
<stop offset="0.59375" stop-color="#25A6EF"/>
<stop offset="1" stop-color="#1E7F9D"/>
</linearGradient>
<linearGradient id="paint4_linear_122_4074" x1="87.7393" y1="22.6928" x2="107.478" y2="22.6928" gradientUnits="userSpaceOnUse">
<stop stop-color="#1E7F9D"/>
<stop offset="0.1875" stop-color="#25A6EF"/>
<stop offset="0.59375" stop-color="#25A6EF"/>
<stop offset="1" stop-color="#1E7F9D"/>
</linearGradient>
</defs>
</svg>
