<svg width="68" height="63" viewBox="0 0 68 63" fill="none" xmlns="http://www.w3.org/2000/svg">
<path d="M16.1217 37.3406C16.1217 37.3406 19.1217 46.6506 13.9817 48.8706C8.84169 51.0906 18.1017 55.6706 21.9817 51.6406C25.8617 47.6106 24.6617 38.2806 21.9817 37.3406C20.0639 36.8137 18.0395 36.8137 16.1217 37.3406Z" fill="#1E7F9D"/>
<path d="M13.3417 48.9006C14.2237 49.3646 15.1767 49.6789 16.1617 49.8306C16.8546 49.9681 17.5713 49.9233 18.2417 49.7006C18.5538 49.5648 18.8438 49.3828 19.1017 49.1606C19.4724 48.8298 19.8075 48.4611 20.1017 48.0606C20.7519 47.1134 21.2669 46.0801 21.6317 44.9906C22.1809 43.2032 22.5166 41.357 22.6317 39.4906C22.9412 36.0024 22.7322 32.4876 22.0117 29.0606C21.2659 25.5351 20.1114 22.1086 18.5717 18.8506C17.1618 15.9303 15.3803 13.2044 13.2717 10.7406C12.6217 9.93062 11.9017 9.19063 11.1917 8.43063L9.07169 6.14063C8.34169 5.40063 7.64169 4.62063 6.89169 3.88063C6.14169 3.14063 5.40169 2.35063 4.65169 1.59063C3.75169 0.590626 4.34169 0.0506256 5.82169 0.000625615C7.99961 -0.0232695 10.13 0.637876 11.9117 1.89063C12.9117 2.56063 13.7717 3.30063 14.6817 4.04063C15.1345 4.41534 15.5621 4.81955 15.9617 5.25063C16.3717 5.67063 16.7917 6.08063 17.1817 6.52063C18.7733 8.25931 20.2371 10.1108 21.5617 12.0606C22.8859 14.0342 24.0497 16.1109 25.0417 18.2706C25.9781 20.4665 26.7144 22.7424 27.2417 25.0706C28.4717 30.6006 29.6817 36.4806 28.8417 42.4806C28.4329 45.9239 27.2053 49.2192 25.2617 52.0906C24.7003 52.8738 24.0566 53.5946 23.3417 54.2406C22.5522 54.9261 21.6574 55.4799 20.6917 55.8806C19.7363 56.2753 18.7231 56.5117 17.6917 56.5806C16.7294 56.668 15.7597 56.6174 14.8117 56.4306C12.7023 56.0075 10.6952 55.1788 8.90169 53.9906C7.18455 52.8649 5.6214 51.5202 4.25169 49.9906C3.19845 48.8365 2.2916 47.5568 1.55169 46.1806C0.74498 44.7168 0.244818 43.104 0.0816861 41.4406C-0.0569301 39.7867 0.147331 38.122 0.681686 36.5506C1.29214 34.8679 2.43271 33.429 3.93169 32.4506C5.04595 31.7463 6.27955 31.2515 7.57169 30.9906C8.78739 30.7331 10.0296 30.6223 11.2717 30.6606C13.745 30.7522 16.1727 31.3548 18.4017 32.4306C19.427 32.8826 20.394 33.4568 21.2817 34.1406C21.6736 34.4488 22.0445 34.7828 22.3917 35.1406C22.6627 35.4601 22.9164 35.7939 23.1517 36.1406C23.515 36.7 23.7537 37.3309 23.8517 37.9906C23.9509 38.9085 23.6399 39.8234 23.0017 40.4906C22.7768 40.7679 22.5219 41.0194 22.2417 41.2406C21.8017 41.5306 21.2417 41.3706 20.6117 41.0706L19.4817 40.5706C19.2747 40.5023 19.0816 40.3973 18.9117 40.2606C18.7217 40.1406 18.5417 40.0106 18.3617 39.8706C17.7717 39.4906 17.2317 39.0606 16.6217 38.6906C15.994 38.3155 15.3426 37.9815 14.6717 37.6906C13.3154 37.139 11.8816 36.8016 10.4217 36.6906C9.77406 36.6447 9.12333 36.6716 8.48169 36.7706C7.99744 36.8718 7.53839 37.069 7.13169 37.3506C6.86253 37.5542 6.64924 37.8225 6.51169 38.1306C6.33761 38.5265 6.23276 38.9493 6.20169 39.3806C6.20169 39.5706 6.20169 39.8106 6.20169 40.0206C6.20169 40.2306 6.20169 40.5106 6.20169 40.7506C6.2119 40.9268 6.24209 41.1013 6.29169 41.2706C6.33279 41.4584 6.38966 41.6424 6.46169 41.8206C6.84161 42.7732 7.36795 43.6605 8.02169 44.4506C9.46839 46.2708 11.3075 47.7407 13.4017 48.7506L13.3417 48.9006Z" fill="#1E7F9D"/>
<path d="M57.7716 42.1006C60.4916 53.2406 51.1716 54.9906 51.1716 54.9906C51.1716 54.9906 56.8016 59.9906 60.1716 56.4106C63.5416 52.8306 63.9616 47.5706 62.7016 45.0406C61.4416 42.5106 57.7716 42.1006 57.7716 42.1006Z" fill="#1E7F9D"/>
<path d="M52.1817 54.9307C53.0617 55.3911 54.0108 55.7052 54.9917 55.8607C55.688 55.9976 56.4078 55.9528 57.0817 55.7307C57.3894 55.5922 57.6757 55.4104 57.9317 55.1907C58.2996 54.8569 58.6345 54.4886 58.9317 54.0907C59.5826 53.133 60.0975 52.0898 60.4617 50.9907C61.0101 49.203 61.3457 47.3569 61.4617 45.4907C61.7715 42.0024 61.5626 38.4876 60.8417 35.0607C60.0895 31.5401 58.9353 28.1177 57.4017 24.8607C55.987 21.943 54.206 19.2177 52.1017 16.7507C51.4517 15.9507 50.7317 15.2007 50.0217 14.4507L47.9017 12.1607C47.1717 11.4207 46.4717 10.6307 45.7317 9.90065C44.9917 9.17065 44.2717 8.38065 43.5217 7.62065C42.6217 6.62065 43.2217 6.08065 44.6917 6.03065C46.8697 6.00676 49 6.66791 50.7817 7.92065C51.7817 8.59065 52.6417 9.33065 53.5617 10.0707C54.0115 10.4453 54.4357 10.8496 54.8317 11.2807C55.2417 11.7007 55.6717 12.1107 56.0517 12.5507C57.6352 14.2886 59.089 16.1402 60.4017 18.0907C61.7222 20.0665 62.8858 22.1429 63.8817 24.3007C64.8119 26.4979 65.5448 28.7735 66.0717 31.1007C67.3117 36.6307 68.5217 42.5107 67.6817 48.5107C67.2628 51.953 66.0324 55.2467 64.0917 58.1207C63.5393 58.9049 62.8984 59.623 62.1817 60.2607C60.6137 61.6404 58.6354 62.4661 56.5517 62.6107C55.5895 62.698 54.6197 62.6475 53.6717 62.4607C51.5511 62.0276 49.5341 61.1889 47.7317 59.9907C46.0158 58.8673 44.4556 57.5224 43.0917 55.9907C42.0383 54.8536 41.1343 53.5867 40.4017 52.2207C38.7373 49.2865 38.4167 45.7779 39.5217 42.5907C40.1354 40.9097 41.2752 39.4718 42.7717 38.4907C43.8844 37.7945 45.1144 37.3065 46.4017 37.0507C47.6208 36.7927 48.8663 36.6819 50.1117 36.7207C52.5715 36.808 54.9875 37.3967 57.2117 38.4507C58.2373 38.9122 59.2069 39.4893 60.1017 40.1707C60.4905 40.4788 60.858 40.8129 61.2017 41.1707C61.5017 41.5207 61.7417 41.8807 61.9617 42.1707C62.325 42.721 62.5701 43.3407 62.6817 43.9907C62.7826 44.9118 62.4715 45.8304 61.8317 46.5007C61.6094 46.7803 61.3542 47.0321 61.0717 47.2507C60.6317 47.5407 60.0717 47.3707 59.4417 47.0807L58.3117 46.5807C58.1057 46.5101 57.913 46.4053 57.7417 46.2707C57.5517 46.1507 57.3817 46.0207 57.1917 45.8807C56.6017 45.4907 56.0617 45.0707 55.4517 44.7007C54.8101 44.3194 54.1417 43.9852 53.4517 43.7007C52.0955 43.149 50.6617 42.8116 49.2017 42.7007C48.5574 42.6549 47.91 42.6818 47.2717 42.7807C46.7838 42.88 46.3212 43.0773 45.9117 43.3607C45.6494 43.5711 45.4375 43.8376 45.2917 44.1407C45.1156 44.5353 45.0139 44.9591 44.9917 45.3907C44.9917 45.5807 44.9917 45.8207 44.9917 46.0307C44.9917 46.2407 44.9917 46.5207 44.9917 46.7607C45.0019 46.9368 45.0321 47.1113 45.0817 47.2807C45.1289 47.4668 45.1856 47.6504 45.2517 47.8307C45.6355 48.7813 46.1615 49.6681 46.8117 50.4607C48.2599 52.2713 50.0902 53.7396 52.1717 54.7607L52.1817 54.9307Z" fill="#1E7F9D"/>
</svg>
